STARTFONT 2.1
FONT -Efont-Fixed-Medium-I-Normal--16-160-75-75-C-80-ISO10646-1
SIZE 16 75 75
FONTBOUNDINGBOX 13 16 -2 -2
STARTPROPERTIES 18
COPYRIGHT "(c) Copyright 2000-2003 /efont/ The Electronic Font Open Laboratory."
FOUNDRY "Efont"
FAMILY_NAME "Fixed"
WEIGHT_NAME "Medium"
SLANT "I"
SETWIDTH_NAME "Normal"
ADD_STYLE_NAME ""
PIXEL_SIZE 16
POINT_SIZE 160
RESOLUTION_X 75
RESOLUTION_Y 75
AVERAGE_WIDTH 80
CHARSET_REGISTRY "ISO10646"
CHARSET_ENCODING "1"
_MULE_BASELINE_OFFSET -3
FONT_ASCENT 14
FONT_DESCENT 2
DEFAULT_CHAR 32
ENDPROPERTIES
CHARS 3975
STARTCHAR U+0000
ENCODING 0
SWIDTH 500 0
DWIDTH 8 0
BBX 13 16 -2 -2
BITMAP 
0000
02A8
0000
0410
0000
0410
0000
0820
0000
1040
0000
1040
0000
2A80
0000
0000
ENDCHAR
STARTCHAR U+0020
ENCODING 32
SWIDTH 500 0
DWIDTH 8 0
BBX 13 16 -2 -2
BITMAP 
0000
0000
0000
0000
0000
0000
0000
0000
0000
0000
0000
0000
0000
0000
0000
0000
ENDCHAR
STARTCHAR U+0021
ENCODING 33
SWIDTH 500 0
DWIDTH 8 0
BBX 13 16 -2 -2
BITMAP 
0000
0000
0000
0000
0080
0080
0100
0100
0100
0200
0200
0000
0400
0400
0000
0000
ENDCHAR
STARTCHAR U+0022
ENCODING 34
SWIDTH 500 0
DWIDTH 8 0
BBX 13 16 -2 -2
BITMAP 
0000
0000
0120
0240
0240
0240
0000
0000
0000
0000
0000
0000
0000
0000
0000
0000
ENDCHAR
STARTCHAR U+0023
ENCODING 35
SWIDTH 500 0
DWIDTH 8 0
BBX 13 16 -2 -2
BITMAP 
0000
0000
0000
0000
0120
0120
0240
0FC0
0480
0900
1F80
1200
2400
2400
0000
0000
ENDCHAR
STARTCHAR U+0024
ENCODING 36
SWIDTH 500 0
DWIDTH 8 0
BBX 13 16 -2 -2
BITMAP 
0000
0000
0000
0000
0080
03C0
0520
0900
0700
0380
0240
1280
0F00
0400
0000
0000
ENDCHAR
STARTCHAR U+0025
ENCODING 37
SWIDTH 500 0
DWIDTH 8 0
BBX 13 16 -2 -2
BITMAP 
0000
0000
0000
0000
0210
0520
0540
0280
0100
0100
0580
0E80
1280
2100
0000
0000
ENDCHAR
STARTCHAR U+0026
ENCODING 38
SWIDTH 500 0
DWIDTH 8 0
BBX 13 16 -2 -2
BITMAP 
0000
0000
0000
0000
0180
0240
0440
0440
0380
0E40
1140
1080
1300
0C80
0000
0000
ENDCHAR
STARTCHAR U+0027
ENCODING 39
SWIDTH 500 0
DWIDTH 8 0
BBX 13 16 -2 -2
BITMAP 
0000
0000
0040
0080
0080
0080
0000
0000
0000
0000
0000
0000
0000
0000
0000
0000
ENDCHAR
STARTCHAR U+0028
ENCODING 40
SWIDTH 500 0
DWIDTH 8 0
BBX 13 16 -2 -2
BITMAP 
0000
0000
0000
0040
0080
0100
0100
0200
0200
0400
0400
0400
0400
0400
0200
0000
ENDCHAR
STARTCHAR U+0029
ENCODING 41
SWIDTH 500 0
DWIDTH 8 0
BBX 13 16 -2 -2
BITMAP 
0000
0000
0000
0200
0100
0100
0100
0100
0100
0200
0200
0400
0400
0800
1000
0000
ENDCHAR
STARTCHAR U+002A
ENCODING 42
SWIDTH 500 0
DWIDTH 8 0
BBX 13 16 -2 -2
BITMAP 
0000
0000
0000
0000
0000
0000
0100
0920
05C0
0700
0A80
1240
0400
0000
0000
0000
ENDCHAR
STARTCHAR U+002B
ENCODING 43
SWIDTH 500 0
DWIDTH 8 0
BBX 13 16 -2 -2
BITMAP 
0000
0000
0000
0000
0000
0000
0100
0100
0100
1FC0
0200
0200
0400
0000
0000
0000
ENDCHAR
STARTCHAR U+002C
ENCODING 44
SWIDTH 500 0
DWIDTH 8 0
BBX 13 16 -2 -2
BITMAP 
0000
0000
0000
0000
0000
0000
0000
0000
0000
0000
0000
0000
0C00
0400
0800
1000
ENDCHAR
STARTCHAR U+002D
ENCODING 45
SWIDTH 500 0
DWIDTH 8 0
BBX 13 16 -2 -2
BITMAP 
0000
0000
0000
0000
0000
0000
0000
0000
0000
1F80
0000
0000
0000
0000
0000
0000
ENDCHAR
STARTCHAR U+002E
ENCODING 46
SWIDTH 500 0
DWIDTH 8 0
BBX 13 16 -2 -2
BITMAP 
0000
0000
0000
0000
0000
0000
0000
0000
0000
0000
0000
0000
0C00
0C00
0000
0000
ENDCHAR
STARTCHAR U+002F
ENCODING 47
SWIDTH 500 0
DWIDTH 8 0
BBX 13 16 -2 -2
BITMAP 
0000
0000
0000
0000
0020
0040
0080
0100
0200
0200
0400
0800
1000
2000
0000
0000
ENDCHAR
STARTCHAR U+0030
ENCODING 48
SWIDTH 500 0
DWIDTH 8 0
BBX 13 16 -2 -2
BITMAP 
0000
0000
0000
0000
0180
0240
0440
0840
0840
1080
1080
1100
1200
0C00
0000
0000
ENDCHAR
STARTCHAR U+0031
ENCODING 49
SWIDTH 500 0
DWIDTH 8 0
BBX 13 16 -2 -2
BITMAP 
0000
0000
0000
0000
0080
0380
0500
0100
0100
0200
0200
0200
0400
1F00
0000
0000
ENDCHAR
STARTCHAR U+0032
ENCODING 50
SWIDTH 500 0
DWIDTH 8 0
BBX 13 16 -2 -2
BITMAP 
0000
0000
0000
0000
0380
0440
0840
0040
0380
0400
0800
1000
2000
3F00
0000
0000
ENDCHAR
STARTCHAR U+0033
ENCODING 51
SWIDTH 500 0
DWIDTH 8 0
BBX 13 16 -2 -2
BITMAP 
0000
0000
0000
0000
0380
0440
0840
0040
0300
0080
0080
1080
1100
0E00
0000
0000
ENDCHAR
STARTCHAR U+0034
ENCODING 52
SWIDTH 500 0
DWIDTH 8 0
BBX 13 16 -2 -2
BITMAP 
0000
0000
0000
0000
0040
01C0
0280
0480
0880
1100
1F80
0100
0200
0200
0000
0000
ENDCHAR
STARTCHAR U+0035
ENCODING 53
SWIDTH 500 0
DWIDTH 8 0
BBX 13 16 -2 -2
BITMAP 
0000
0000
0000
0000
07E0
0400
0800
0800
0F00
0080
0080
0080
2100
1E00
0000
0000
ENDCHAR
STARTCHAR U+0036
ENCODING 54
SWIDTH 500 0
DWIDTH 8 0
BBX 13 16 -2 -2
BITMAP 
0000
0000
0000
0000
01C0
0200
0400
0800
0F00
1080
1080
1080
1100
0E00
0000
0000
ENDCHAR
STARTCHAR U+0037
ENCODING 55
SWIDTH 500 0
DWIDTH 8 0
BBX 13 16 -2 -2
BITMAP 
0000
0000
0000
0000
07E0
0040
0040
0080
0100
0100
0200
0200
0400
0400
0000
0000
ENDCHAR
STARTCHAR U+0038
ENCODING 56
SWIDTH 500 0
DWIDTH 8 0
BBX 13 16 -2 -2
BITMAP 
0000
0000
0000
0000
0380
0440
0840
0840
0700
0880
1080
1080
1100
0E00
0000
0000
ENDCHAR
STARTCHAR U+0039
ENCODING 57
SWIDTH 500 0
DWIDTH 8 0
BBX 13 16 -2 -2
BITMAP 
0000
0000
0000
0000
0380
0440
0840
0840
07C0
0080
0080
0100
0200
1C00
0000
0000
ENDCHAR
STARTCHAR U+003A
ENCODING 58
SWIDTH 500 0
DWIDTH 8 0
BBX 13 16 -2 -2
BITMAP 
0000
0000
0000
0000
0000
0000
0300
0300
0000
0000
0000
0600
0C00
0000
0000
0000
ENDCHAR
STARTCHAR U+003B
ENCODING 59
SWIDTH 500 0
DWIDTH 8 0
BBX 13 16 -2 -2
BITMAP 
0000
0000
0000
0000
0000
0000
0300
0300
0000
0000
0000
0600
0400
0400
0800
0000
ENDCHAR
STARTCHAR U+003C
ENCODING 60
SWIDTH 500 0
DWIDTH 8 0
BBX 13 16 -2 -2
BITMAP 
0000
0000
0000
0000
0000
0060
0080
0100
0600
0800
0400
0200
0200
0100
0000
0000
ENDCHAR
STARTCHAR U+003D
ENCODING 61
SWIDTH 500 0
DWIDTH 8 0
BBX 13 16 -2 -2
BITMAP 
0000
0000
0000
0000
0000
0000
0000
0FC0
0000
0000
0000
1F80
0000
0000
0000
0000
ENDCHAR
STARTCHAR U+003E
ENCODING 62
SWIDTH 500 0
DWIDTH 8 0
BBX 13 16 -2 -2
BITMAP 
0000
0000
0000
0000
0000
0400
0400
0200
0100
0100
0200
0C00
1000
2000
0000
0000
ENDCHAR
STARTCHAR U+003F
ENCODING 63
SWIDTH 500 0
DWIDTH 8 0
BBX 13 16 -2 -2
BITMAP 
0000
0000
0000
0000
0380
0440
0840
0040
0080
0100
0200
0000
0400
0400
0000
0000
ENDCHAR
STARTCHAR U+0040
ENCODING 64
SWIDTH 500 0
DWIDTH 8 0
BBX 13 16 -2 -2
BITMAP 
0000
0000
0000
0000
01C0
0240
0540
0AC0
0A40
1480
1480
1380
1000
0F00
0000
0000
ENDCHAR
STARTCHAR U+0041
ENCODING 65
SWIDTH 500 0
DWIDTH 8 0
BBX 13 16 -2 -2
BITMAP 
0000
0000
0000
0000
0100
0280
0480
0840
0840
1F80
1080
1080
2100
2100
0000
0000
ENDCHAR
STARTCHAR U+0042
ENCODING 66
SWIDTH 500 0
DWIDTH 8 0
BBX 13 16 -2 -2
BITMAP 
0000
0000
0000
0000
0780
0440
0840
0840
0F00
1080
1080
1080
2100
3E00
0000
0000
ENDCHAR
STARTCHAR U+0043
ENCODING 67
SWIDTH 500 0
DWIDTH 8 0
BBX 13 16 -2 -2
BITMAP 
0000
0000
0000
0000
0380
0440
0840
0800
0800
1000
1000
1080
1100
0E00
0000
0000
ENDCHAR
STARTCHAR U+0044
ENCODING 68
SWIDTH 500 0
DWIDTH 8 0
BBX 13 16 -2 -2
BITMAP 
0000
0000
0000
0000
0780
0440
0840
0840
0840
1080
1080
1100
2200
3C00
0000
0000
ENDCHAR
STARTCHAR U+0045
ENCODING 69
SWIDTH 500 0
DWIDTH 8 0
BBX 13 16 -2 -2
BITMAP 
0000
0000
0000
0000
07E0
0400
0800
0800
0F80
1000
1000
1000
2000
3F00
0000
0000
ENDCHAR
STARTCHAR U+0046
ENCODING 70
SWIDTH 500 0
DWIDTH 8 0
BBX 13 16 -2 -2
BITMAP 
0000
0000
0000
0000
07E0
0400
0800
0800
0F80
1000
1000
1000
2000
2000
0000
0000
ENDCHAR
STARTCHAR U+0047
ENCODING 71
SWIDTH 500 0
DWIDTH 8 0
BBX 13 16 -2 -2
BITMAP 
0000
0000
0000
0000
0380
0440
0840
0800
0800
1380
1080
1080
1300
0D00
0000
0000
ENDCHAR
STARTCHAR U+0048
ENCODING 72
SWIDTH 500 0
DWIDTH 8 0
BBX 13 16 -2 -2
BITMAP 
0000
0000
0000
0000
0420
0420
0840
0840
0FC0
1080
1080
1080
2100
2100
0000
0000
ENDCHAR
STARTCHAR U+0049
ENCODING 73
SWIDTH 500 0
DWIDTH 8 0
BBX 13 16 -2 -2
BITMAP 
0000
0000
0000
0000
03E0
0080
0100
0100
0100
0200
0200
0200
0400
1F00
0000
0000
ENDCHAR
STARTCHAR U+004A
ENCODING 74
SWIDTH 500 0
DWIDTH 8 0
BBX 13 16 -2 -2
BITMAP 
0000
0000
0000
0000
01F0
0040
0080
0080
0080
0100
0100
1100
1200
0C00
0000
0000
ENDCHAR
STARTCHAR U+004B
ENCODING 75
SWIDTH 500 0
DWIDTH 8 0
BBX 13 16 -2 -2
BITMAP 
0000
0000
0000
0000
0420
04C0
0900
0A00
0C00
1800
1400
1200
2200
2100
0000
0000
ENDCHAR
STARTCHAR U+004C
ENCODING 76
SWIDTH 500 0
DWIDTH 8 0
BBX 13 16 -2 -2
BITMAP 
0000
0000
0000
0000
0400
0400
0800
0800
0800
1000
1000
1000
2000
3F00
0000
0000
ENDCHAR
STARTCHAR U+004D
ENCODING 77
SWIDTH 500 0
DWIDTH 8 0
BBX 13 16 -2 -2
BITMAP 
0000
0000
0000
0000
0420
0420
0CC0
0CC0
0D40
1680
1080
1080
2100
2100
0000
0000
ENDCHAR
STARTCHAR U+004E
ENCODING 78
SWIDTH 500 0
DWIDTH 8 0
BBX 13 16 -2 -2
BITMAP 
0000
0000
0000
0000
0420
0620
0C40
0A40
0A40
1280
1280
1380
2300
2100
0000
0000
ENDCHAR
STARTCHAR U+004F
ENCODING 79
SWIDTH 500 0
DWIDTH 8 0
BBX 13 16 -2 -2
BITMAP 
0000
0000
0000
0000
0380
0440
0840
0840
0840
1080
1080
1080
1100
0E00
0000
0000
ENDCHAR
STARTCHAR U+0050
ENCODING 80
SWIDTH 500 0
DWIDTH 8 0
BBX 13 16 -2 -2
BITMAP 
0000
0000
0000
0000
0780
0440
0840
0840
0F80
1000
1000
1000
2000
2000
0000
0000
ENDCHAR
STARTCHAR U+0051
ENCODING 81
SWIDTH 500 0
DWIDTH 8 0
BBX 13 16 -2 -2
BITMAP 
0000
0000
0000
0000
0380
0440
0840
0840
0840
1080
1080
1C80
3300
1E00
0180
0000
ENDCHAR
STARTCHAR U+0052
ENCODING 82
SWIDTH 500 0
DWIDTH 8 0
BBX 13 16 -2 -2
BITMAP 
0000
0000
0000
0000
0780
0440
0840
0840
0F80
1200
1100
1100
2100
2100
0000
0000
ENDCHAR
STARTCHAR U+0053
ENCODING 83
SWIDTH 500 0
DWIDTH 8 0
BBX 13 16 -2 -2
BITMAP 
0000
0000
0000
0000
0380
0440
0840
0800
0600
0100
0080
1080
1100
0E00
0000
0000
ENDCHAR
STARTCHAR U+0054
ENCODING 84
SWIDTH 500 0
DWIDTH 8 0
BBX 13 16 -2 -2
BITMAP 
0000
0000
0000
0000
07F0
0080
0100
0100
0100
0200
0200
0200
0400
0400
0000
0000
ENDCHAR
STARTCHAR U+0055
ENCODING 85
SWIDTH 500 0
DWIDTH 8 0
BBX 13 16 -2 -2
BITMAP 
0000
0000
0000
0000
0420
0420
0840
0840
0840
1080
1080
1080
1100
0E00
0000
0000
ENDCHAR
STARTCHAR U+0056
ENCODING 86
SWIDTH 500 0
DWIDTH 8 0
BBX 13 16 -2 -2
BITMAP 
0000
0000
0000
0000
0410
0420
0420
0440
0480
0480
0500
0600
0200
0400
0000
0000
ENDCHAR
STARTCHAR U+0057
ENCODING 87
SWIDTH 500 0
DWIDTH 8 0
BBX 13 16 -2 -2
BITMAP 
0000
0000
0000
0000
0420
0420
0840
0840
0D40
1580
1980
1980
2100
2100
0000
0000
ENDCHAR
STARTCHAR U+0058
ENCODING 88
SWIDTH 500 0
DWIDTH 8 0
BBX 13 16 -2 -2
BITMAP 
0000
0000
0000
0000
0420
0440
0440
0480
0500
0600
0900
1100
1100
2100
0000
0000
ENDCHAR
STARTCHAR U+0059
ENCODING 89
SWIDTH 500 0
DWIDTH 8 0
BBX 13 16 -2 -2
BITMAP 
0000
0000
0000
0000
0410
0420
0420
0440
0380
0200
0200
0200
0400
0400
0000
0000
ENDCHAR
STARTCHAR U+005A
ENCODING 90
SWIDTH 500 0
DWIDTH 8 0
BBX 13 16 -2 -2
BITMAP 
0000
0000
0000
0000
07E0
0020
0040
0080
0300
0400
0800
1000
2000
3F00
0000
0000
ENDCHAR
STARTCHAR U+005B
ENCODING 91
SWIDTH 500 0
DWIDTH 8 0
BBX 13 16 -2 -2
BITMAP 
0000
0000
0000
00E0
0080
0080
0100
0100
0100
0200
0200
0200
0400
0400
0700
0000
ENDCHAR
STARTCHAR U+005C
ENCODING 92
SWIDTH 500 0
DWIDTH 8 0
BBX 13 16 -2 -2
BITMAP 
0000
0000
0000
0000
0400
0400
0400
0200
0200
0200
0200
0100
0100
0100
0000
0000
ENDCHAR
STARTCHAR U+005D
ENCODING 93
SWIDTH 500 0
DWIDTH 8 0
BBX 13 16 -2 -2
BITMAP 
0000
0000
0000
0700
0100
0100
0200
0200
0200
0400
0400
0400
0800
0800
3800
0000
ENDCHAR
STARTCHAR U+005E
ENCODING 94
SWIDTH 500 0
DWIDTH 8 0
BBX 13 16 -2 -2
BITMAP 
0000
0000
0180
0240
0420
0000
0000
0000
0000
0000
0000
0000
0000
0000
0000
0000
ENDCHAR
STARTCHAR U+005F
ENCODING 95
SWIDTH 500 0
DWIDTH 8 0
BBX 13 16 -2 -2
BITMAP 
0000
0000
0000
0000
0000
0000
0000
0000
0000
0000
0000
0000
0000
0000
3F80
0000
ENDCHAR
STARTCHAR U+0060
ENCODING 96
SWIDTH 500 0
DWIDTH 8 0
BBX 13 16 -2 -2
BITMAP 
0000
0000
00C0
0100
0100
0080
0000
0000
0000
0000
0000
0000
0000
0000
0000
0000
ENDCHAR
STARTCHAR U+0061
ENCODING 97
SWIDTH 500 0
DWIDTH 8 0
BBX 13 16 -2 -2
BITMAP 
0000
0000
0000
0000
0000
0000
0780
0840
0040
0F80
1080
1080
1300
0D00
0000
0000
ENDCHAR
STARTCHAR U+0062
ENCODING 98
SWIDTH 500 0
DWIDTH 8 0
BBX 13 16 -2 -2
BITMAP 
0000
0000
0000
0400
0400
0400
0B80
0C40
0840
1080
1080
1080
3100
2E00
0000
0000
ENDCHAR
STARTCHAR U+0063
ENCODING 99
SWIDTH 500 0
DWIDTH 8 0
BBX 13 16 -2 -2
BITMAP 
0000
0000
0000
0000
0000
0000
0780
0840
0800
1000
1000
1000
1100
0E00
0000
0000
ENDCHAR
STARTCHAR U+0064
ENCODING 100
SWIDTH 500 0
DWIDTH 8 0
BBX 13 16 -2 -2
BITMAP 
0000
0000
0000
0020
0020
0020
0740
08C0
0840
1080
1080
1080
1300
0D00
0000
0000
ENDCHAR
STARTCHAR U+0065
ENCODING 101
SWIDTH 500 0
DWIDTH 8 0
BBX 13 16 -2 -2
BITMAP 
0000
0000
0000
0000
0000
0000
0780
0840
0840
1F80
1000
1000
1100
0E00
0000
0000
ENDCHAR
STARTCHAR U+0066
ENCODING 102
SWIDTH 500 0
DWIDTH 8 0
BBX 13 16 -2 -2
BITMAP 
0000
0000
0000
00C0
0100
0100
0200
0F80
0200
0400
0400
0400
0800
0800
0000
0000
ENDCHAR
STARTCHAR U+0067
ENCODING 103
SWIDTH 500 0
DWIDTH 8 0
BBX 13 16 -2 -2
BITMAP 
0000
0000
0000
0000
0000
0040
0740
0880
0880
0900
0E00
1000
1E00
2100
2200
1C00
ENDCHAR
STARTCHAR U+0068
ENCODING 104
SWIDTH 500 0
DWIDTH 8 0
BBX 13 16 -2 -2
BITMAP 
0000
0000
0000
0400
0400
0400
0B80
0C40
0840
1080
1080
1080
2100
2100
0000
0000
ENDCHAR
STARTCHAR U+0069
ENCODING 105
SWIDTH 500 0
DWIDTH 8 0
BBX 13 16 -2 -2
BITMAP 
0000
0000
0000
0080
0080
0000
0300
0100
0100
0200
0200
0200
0400
1F00
0000
0000
ENDCHAR
STARTCHAR U+006A
ENCODING 106
SWIDTH 500 0
DWIDTH 8 0
BBX 13 16 -2 -2
BITMAP 
0000
0000
0000
0040
0040
0000
0180
0080
0080
0100
0100
0100
0200
0200
2C00
3000
ENDCHAR
STARTCHAR U+006B
ENCODING 107
SWIDTH 500 0
DWIDTH 8 0
BBX 13 16 -2 -2
BITMAP 
0000
0000
0000
0000
0400
0400
0880
0900
0E00
1800
1400
1200
2200
2100
0000
0000
ENDCHAR
STARTCHAR U+006C
ENCODING 108
SWIDTH 500 0
DWIDTH 8 0
BBX 13 16 -2 -2
BITMAP 
0000
0000
0000
0000
0180
0080
0100
0100
0100
0200
0200
0200
0400
1F00
0000
0000
ENDCHAR
STARTCHAR U+006D
ENCODING 109
SWIDTH 500 0
DWIDTH 8 0
BBX 13 16 -2 -2
BITMAP 
0000
0000
0000
0000
0000
0000
0EC0
0920
0920
1240
1240
1240
2480
2480
0000
0000
ENDCHAR
STARTCHAR U+006E
ENCODING 110
SWIDTH 500 0
DWIDTH 8 0
BBX 13 16 -2 -2
BITMAP 
0000
0000
0000
0000
0000
0000
0B80
0C40
0840
1080
1080
1080
2100
2100
0000
0000
ENDCHAR
STARTCHAR U+006F
ENCODING 111
SWIDTH 500 0
DWIDTH 8 0
BBX 13 16 -2 -2
BITMAP 
0000
0000
0000
0000
0000
0000
0780
0840
0840
1080
1080
1080
1100
0E00
0000
0000
ENDCHAR
STARTCHAR U+0070
ENCODING 112
SWIDTH 500 0
DWIDTH 8 0
BBX 13 16 -2 -2
BITMAP 
0000
0000
0000
0000
0000
0000
0B80
0C40
0840
1080
1080
1080
3100
2E00
2000
4000
ENDCHAR
STARTCHAR U+0071
ENCODING 113
SWIDTH 500 0
DWIDTH 8 0
BBX 13 16 -2 -2
BITMAP 
0000
0000
0000
0000
0000
0000
0740
08C0
0840
1080
1080
1080
1300
0D00
0100
0200
ENDCHAR
STARTCHAR U+0072
ENCODING 114
SWIDTH 500 0
DWIDTH 8 0
BBX 13 16 -2 -2
BITMAP 
0000
0000
0000
0000
0000
0000
0B80
0C40
0840
1000
1000
1000
2000
2000
0000
0000
ENDCHAR
STARTCHAR U+0073
ENCODING 115
SWIDTH 500 0
DWIDTH 8 0
BBX 13 16 -2 -2
BITMAP 
0000
0000
0000
0000
0000
0000
0780
0840
0800
0400
0200
0100
2100
1E00
0000
0000
ENDCHAR
STARTCHAR U+0074
ENCODING 116
SWIDTH 500 0
DWIDTH 8 0
BBX 13 16 -2 -2
BITMAP 
0000
0000
0000
0000
0100
0100
0F80
0200
0200
0400
0400
0400
0400
0200
0000
0000
ENDCHAR
STARTCHAR U+0075
ENCODING 117
SWIDTH 500 0
DWIDTH 8 0
BBX 13 16 -2 -2
BITMAP 
0000
0000
0000
0000
0000
0000
0840
0840
0840
1080
1080
1080
1300
0D00
0000
0000
ENDCHAR
STARTCHAR U+0076
ENCODING 118
SWIDTH 500 0
DWIDTH 8 0
BBX 13 16 -2 -2
BITMAP 
0000
0000
0000
0000
0000
0000
0840
0840
0880
0880
0900
0A00
0A00
0C00
0000
0000
ENDCHAR
STARTCHAR U+0077
ENCODING 119
SWIDTH 500 0
DWIDTH 8 0
BBX 13 16 -2 -2
BITMAP 
0000
0000
0000
0000
0000
0000
0820
0920
0920
1240
1240
1240
1280
0B00
0000
0000
ENDCHAR
STARTCHAR U+0078
ENCODING 120
SWIDTH 500 0
DWIDTH 8 0
BBX 13 16 -2 -2
BITMAP 
0000
0000
0000
0000
0000
0000
0840
0840
0580
0600
0600
0900
1100
2100
0000
0000
ENDCHAR
STARTCHAR U+0079
ENCODING 121
SWIDTH 500 0
DWIDTH 8 0
BBX 13 16 -2 -2
BITMAP 
0000
0000
0000
0000
0000
0000
0840
0840
0840
1080
1080
0B80
0500
0100
0200
3C00
ENDCHAR
STARTCHAR U+007A
ENCODING 122
SWIDTH 500 0
DWIDTH 8 0
BBX 13 16 -2 -2
BITMAP 
0000
0000
0000
0000
0000
0000
0FC0
0080
0100
0200
0400
0800
1000
3F00
0000
0000
ENDCHAR
STARTCHAR U+007B
ENCODING 123
SWIDTH 500 0
DWIDTH 8 0
BBX 13 16 -2 -2
BITMAP 
0000
0000
0000
00C0
0100
0100
0100
0100
0200
0200
0200
0400
0400
0800
0600
0000
ENDCHAR
STARTCHAR U+007C
ENCODING 124
SWIDTH 500 0
DWIDTH 8 0
BBX 13 16 -2 -2
BITMAP 
0000
0000
0040
0080
0080
0080
0100
0100
0100
0200
0200
0200
0400
0400
0400
0800
ENDCHAR
STARTCHAR U+007D
ENCODING 125
SWIDTH 500 0
DWIDTH 8 0
BBX 13 16 -2 -2
BITMAP 
0000
0000
0000
0300
0080
0100
0100
0200
0200
0200
0400
0400
0400
0400
1800
0000
ENDCHAR
STARTCHAR U+007E
ENCODING 126
SWIDTH 500 0
DWIDTH 8 0
BBX 13 16 -2 -2
BITMAP 
0000
0000
0000
0310
0490
0460
0000
0000
0000
0000
0000
0000
0000
0000
0000
0000
ENDCHAR
STARTCHAR U+00A0
ENCODING 160
SWIDTH 500 0
DWIDTH 8 0
BBX 13 16 -2 -2
BITMAP 
0000
0000
0000
0000
0000
0000
0000
0000
0000
0000
0000
0000
0000
0000
0000
0000
ENDCHAR
STARTCHAR U+00A1
ENCODING 161
SWIDTH 500 0
DWIDTH 8 0
BBX 13 16 -2 -2
BITMAP 
0000
0000
0000
0000
0080
0080
0000
0100
0100
0200
0200
0200
0400
0400
0000
0000
ENDCHAR
STARTCHAR U+00A2
ENCODING 162
SWIDTH 500 0
DWIDTH 8 0
BBX 13 16 -2 -2
BITMAP 
0000
0000
0000
0000
0080
0080
07C0
0920
0900
1200
1240
0F80
0400
0400
0000
0000
ENDCHAR
STARTCHAR U+00A3
ENCODING 163
SWIDTH 500 0
DWIDTH 8 0
BBX 13 16 -2 -2
BITMAP 
0000
0000
0000
0000
00E0
0100
0200
0200
0F80
0400
0400
0400
1F00
3080
0000
0000
ENDCHAR
STARTCHAR U+00A4
ENCODING 164
SWIDTH 500 0
DWIDTH 8 0
BBX 13 16 -2 -2
BITMAP 
0000
0000
0000
0000
0000
0420
0440
0780
0480
0900
0F00
1100
2100
0000
0000
0000
ENDCHAR
STARTCHAR U+00A5
ENCODING 165
SWIDTH 500 0
DWIDTH 8 0
BBX 13 16 -2 -2
BITMAP 
0000
0000
0000
0000
0410
0260
0280
0100
0FE0
0200
1FC0
0200
0400
0400
0000
0000
ENDCHAR
STARTCHAR U+00A6
ENCODING 166
SWIDTH 500 0
DWIDTH 8 0
BBX 13 16 -2 -2
BITMAP 
0000
0000
0000
0000
0080
0080
0100
0100
0000
0000
0200
0200
0400
0400
0000
0000
ENDCHAR
STARTCHAR U+00A7
ENCODING 167
SWIDTH 500 0
DWIDTH 8 0
BBX 13 16 -2 -2
BITMAP 
0000
0000
0000
0000
03C0
0420
0400
0700
0880
0880
0600
0100
2100
1E00
0000
0000
ENDCHAR
STARTCHAR U+00A8
ENCODING 168
SWIDTH 500 0
DWIDTH 8 0
BBX 13 16 -2 -2
BITMAP 
0120
0120
0000
0000
0000
0000
0000
0000
0000
0000
0000
0000
0000
0000
0000
0000
ENDCHAR
STARTCHAR U+00A9
ENCODING 169
SWIDTH 500 0
DWIDTH 8 0
BBX 13 16 -2 -2
BITMAP 
0000
0000
0000
0000
03C0
0440
0B40
0CC0
0C40
1880
1980
1680
1100
0E00
0000
0000
ENDCHAR
STARTCHAR U+00AA
ENCODING 170
SWIDTH 500 0
DWIDTH 8 0
BBX 13 16 -2 -2
BITMAP 
0000
0000
00C0
0020
01E0
0220
01C0
0000
07C0
0000
0000
0000
0000
0000
0000
0000
ENDCHAR
STARTCHAR U+00AB
ENCODING 171
SWIDTH 500 0
DWIDTH 8 0
BBX 13 16 -2 -2
BITMAP 
0000
0000
0000
0000
0000
0220
0240
0480
0980
1200
0900
0900
0900
0900
0000
0000
ENDCHAR
STARTCHAR U+00AC
ENCODING 172
SWIDTH 500 0
DWIDTH 8 0
BBX 13 16 -2 -2
BITMAP 
0000
0000
0000
0000
0000
0000
0000
0000
0000
0000
1F80
0080
0100
0100
0000
0000
ENDCHAR
STARTCHAR U+00AD
ENCODING 173
SWIDTH 500 0
DWIDTH 8 0
BBX 13 16 -2 -2
BITMAP 
0000
0000
0000
0000
0000
0000
0000
0000
0000
1F80
0000
0000
0000
0000
0000
0000
ENDCHAR
STARTCHAR U+00AE
ENCODING 174
SWIDTH 500 0
DWIDTH 8 0
BBX 13 16 -2 -2
BITMAP 
0000
0000
0000
0000
03C0
0440
0F40
0CC0
0DC0
1E80
1A80
1980
2100
1E00
0000
0000
ENDCHAR
STARTCHAR U+00AF
ENCODING 175
SWIDTH 500 0
DWIDTH 8 0
BBX 13 16 -2 -2
BITMAP 
0000
0000
03F0
0000
0000
0000
0000
0000
0000
0000
0000
0000
0000
0000
0000
0000
ENDCHAR
STARTCHAR U+00B0
ENCODING 176
SWIDTH 500 0
DWIDTH 8 0
BBX 13 16 -2 -2
BITMAP 
0080
0140
0180
0100
0000
0000
0000
0000
0000
0000
0000
0000
0000
0000
0000
0000
ENDCHAR
STARTCHAR U+00B1
ENCODING 177
SWIDTH 500 0
DWIDTH 8 0
BBX 13 16 -2 -2
BITMAP 
0000
0000
0000
0000
0080
0080
0100
0FE0
0100
0200
0200
0000
3F80
0000
0000
0000
ENDCHAR
STARTCHAR U+00B2
ENCODING 178
SWIDTH 500 0
DWIDTH 8 0
BBX 13 16 -2 -2
BITMAP 
0000
0000
01C0
0220
0020
01C0
0200
0400
07C0
0000
0000
0000
0000
0000
0000
0000
ENDCHAR
STARTCHAR U+00B3
ENCODING 179
SWIDTH 500 0
DWIDTH 8 0
BBX 13 16 -2 -2
BITMAP 
0000
0000
01C0
0220
0020
0180
0040
0440
0380
0000
0000
0000
0000
0000
0000
0000
ENDCHAR
STARTCHAR U+00B4
ENCODING 180
SWIDTH 500 0
DWIDTH 8 0
BBX 13 16 -2 -2
BITMAP 
0060
0180
0000
0000
0000
0000
0000
0000
0000
0000
0000
0000
0000
0000
0000
0000
ENDCHAR
STARTCHAR U+00B5
ENCODING 181
SWIDTH 500 0
DWIDTH 8 0
BBX 13 16 -2 -2
BITMAP 
0000
0000
0000
0000
0000
0000
0000
0000
0440
0880
0880
0880
1B00
1500
1000
2000
ENDCHAR
STARTCHAR U+00B6
ENCODING 182
SWIDTH 500 0
DWIDTH 8 0
BBX 13 16 -2 -2
BITMAP 
0000
0000
0000
03E0
07A0
07A0
0F40
0F40
0740
0280
0280
0280
0500
0500
0700
0000
ENDCHAR
STARTCHAR U+00B7
ENCODING 183
SWIDTH 500 0
DWIDTH 8 0
BBX 13 16 -2 -2
BITMAP 
0000
0000
0000
0000
0000
0000
0000
0000
0300
0600
0000
0000
0000
0000
0000
0000
ENDCHAR
STARTCHAR U+00B8
ENCODING 184
SWIDTH 500 0
DWIDTH 8 0
BBX 13 16 -2 -2
BITMAP 
0000
0000
0000
0000
0000
0000
0000
0000
0000
0000
0000
0000
0000
0000
0C00
3000
ENDCHAR
STARTCHAR U+00B9
ENCODING 185
SWIDTH 500 0
DWIDTH 8 0
BBX 13 16 -2 -2
BITMAP 
0000
0000
0040
0180
0280
0080
0100
0100
0100
0000
0000
0000
0000
0000
0000
0000
ENDCHAR
STARTCHAR U+00BA
ENCODING 186
SWIDTH 500 0
DWIDTH 8 0
BBX 13 16 -2 -2
BITMAP 
0000
0000
00C0
0120
0220
0240
0180
0000
07C0
0000
0000
0000
0000
0000
0000
0000
ENDCHAR
STARTCHAR U+00BB
ENCODING 187
SWIDTH 500 0
DWIDTH 8 0
BBX 13 16 -2 -2
BITMAP 
0000
0000
0000
0000
0000
0480
0480
0480
0480
0480
0900
1100
1200
2400
0000
0000
ENDCHAR
STARTCHAR U+00BC
ENCODING 188
SWIDTH 500 0
DWIDTH 8 0
BBX 13 16 -2 -2
BITMAP 
0000
0000
0000
0000
0220
0640
0480
0500
0600
0280
0580
0E80
1700
2100
0000
0000
ENDCHAR
STARTCHAR U+00BD
ENCODING 189
SWIDTH 500 0
DWIDTH 8 0
BBX 13 16 -2 -2
BITMAP 
0000
0000
0000
0000
0220
0640
0480
0500
0700
0500
0680
0900
1200
2700
0000
0000
ENDCHAR
STARTCHAR U+00BE
ENCODING 190
SWIDTH 500 0
DWIDTH 8 0
BBX 13 16 -2 -2
BITMAP 
0000
0000
0000
0000
0620
0340
0480
0300
0E00
0480
0580
0E80
1700
2100
0000
0000
ENDCHAR
STARTCHAR U+00BF
ENCODING 191
SWIDTH 500 0
DWIDTH 8 0
BBX 13 16 -2 -2
BITMAP 
0000
0000
0000
0000
0080
0080
0000
0100
0200
0C00
1080
1080
1100
0E00
0000
0000
ENDCHAR
STARTCHAR U+00C0
ENCODING 192
SWIDTH 500 0
DWIDTH 8 0
BBX 13 16 -2 -2
BITMAP 
0180
0060
0000
0000
0100
0280
0480
0840
0840
1F80
1080
1080
2100
2100
0000
0000
ENDCHAR
STARTCHAR U+00C1
ENCODING 193
SWIDTH 500 0
DWIDTH 8 0
BBX 13 16 -2 -2
BITMAP 
0060
0180
0000
0000
0100
0280
0480
0840
0840
1F80
1080
1080
2100
2100
0000
0000
ENDCHAR
STARTCHAR U+00C2
ENCODING 194
SWIDTH 500 0
DWIDTH 8 0
BBX 13 16 -2 -2
BITMAP 
00C0
0120
0000
0000
0100
0280
0480
0840
0840
1F80
1080
1080
2100
2100
0000
0000
ENDCHAR
STARTCHAR U+00C3
ENCODING 195
SWIDTH 500 0
DWIDTH 8 0
BBX 13 16 -2 -2
BITMAP 
0190
0260
0000
0000
0100
0280
0480
0840
0840
1F80
1080
1080
2100
2100
0000
0000
ENDCHAR
STARTCHAR U+00C4
ENCODING 196
SWIDTH 500 0
DWIDTH 8 0
BBX 13 16 -2 -2
BITMAP 
0120
0120
0000
0000
0100
0280
0480
0840
0840
1F80
1080
1080
2100
2100
0000
0000
ENDCHAR
STARTCHAR U+00C5
ENCODING 197
SWIDTH 500 0
DWIDTH 8 0
BBX 13 16 -2 -2
BITMAP 
00C0
0120
00C0
0000
0100
0280
0480
0840
0840
1F80
1080
1080
2100
2100
0000
0000
ENDCHAR
STARTCHAR U+00C6
ENCODING 198
SWIDTH 500 0
DWIDTH 8 0
BBX 13 16 -2 -2
BITMAP 
0000
0000
0000
0000
01F0
0280
0500
0900
0FE0
1200
1200
1200
2400
2780
0000
0000
ENDCHAR
STARTCHAR U+00C7
ENCODING 199
SWIDTH 500 0
DWIDTH 8 0
BBX 13 16 -2 -2
BITMAP 
0000
0000
0000
0000
0380
0440
0840
0800
0800
1000
1000
1080
1100
0E00
0C00
3000
ENDCHAR
STARTCHAR U+00C8
ENCODING 200
SWIDTH 500 0
DWIDTH 8 0
BBX 13 16 -2 -2
BITMAP 
0180
0060
0000
0000
07E0
0400
0800
0800
0F80
1000
1000
1000
2000
3F00
0000
0000
ENDCHAR
STARTCHAR U+00C9
ENCODING 201
SWIDTH 500 0
DWIDTH 8 0
BBX 13 16 -2 -2
BITMAP 
0060
0180
0000
0000
07E0
0400
0800
0800
0F80
1000
1000
1000
2000
3F00
0000
0000
ENDCHAR
STARTCHAR U+00CA
ENCODING 202
SWIDTH 500 0
DWIDTH 8 0
BBX 13 16 -2 -2
BITMAP 
00C0
0120
0000
0000
07E0
0400
0800
0800
0F80
1000
1000
1000
2000
3F00
0000
0000
ENDCHAR
STARTCHAR U+00CB
ENCODING 203
SWIDTH 500 0
DWIDTH 8 0
BBX 13 16 -2 -2
BITMAP 
0120
0120
0000
0000
07E0
0400
0800
0800
0F80
1000
1000
1000
2000
3F00
0000
0000
ENDCHAR
STARTCHAR U+00CC
ENCODING 204
SWIDTH 500 0
DWIDTH 8 0
BBX 13 16 -2 -2
BITMAP 
00C0
0030
0000
0000
03E0
0080
0100
0100
0100
0200
0200
0200
0400
1F00
0000
0000
ENDCHAR
STARTCHAR U+00CD
ENCODING 205
SWIDTH 500 0
DWIDTH 8 0
BBX 13 16 -2 -2
BITMAP 
0060
0180
0000
0000
03E0
0080
0100
0100
0100
0200
0200
0200
0400
1F00
0000
0000
ENDCHAR
STARTCHAR U+00CE
ENCODING 206
SWIDTH 500 0
DWIDTH 8 0
BBX 13 16 -2 -2
BITMAP 
00C0
0120
0000
0000
03E0
0080
0100
0100
0100
0200
0200
0200
0400
1F00
0000
0000
ENDCHAR
STARTCHAR U+00CF
ENCODING 207
SWIDTH 500 0
DWIDTH 8 0
BBX 13 16 -2 -2
BITMAP 
0120
0120
0000
0000
03E0
0080
0100
0100
0100
0200
0200
0200
0400
1F00
0000
0000
ENDCHAR
STARTCHAR U+00D0
ENCODING 208
SWIDTH 500 0
DWIDTH 8 0
BBX 13 16 -2 -2
BITMAP 
0000
0000
0000
0000
0780
0440
0840
0840
1E40
1080
1080
1100
2200
3C00
0000
0000
ENDCHAR
STARTCHAR U+00D1
ENCODING 209
SWIDTH 500 0
DWIDTH 8 0
BBX 13 16 -2 -2
BITMAP 
0190
0260
0000
0000
0420
0620
0C40
0A40
0A40
1280
1280
1380
2300
2100
0000
0000
ENDCHAR
STARTCHAR U+00D2
ENCODING 210
SWIDTH 500 0
DWIDTH 8 0
BBX 13 16 -2 -2
BITMAP 
0180
0060
0000
0000
0380
0440
0840
0840
0840
1080
1080
1080
1100
0E00
0000
0000
ENDCHAR
STARTCHAR U+00D3
ENCODING 211
SWIDTH 500 0
DWIDTH 8 0
BBX 13 16 -2 -2
BITMAP 
0060
0180
0000
0000
0380
0440
0840
0840
0840
1080
1080
1080
1100
0E00
0000
0000
ENDCHAR
STARTCHAR U+00D4
ENCODING 212
SWIDTH 500 0
DWIDTH 8 0
BBX 13 16 -2 -2
BITMAP 
00C0
0120
0000
0000
0380
0440
0840
0840
0840
1080
1080
1080
1100
0E00
0000
0000
ENDCHAR
STARTCHAR U+00D5
ENCODING 213
SWIDTH 500 0
DWIDTH 8 0
BBX 13 16 -2 -2
BITMAP 
0190
0260
0000
0000
0380
0440
0840
0840
0840
1080
1080
1080
1100
0E00
0000
0000
ENDCHAR
STARTCHAR U+00D6
ENCODING 214
SWIDTH 500 0
DWIDTH 8 0
BBX 13 16 -2 -2
BITMAP 
0120
0120
0000
0000
0380
0440
0840
0840
0840
1080
1080
1080
1100
0E00
0000
0000
ENDCHAR
STARTCHAR U+00D7
ENCODING 215
SWIDTH 500 0
DWIDTH 8 0
BBX 13 16 -2 -2
BITMAP 
0000
0000
0000
0000
0000
0000
0820
0440
0380
0200
0500
1880
2080
0000
0000
0000
ENDCHAR
STARTCHAR U+00D8
ENCODING 216
SWIDTH 500 0
DWIDTH 8 0
BBX 13 16 -2 -2
BITMAP 
0000
0000
0000
0020
03A0
04C0
08C0
0940
0A40
1280
1480
1880
0900
2600
2000
0000
ENDCHAR
STARTCHAR U+00D9
ENCODING 217
SWIDTH 500 0
DWIDTH 8 0
BBX 13 16 -2 -2
BITMAP 
0180
0060
0000
0000
0420
0420
0840
0840
0840
1080
1080
1080
1100
0E00
0000
0000
ENDCHAR
STARTCHAR U+00DA
ENCODING 218
SWIDTH 500 0
DWIDTH 8 0
BBX 13 16 -2 -2
BITMAP 
0060
0180
0000
0000
0420
0420
0840
0840
0840
1080
1080
1080
1100
0E00
0000
0000
ENDCHAR
STARTCHAR U+00DB
ENCODING 219
SWIDTH 500 0
DWIDTH 8 0
BBX 13 16 -2 -2
BITMAP 
00C0
0120
0000
0000
0420
0420
0840
0840
0840
1080
1080
1080
1100
0E00
0000
0000
ENDCHAR
STARTCHAR U+00DC
ENCODING 220
SWIDTH 500 0
DWIDTH 8 0
BBX 13 16 -2 -2
BITMAP 
0120
0120
0000
0000
0420
0420
0840
0840
0840
1080
1080
1080
1100
0E00
0000
0000
ENDCHAR
STARTCHAR U+00DD
ENCODING 221
SWIDTH 500 0
DWIDTH 8 0
BBX 13 16 -2 -2
BITMAP 
0060
0180
0000
0000
0410
0420
0420
0440
0380
0200
0200
0200
0400
0400
0000
0000
ENDCHAR
STARTCHAR U+00DE
ENCODING 222
SWIDTH 500 0
DWIDTH 8 0
BBX 13 16 -2 -2
BITMAP 
0000
0000
0000
0400
0400
0700
0880
0840
0880
1100
1E00
1000
2000
2000
0000
0000
ENDCHAR
STARTCHAR U+00DF
ENCODING 223
SWIDTH 500 0
DWIDTH 8 0
BBX 13 16 -2 -2
BITMAP 
0000
0000
0000
0000
0300
0480
0880
0880
0B80
1080
1080
1080
2900
2E00
0000
0000
ENDCHAR
STARTCHAR U+00E0
ENCODING 224
SWIDTH 500 0
DWIDTH 8 0
BBX 13 16 -2 -2
BITMAP 
0000
0000
0180
0040
0000
0000
0780
0840
0040
0F80
1080
1080
1300
0D00
0000
0000
ENDCHAR
STARTCHAR U+00E1
ENCODING 225
SWIDTH 500 0
DWIDTH 8 0
BBX 13 16 -2 -2
BITMAP 
0000
0000
00E0
0300
0000
0000
0780
0840
0040
0F80
1080
1080
1300
0D00
0000
0000
ENDCHAR
STARTCHAR U+00E2
ENCODING 226
SWIDTH 500 0
DWIDTH 8 0
BBX 13 16 -2 -2
BITMAP 
0000
0000
0180
0240
0000
0000
0780
0840
0040
0F80
1080
1080
1300
0D00
0000
0000
ENDCHAR
STARTCHAR U+00E3
ENCODING 227
SWIDTH 500 0
DWIDTH 8 0
BBX 13 16 -2 -2
BITMAP 
0000
0000
0390
0440
0000
0000
0780
0840
0040
0F80
1080
1080
1300
0D00
0000
0000
ENDCHAR
STARTCHAR U+00E4
ENCODING 228
SWIDTH 500 0
DWIDTH 8 0
BBX 13 16 -2 -2
BITMAP 
0000
0000
0120
0240
0000
0000
0780
0840
0040
0F80
1080
1080
1300
0D00
0000
0000
ENDCHAR
STARTCHAR U+00E5
ENCODING 229
SWIDTH 500 0
DWIDTH 8 0
BBX 13 16 -2 -2
BITMAP 
0000
00C0
0160
0080
0000
0000
0780
0840
0040
0F80
1080
1080
1300
0D00
0000
0000
ENDCHAR
STARTCHAR U+00E6
ENCODING 230
SWIDTH 500 0
DWIDTH 8 0
BBX 13 16 -2 -2
BITMAP 
0000
0000
0000
0000
0000
0000
07C0
0920
0120
0FC0
1200
1200
1480
0F00
0000
0000
ENDCHAR
STARTCHAR U+00E7
ENCODING 231
SWIDTH 500 0
DWIDTH 8 0
BBX 13 16 -2 -2
BITMAP 
0000
0000
0000
0000
0000
0000
0780
0840
0800
1000
1000
1000
1100
0E00
0C00
3000
ENDCHAR
STARTCHAR U+00E8
ENCODING 232
SWIDTH 500 0
DWIDTH 8 0
BBX 13 16 -2 -2
BITMAP 
0000
0000
0180
0040
0000
0000
0780
0840
0840
1F80
1000
1000
1100
0E00
0000
0000
ENDCHAR
STARTCHAR U+00E9
ENCODING 233
SWIDTH 500 0
DWIDTH 8 0
BBX 13 16 -2 -2
BITMAP 
0000
0000
00E0
0300
0000
0000
0780
0840
0840
1F80
1000
1000
1100
0E00
0000
0000
ENDCHAR
STARTCHAR U+00EA
ENCODING 234
SWIDTH 500 0
DWIDTH 8 0
BBX 13 16 -2 -2
BITMAP 
0000
0000
0180
0240
0000
0000
0780
0840
0840
1F80
1000
1000
1100
0E00
0000
0000
ENDCHAR
STARTCHAR U+00EB
ENCODING 235
SWIDTH 500 0
DWIDTH 8 0
BBX 13 16 -2 -2
BITMAP 
0000
0000
0120
0240
0000
0000
0780
0840
0840
1F80
1000
1000
1100
0E00
0000
0000
ENDCHAR
STARTCHAR U+00EC
ENCODING 236
SWIDTH 500 0
DWIDTH 8 0
BBX 13 16 -2 -2
BITMAP 
0000
0000
0180
0040
0000
0000
0300
0100
0100
0200
0200
0200
0400
1F00
0000
0000
ENDCHAR
STARTCHAR U+00ED
ENCODING 237
SWIDTH 500 0
DWIDTH 8 0
BBX 13 16 -2 -2
BITMAP 
0000
0000
00E0
0300
0000
0000
0300
0100
0100
0200
0200
0200
0400
1F00
0000
0000
ENDCHAR
STARTCHAR U+00EE
ENCODING 238
SWIDTH 500 0
DWIDTH 8 0
BBX 13 16 -2 -2
BITMAP 
0000
0000
0180
0240
0000
0000
0300
0100
0100
0200
0200
0200
0400
1F00
0000
0000
ENDCHAR
STARTCHAR U+00EF
ENCODING 239
SWIDTH 500 0
DWIDTH 8 0
BBX 13 16 -2 -2
BITMAP 
0000
0000
0120
0240
0000
0000
0300
0100
0100
0200
0200
0200
0400
1F00
0000
0000
ENDCHAR
STARTCHAR U+00F0
ENCODING 240
SWIDTH 500 0
DWIDTH 8 0
BBX 13 16 -2 -2
BITMAP 
0000
0000
0130
00C0
0140
0240
0040
07C0
0840
1080
1080
1080
1100
0E00
0000
0000
ENDCHAR
STARTCHAR U+00F1
ENCODING 241
SWIDTH 500 0
DWIDTH 8 0
BBX 13 16 -2 -2
BITMAP 
0000
0000
0390
0440
0000
0000
0B80
0C40
0840
1080
1080
1080
2100
2100
0000
0000
ENDCHAR
STARTCHAR U+00F2
ENCODING 242
SWIDTH 500 0
DWIDTH 8 0
BBX 13 16 -2 -2
BITMAP 
0000
0000
0180
0040
0000
0000
0780
0840
0840
1080
1080
1080
1100
0E00
0000
0000
ENDCHAR
STARTCHAR U+00F3
ENCODING 243
SWIDTH 500 0
DWIDTH 8 0
BBX 13 16 -2 -2
BITMAP 
0000
0000
00E0
0300
0000
0000
0780
0840
0840
1080
1080
1080
1100
0E00
0000
0000
ENDCHAR
STARTCHAR U+00F4
ENCODING 244
SWIDTH 500 0
DWIDTH 8 0
BBX 13 16 -2 -2
BITMAP 
0000
0000
0180
0240
0000
0000
0780
0840
0840
1080
1080
1080
1100
0E00
0000
0000
ENDCHAR
STARTCHAR U+00F5
ENCODING 245
SWIDTH 500 0
DWIDTH 8 0
BBX 13 16 -2 -2
BITMAP 
0000
0000
0390
0440
0000
0000
0780
0840
0840
1080
1080
1080
1100
0E00
0000
0000
ENDCHAR
STARTCHAR U+00F6
ENCODING 246
SWIDTH 500 0
DWIDTH 8 0
BBX 13 16 -2 -2
BITMAP 
0000
0000
0120
0240
0000
0000
0780
0840
0840
1080
1080
1080
1100
0E00
0000
0000
ENDCHAR
STARTCHAR U+00F7
ENCODING 247
SWIDTH 500 0
DWIDTH 8 0
BBX 13 16 -2 -2
BITMAP 
0000
0000
0000
0000
0000
0000
0300
0000
0000
1F80
0000
0000
0C00
0000
0000
0000
ENDCHAR
STARTCHAR U+00F8
ENCODING 248
SWIDTH 500 0
DWIDTH 8 0
BBX 13 16 -2 -2
BITMAP 
0000
0000
0000
0000
0000
0060
0780
08C0
0940
1280
1480
1880
3100
1E00
2000
0000
ENDCHAR
STARTCHAR U+00F9
ENCODING 249
SWIDTH 500 0
DWIDTH 8 0
BBX 13 16 -2 -2
BITMAP 
0000
0000
0180
0040
0000
0000
0840
0840
0840
1080
1080
1080
1300
0D00
0000
0000
ENDCHAR
STARTCHAR U+00FA
ENCODING 250
SWIDTH 500 0
DWIDTH 8 0
BBX 13 16 -2 -2
BITMAP 
0000
0000
00E0
0300
0000
0000
0840
0840
0840
1080
1080
1080
1300
0D00
0000
0000
ENDCHAR
STARTCHAR U+00FB
ENCODING 251
SWIDTH 500 0
DWIDTH 8 0
BBX 13 16 -2 -2
BITMAP 
0000
0000
0180
0240
0000
0000
0840
0840
0840
1080
1080
1080
1300
0D00
0000
0000
ENDCHAR
STARTCHAR U+00FC
ENCODING 252
SWIDTH 500 0
DWIDTH 8 0
BBX 13 16 -2 -2
BITMAP 
0000
0000
0120
0240
0000
0000
0840
0840
0840
1080
1080
1080
1300
0D00
0000
0000
ENDCHAR
STARTCHAR U+00FD
ENCODING 253
SWIDTH 500 0
DWIDTH 8 0
BBX 13 16 -2 -2
BITMAP 
0000
0000
00E0
0300
0000
0000
0840
0840
0840
1080
1080
0B80
0500
0100
0200
3C00
ENDCHAR
STARTCHAR U+00FE
ENCODING 254
SWIDTH 500 0
DWIDTH 8 0
BBX 13 16 -2 -2
BITMAP 
0000
0000
0000
0000
0200
0200
0780
0440
0440
0880
0900
0E00
1800
1000
1000
2000
ENDCHAR
STARTCHAR U+00FF
ENCODING 255
SWIDTH 500 0
DWIDTH 8 0
BBX 13 16 -2 -2
BITMAP 
0000
0000
0120
0240
0000
0000
0840
0840
0840
1080
1080
0B80
0500
0100
0200
3C00
ENDCHAR
STARTCHAR U+0100
ENCODING 256
SWIDTH 500 0
DWIDTH 8 0
BBX 13 16 -2 -2
BITMAP 
0000
01E0
0000
0000
0100
0280
0480
0840
0840
1F80
1080
1080
2100
2100
0000
0000
ENDCHAR
STARTCHAR U+0101
ENCODING 257
SWIDTH 500 0
DWIDTH 8 0
BBX 13 16 -2 -2
BITMAP 
0000
0000
0000
03C0
0000
0000
0780
0840
0040
0F80
1080
1080
1300
0D00
0000
0000
ENDCHAR
STARTCHAR U+0102
ENCODING 258
SWIDTH 500 0
DWIDTH 8 0
BBX 13 16 -2 -2
BITMAP 
0210
0210
01E0
0000
0100
0280
0480
0840
0840
1F80
1080
1080
2100
2100
0000
0000
ENDCHAR
STARTCHAR U+0103
ENCODING 259
SWIDTH 500 0
DWIDTH 8 0
BBX 13 16 -2 -2
BITMAP 
0000
0210
0220
01C0
0000
0000
0780
0840
0040
0F80
1080
1080
1300
0D00
0000
0000
ENDCHAR
STARTCHAR U+0104
ENCODING 260
SWIDTH 500 0
DWIDTH 8 0
BBX 13 16 -2 -2
BITMAP 
0000
0000
0000
0000
0100
0280
0480
0840
0840
1F80
1080
1080
2100
2100
0200
0100
ENDCHAR
STARTCHAR U+0105
ENCODING 261
SWIDTH 500 0
DWIDTH 8 0
BBX 13 16 -2 -2
BITMAP 
0000
0000
0000
0000
0000
0000
0780
0840
0040
0F80
1080
1080
1300
0D00
0200
0100
ENDCHAR
STARTCHAR U+0106
ENCODING 262
SWIDTH 500 0
DWIDTH 8 0
BBX 13 16 -2 -2
BITMAP 
0060
0180
0000
0000
0380
0440
0840
0800
0800
1000
1000
1080
1100
0E00
0000
0000
ENDCHAR
STARTCHAR U+0107
ENCODING 263
SWIDTH 500 0
DWIDTH 8 0
BBX 13 16 -2 -2
BITMAP 
0000
0000
00E0
0300
0000
0000
0780
0840
0800
1000
1000
1000
1100
0E00
0000
0000
ENDCHAR
STARTCHAR U+0108
ENCODING 264
SWIDTH 500 0
DWIDTH 8 0
BBX 13 16 -2 -2
BITMAP 
00C0
0120
0000
0000
0380
0440
0840
0800
0800
1000
1000
1080
1100
0E00
0000
0000
ENDCHAR
STARTCHAR U+0109
ENCODING 265
SWIDTH 500 0
DWIDTH 8 0
BBX 13 16 -2 -2
BITMAP 
0000
0000
0180
0240
0000
0000
0780
0840
0800
1000
1000
1000
1100
0E00
0000
0000
ENDCHAR
STARTCHAR U+010A
ENCODING 266
SWIDTH 500 0
DWIDTH 8 0
BBX 13 16 -2 -2
BITMAP 
0080
0080
0000
0000
0380
0440
0840
0800
0800
1000
1000
1080
1100
0E00
0000
0000
ENDCHAR
STARTCHAR U+010B
ENCODING 267
SWIDTH 500 0
DWIDTH 8 0
BBX 13 16 -2 -2
BITMAP 
0000
0000
0080
0100
0000
0000
0780
0840
0800
1000
1000
1000
1100
0E00
0000
0000
ENDCHAR
STARTCHAR U+010C
ENCODING 268
SWIDTH 500 0
DWIDTH 8 0
BBX 13 16 -2 -2
BITMAP 
0120
00C0
0000
0000
0380
0440
0840
0800
0800
1000
1000
1080
1100
0E00
0000
0000
ENDCHAR
STARTCHAR U+010D
ENCODING 269
SWIDTH 500 0
DWIDTH 8 0
BBX 13 16 -2 -2
BITMAP 
0000
0000
0160
0080
0000
0000
0780
0840
0800
1000
1000
1000
1100
0E00
0000
0000
ENDCHAR
STARTCHAR U+010E
ENCODING 270
SWIDTH 500 0
DWIDTH 8 0
BBX 13 16 -2 -2
BITMAP 
0240
0180
0000
0000
0780
0440
0840
0840
0840
1080
1080
1100
2200
3C00
0000
0000
ENDCHAR
STARTCHAR U+010F
ENCODING 271
SWIDTH 500 0
DWIDTH 8 0
BBX 13 16 -2 -2
BITMAP 
0000
0000
0018
0090
0090
00A0
0700
0900
0900
1200
1200
1200
1C00
1400
0000
0000
ENDCHAR
STARTCHAR U+0110
ENCODING 272
SWIDTH 500 0
DWIDTH 8 0
BBX 13 16 -2 -2
BITMAP 
0000
0000
0000
0000
0780
0440
0840
0840
1E40
1080
1080
1100
2200
3C00
0000
0000
ENDCHAR
STARTCHAR U+0111
ENCODING 273
SWIDTH 500 0
DWIDTH 8 0
BBX 13 16 -2 -2
BITMAP 
0000
0000
0010
00F0
0020
0020
0740
08C0
0840
1080
1080
1080
1300
0D00
0000
0000
ENDCHAR
STARTCHAR U+0112
ENCODING 274
SWIDTH 500 0
DWIDTH 8 0
BBX 13 16 -2 -2
BITMAP 
0000
01E0
0000
0000
07E0
0400
0800
0800
0F80
1000
1000
1000
2000
3F00
0000
0000
ENDCHAR
STARTCHAR U+0113
ENCODING 275
SWIDTH 500 0
DWIDTH 8 0
BBX 13 16 -2 -2
BITMAP 
0000
0000
0000
03C0
0000
0000
0780
0840
0840
1F80
1000
1000
1100
0E00
0000
0000
ENDCHAR
STARTCHAR U+0114
ENCODING 276
SWIDTH 500 0
DWIDTH 8 0
BBX 13 16 -2 -2
BITMAP 
0210
0210
01E0
0000
07E0
0400
0800
0800
0F80
1000
1000
1000
2000
3F00
0000
0000
ENDCHAR
STARTCHAR U+0115
ENCODING 277
SWIDTH 500 0
DWIDTH 8 0
BBX 13 16 -2 -2
BITMAP 
0000
0000
0210
0220
01C0
0000
0780
0840
0840
1F80
1000
1000
1100
0E00
0000
0000
ENDCHAR
STARTCHAR U+0116
ENCODING 278
SWIDTH 500 0
DWIDTH 8 0
BBX 13 16 -2 -2
BITMAP 
0080
0080
0000
0000
07E0
0400
0800
0800
0F80
1000
1000
1000
2000
3F00
0000
0000
ENDCHAR
STARTCHAR U+0117
ENCODING 279
SWIDTH 500 0
DWIDTH 8 0
BBX 13 16 -2 -2
BITMAP 
0000
0000
0080
0100
0000
0000
0780
0840
0840
1F80
1000
1000
1100
0E00
0000
0000
ENDCHAR
STARTCHAR U+0118
ENCODING 280
SWIDTH 500 0
DWIDTH 8 0
BBX 13 16 -2 -2
BITMAP 
0000
0000
0000
0000
07E0
0400
0800
0800
0F80
1000
1000
1000
2000
3F00
0400
0200
ENDCHAR
STARTCHAR U+0119
ENCODING 281
SWIDTH 500 0
DWIDTH 8 0
BBX 13 16 -2 -2
BITMAP 
0000
0000
0000
0000
0000
0000
0780
0840
0840
1F80
1000
1000
1100
0E00
0800
0400
ENDCHAR
STARTCHAR U+011A
ENCODING 282
SWIDTH 500 0
DWIDTH 8 0
BBX 13 16 -2 -2
BITMAP 
0120
00C0
0000
0000
07E0
0400
0800
0800
0F80
1000
1000
1000
2000
3F00
0000
0000
ENDCHAR
STARTCHAR U+011B
ENCODING 283
SWIDTH 500 0
DWIDTH 8 0
BBX 13 16 -2 -2
BITMAP 
0000
0000
0160
0080
0000
0000
0780
0840
0840
1F80
1000
1000
1100
0E00
0000
0000
ENDCHAR
STARTCHAR U+011C
ENCODING 284
SWIDTH 500 0
DWIDTH 8 0
BBX 13 16 -2 -2
BITMAP 
00C0
0120
0000
0000
0380
0440
0840
0800
0800
1380
1080
1080
1300
0D00
0000
0000
ENDCHAR
STARTCHAR U+011D
ENCODING 285
SWIDTH 500 0
DWIDTH 8 0
BBX 13 16 -2 -2
BITMAP 
0000
0000
0180
0240
0000
0040
0740
0880
0880
0900
0E00
1000
1E00
2100
2200
1C00
ENDCHAR
STARTCHAR U+011E
ENCODING 286
SWIDTH 500 0
DWIDTH 8 0
BBX 13 16 -2 -2
BITMAP 
0210
0210
01E0
0000
0380
0440
0840
0800
0800
1380
1080
1080
1300
0D00
0000
0000
ENDCHAR
STARTCHAR U+011F
ENCODING 287
SWIDTH 500 0
DWIDTH 8 0
BBX 13 16 -2 -2
BITMAP 
0000
0210
0220
01C0
0000
0040
0740
0880
0880
0900
0E00
1000
1E00
2100
2200
1C00
ENDCHAR
STARTCHAR U+0120
ENCODING 288
SWIDTH 500 0
DWIDTH 8 0
BBX 13 16 -2 -2
BITMAP 
0080
0080
0000
0000
0380
0440
0840
0800
0800
1380
1080
1080
1300
0D00
0000
0000
ENDCHAR
STARTCHAR U+0121
ENCODING 289
SWIDTH 500 0
DWIDTH 8 0
BBX 13 16 -2 -2
BITMAP 
0000
0000
0080
0100
0000
0040
0740
0880
0880
0900
0E00
1000
1E00
2100
2200
1C00
ENDCHAR
STARTCHAR U+0122
ENCODING 290
SWIDTH 500 0
DWIDTH 8 0
BBX 13 16 -2 -2
BITMAP 
0000
0000
0000
0000
0380
0440
0840
0800
0800
1380
1080
1080
1300
0D00
0C00
3000
ENDCHAR
STARTCHAR U+0123
ENCODING 291
SWIDTH 500 0
DWIDTH 8 0
BBX 13 16 -2 -2
BITMAP 
0000
0000
00E0
0100
0000
0040
0740
0880
0880
0900
0E00
1000
1E00
2100
2200
1C00
ENDCHAR
STARTCHAR U+0124
ENCODING 292
SWIDTH 500 0
DWIDTH 8 0
BBX 13 16 -2 -2
BITMAP 
00C0
0120
0000
0000
0420
0420
0840
0840
0FC0
1080
1080
1080
2100
2100
0000
0000
ENDCHAR
STARTCHAR U+0125
ENCODING 293
SWIDTH 500 0
DWIDTH 8 0
BBX 13 16 -2 -2
BITMAP 
0180
0240
0000
0400
0400
0400
0B80
0C40
0840
1080
1080
1080
2100
2100
0000
0000
ENDCHAR
STARTCHAR U+0126
ENCODING 294
SWIDTH 500 0
DWIDTH 8 0
BBX 13 16 -2 -2
BITMAP 
0000
0000
0000
0000
0420
0420
1FE0
0840
0840
1F80
1080
1080
2100
2100
0000
0000
ENDCHAR
STARTCHAR U+0127
ENCODING 295
SWIDTH 500 0
DWIDTH 8 0
BBX 13 16 -2 -2
BITMAP 
0000
0000
0200
0400
0F00
0400
0B80
0C40
0840
1080
1080
1080
2100
0000
0000
0000
ENDCHAR
STARTCHAR U+0128
ENCODING 296
SWIDTH 500 0
DWIDTH 8 0
BBX 13 16 -2 -2
BITMAP 
0190
0260
0000
0000
03E0
0080
0100
0100
0100
0200
0200
0200
0400
1F00
0000
0000
ENDCHAR
STARTCHAR U+0129
ENCODING 297
SWIDTH 500 0
DWIDTH 8 0
BBX 13 16 -2 -2
BITMAP 
0000
0000
0390
0440
0000
0000
0300
0100
0100
0200
0200
0200
0400
1F00
0000
0000
ENDCHAR
STARTCHAR U+012A
ENCODING 298
SWIDTH 500 0
DWIDTH 8 0
BBX 13 16 -2 -2
BITMAP 
0000
01E0
0000
0000
03E0
0080
0100
0100
0100
0200
0200
0200
0400
1F00
0000
0000
ENDCHAR
STARTCHAR U+012B
ENCODING 299
SWIDTH 500 0
DWIDTH 8 0
BBX 13 16 -2 -2
BITMAP 
0000
0000
0000
03C0
0000
0000
0300
0100
0100
0200
0200
0200
0400
1F00
0000
0000
ENDCHAR
STARTCHAR U+012C
ENCODING 300
SWIDTH 500 0
DWIDTH 8 0
BBX 13 16 -2 -2
BITMAP 
0210
0210
01E0
0000
03E0
0080
0100
0100
0100
0200
0200
0200
0400
1F00
0000
0000
ENDCHAR
STARTCHAR U+012D
ENCODING 301
SWIDTH 500 0
DWIDTH 8 0
BBX 13 16 -2 -2
BITMAP 
0000
0000
0210
0220
01C0
0000
0300
0100
0100
0200
0200
0200
0400
1F00
0000
0000
ENDCHAR
STARTCHAR U+012E
ENCODING 302
SWIDTH 500 0
DWIDTH 8 0
BBX 13 16 -2 -2
BITMAP 
0000
0000
0000
0000
03E0
0080
0100
0100
0100
0200
0200
0200
0400
1F00
0400
0200
ENDCHAR
STARTCHAR U+012F
ENCODING 303
SWIDTH 500 0
DWIDTH 8 0
BBX 13 16 -2 -2
BITMAP 
0000
0000
0000
0080
0080
0000
0300
0100
0100
0200
0200
0200
0400
1F00
0400
0200
ENDCHAR
STARTCHAR U+0130
ENCODING 304
SWIDTH 500 0
DWIDTH 8 0
BBX 13 16 -2 -2
BITMAP 
0040
0040
0000
0000
03E0
0080
0100
0100
0100
0200
0200
0200
0400
1F00
0000
0000
ENDCHAR
STARTCHAR U+0131
ENCODING 305
SWIDTH 500 0
DWIDTH 8 0
BBX 13 16 -2 -2
BITMAP 
0000
0000
0000
0000
0000
0000
0300
0100
0100
0200
0200
0200
0400
1F00
0000
0000
ENDCHAR
STARTCHAR U+0132
ENCODING 306
SWIDTH 500 0
DWIDTH 8 0
BBX 13 16 -2 -2
BITMAP 
0000
0000
0000
0000
0E70
0420
0840
0840
0840
1080
1080
1480
2500
7200
0000
0000
ENDCHAR
STARTCHAR U+0133
ENCODING 307
SWIDTH 500 0
DWIDTH 8 0
BBX 13 16 -2 -2
BITMAP 
0000
0000
0000
0220
0220
0000
0CC0
0440
0440
0880
0880
0880
1100
3900
0200
0C00
ENDCHAR
STARTCHAR U+0134
ENCODING 308
SWIDTH 500 0
DWIDTH 8 0
BBX 13 16 -2 -2
BITMAP 
0060
0090
0000
0000
01F0
0040
0080
0080
0080
0100
0100
1100
1200
0C00
0000
0000
ENDCHAR
STARTCHAR U+0135
ENCODING 309
SWIDTH 500 0
DWIDTH 8 0
BBX 13 16 -2 -2
BITMAP 
0000
0000
00C0
0120
0000
0000
0180
0080
0080
0100
0100
0100
0200
0200
2C00
3000
ENDCHAR
STARTCHAR U+0136
ENCODING 310
SWIDTH 500 0
DWIDTH 8 0
BBX 13 16 -2 -2
BITMAP 
0000
0000
0000
0000
0420
04C0
0900
0A00
0C00
1800
1400
1200
2200
2100
3000
C000
ENDCHAR
STARTCHAR U+0137
ENCODING 311
SWIDTH 500 0
DWIDTH 8 0
BBX 13 16 -2 -2
BITMAP 
0000
0000
0000
0000
0400
0400
0880
0900
0E00
1800
1400
1200
2200
2100
3000
C000
ENDCHAR
STARTCHAR U+0138
ENCODING 312
SWIDTH 500 0
DWIDTH 8 0
BBX 13 16 -2 -2
BITMAP 
0000
0000
0000
0000
0000
0000
0840
0880
0B00
1C00
1C00
1200
2200
2100
0000
0000
ENDCHAR
STARTCHAR U+0139
ENCODING 313
SWIDTH 500 0
DWIDTH 8 0
BBX 13 16 -2 -2
BITMAP 
00C0
0300
0000
0000
0400
0400
0800
0800
0800
1000
1000
1000
2000
3F00
0000
0000
ENDCHAR
STARTCHAR U+013A
ENCODING 314
SWIDTH 500 0
DWIDTH 8 0
BBX 13 16 -2 -2
BITMAP 
0060
0180
0000
0000
0180
0080
0100
0100
0100
0200
0200
0200
0400
1F00
0000
0000
ENDCHAR
STARTCHAR U+013B
ENCODING 315
SWIDTH 500 0
DWIDTH 8 0
BBX 13 16 -2 -2
BITMAP 
0000
0000
0000
0000
0400
0400
0800
0800
0800
1000
1000
1000
2000
3F00
0C00
3000
ENDCHAR
STARTCHAR U+013C
ENCODING 316
SWIDTH 500 0
DWIDTH 8 0
BBX 13 16 -2 -2
BITMAP 
0000
0000
0000
0000
0180
0080
0100
0100
0100
0200
0200
0200
0400
1F00
0C00
3000
ENDCHAR
STARTCHAR U+013D
ENCODING 317
SWIDTH 500 0
DWIDTH 8 0
BBX 13 16 -2 -2
BITMAP 
0000
0000
0000
0180
0480
0500
0A00
0800
0800
1000
1000
1000
2000
3F00
0000
0000
ENDCHAR
STARTCHAR U+013E
ENCODING 318
SWIDTH 500 0
DWIDTH 8 0
BBX 13 16 -2 -2
BITMAP 
0000
0000
0000
0060
0320
0140
0280
0200
0200
0400
0400
0400
0800
3E00
0000
0000
ENDCHAR
STARTCHAR U+013F
ENCODING 319
SWIDTH 500 0
DWIDTH 8 0
BBX 13 16 -2 -2
BITMAP 
0000
0000
0000
0000
0400
0400
0800
0800
0880
1100
1000
1000
2000
3F00
0000
0000
ENDCHAR
STARTCHAR U+0140
ENCODING 320
SWIDTH 500 0
DWIDTH 8 0
BBX 13 16 -2 -2
BITMAP 
0000
0000
0000
0000
0300
0100
0200
0200
0280
0500
0400
0400
0800
3E00
0000
0000
ENDCHAR
STARTCHAR U+0141
ENCODING 321
SWIDTH 500 0
DWIDTH 8 0
BBX 13 16 -2 -2
BITMAP 
0000
0000
0000
0000
0400
0400
0900
0A00
0C00
3000
1000
1000
2000
3F00
0000
0000
ENDCHAR
STARTCHAR U+0142
ENCODING 322
SWIDTH 500 0
DWIDTH 8 0
BBX 13 16 -2 -2
BITMAP 
0000
0000
0000
0000
0180
0080
0140
0180
0700
0A00
0200
0200
0400
1F00
0000
0000
ENDCHAR
STARTCHAR U+0143
ENCODING 323
SWIDTH 500 0
DWIDTH 8 0
BBX 13 16 -2 -2
BITMAP 
0060
0180
0000
0000
0420
0620
0C40
0A40
0A40
1280
1280
1380
2300
2100
0000
0000
ENDCHAR
STARTCHAR U+0144
ENCODING 324
SWIDTH 500 0
DWIDTH 8 0
BBX 13 16 -2 -2
BITMAP 
0000
0000
00E0
0300
0000
0000
0B80
0C40
0840
1080
1080
1080
2100
2100
0000
0000
ENDCHAR
STARTCHAR U+0145
ENCODING 325
SWIDTH 500 0
DWIDTH 8 0
BBX 13 16 -2 -2
BITMAP 
0000
0000
0000
0000
0420
0620
0C40
0A40
0A40
1280
1280
1380
2300
2100
3000
C000
ENDCHAR
STARTCHAR U+0146
ENCODING 326
SWIDTH 500 0
DWIDTH 8 0
BBX 13 16 -2 -2
BITMAP 
0000
0000
0000
0000
0000
0000
0B80
0C40
0840
1080
1080
1080
2100
2100
3000
C000
ENDCHAR
STARTCHAR U+0147
ENCODING 327
SWIDTH 500 0
DWIDTH 8 0
BBX 13 16 -2 -2
BITMAP 
0120
00C0
0000
0000
0420
0620
0C40
0A40
0A40
1280
1280
1380
2300
2100
0000
0000
ENDCHAR
STARTCHAR U+0148
ENCODING 328
SWIDTH 500 0
DWIDTH 8 0
BBX 13 16 -2 -2
BITMAP 
0000
0000
0160
0080
0000
0000
0B80
0C40
0840
1080
1080
1080
2100
2100
0000
0000
ENDCHAR
STARTCHAR U+0149
ENCODING 329
SWIDTH 500 0
DWIDTH 8 0
BBX 13 16 -2 -2
BITMAP 
0000
0300
0100
0200
0400
0000
0B80
0C40
0840
1080
1080
1080
2100
2100
0000
0000
ENDCHAR
STARTCHAR U+014A
ENCODING 330
SWIDTH 500 0
DWIDTH 8 0
BBX 13 16 -2 -2
BITMAP 
0000
0000
0000
0000
0580
0640
0840
0840
0840
1080
1080
1080
2100
2600
0000
0000
ENDCHAR
STARTCHAR U+014B
ENCODING 331
SWIDTH 500 0
DWIDTH 8 0
BBX 13 16 -2 -2
BITMAP 
0000
0000
0000
0000
0000
0000
0B80
0C40
0840
1080
1080
1080
2100
2100
0200
0C00
ENDCHAR
STARTCHAR U+014C
ENCODING 332
SWIDTH 500 0
DWIDTH 8 0
BBX 13 16 -2 -2
BITMAP 
0000
01E0
0000
0000
0380
0440
0840
0840
0840
1080
1080
1080
1100
0E00
0000
0000
ENDCHAR
STARTCHAR U+014D
ENCODING 333
SWIDTH 500 0
DWIDTH 8 0
BBX 13 16 -2 -2
BITMAP 
0000
0000
0000
03C0
0000
0000
0780
0840
0840
1080
1080
1080
1100
0E00
0000
0000
ENDCHAR
STARTCHAR U+014E
ENCODING 334
SWIDTH 500 0
DWIDTH 8 0
BBX 13 16 -2 -2
BITMAP 
0210
0210
01E0
0000
0380
0440
0840
0840
0840
1080
1080
1080
1100
0E00
0000
0000
ENDCHAR
STARTCHAR U+014F
ENCODING 335
SWIDTH 500 0
DWIDTH 8 0
BBX 13 16 -2 -2
BITMAP 
0000
0000
0210
0220
01C0
0000
0780
0840
0840
1080
1080
1080
1100
0E00
0000
0000
ENDCHAR
STARTCHAR U+0150
ENCODING 336
SWIDTH 500 0
DWIDTH 8 0
BBX 13 16 -2 -2
BITMAP 
0198
0220
0000
0000
0380
0440
0840
0840
0840
1080
1080
1080
1100
0E00
0000
0000
ENDCHAR
STARTCHAR U+0151
ENCODING 337
SWIDTH 500 0
DWIDTH 8 0
BBX 13 16 -2 -2
BITMAP 
0000
0000
0398
0440
0000
0000
0780
0840
0840
1080
1080
1080
1100
0E00
0000
0000
ENDCHAR
STARTCHAR U+0152
ENCODING 338
SWIDTH 500 0
DWIDTH 8 0
BBX 13 16 -2 -2
BITMAP 
0000
0000
0000
0000
0270
0500
0900
0900
09C0
1200
1200
1200
1200
0B80
0000
0000
ENDCHAR
STARTCHAR U+0153
ENCODING 339
SWIDTH 500 0
DWIDTH 8 0
BBX 13 16 -2 -2
BITMAP 
0000
0000
0000
0000
0000
0000
06C0
0920
0920
13C0
1200
1200
1280
0B00
0000
0000
ENDCHAR
STARTCHAR U+0154
ENCODING 340
SWIDTH 500 0
DWIDTH 8 0
BBX 13 16 -2 -2
BITMAP 
0060
0180
0000
0000
0780
0440
0840
0840
0F80
1200
1100
1100
2100
2100
0000
0000
ENDCHAR
STARTCHAR U+0155
ENCODING 341
SWIDTH 500 0
DWIDTH 8 0
BBX 13 16 -2 -2
BITMAP 
0000
0000
00E0
0300
0000
0000
0B80
0C40
0840
1000
1000
1000
2000
2000
0000
0000
ENDCHAR
STARTCHAR U+0156
ENCODING 342
SWIDTH 500 0
DWIDTH 8 0
BBX 13 16 -2 -2
BITMAP 
0000
0000
0000
0000
0780
0440
0840
0840
0F80
1200
1100
1100
2100
2100
3000
C000
ENDCHAR
STARTCHAR U+0157
ENCODING 343
SWIDTH 500 0
DWIDTH 8 0
BBX 13 16 -2 -2
BITMAP 
0000
0000
0000
0000
0000
0000
0B80
0C40
0840
1000
1000
1000
2000
2000
3000
C000
ENDCHAR
STARTCHAR U+0158
ENCODING 344
SWIDTH 500 0
DWIDTH 8 0
BBX 13 16 -2 -2
BITMAP 
0120
00C0
0000
0000
0780
0440
0840
0840
0F80
1200
1100
1100
2100
2100
0000
0000
ENDCHAR
STARTCHAR U+0159
ENCODING 345
SWIDTH 500 0
DWIDTH 8 0
BBX 13 16 -2 -2
BITMAP 
0000
0000
0160
0080
0000
0000
0B80
0C40
0840
1000
1000
1000
2000
2000
0000
0000
ENDCHAR
STARTCHAR U+015A
ENCODING 346
SWIDTH 500 0
DWIDTH 8 0
BBX 13 16 -2 -2
BITMAP 
0060
0180
0000
0000
0380
0440
0840
0800
0600
0100
0080
1080
1100
0E00
0000
0000
ENDCHAR
STARTCHAR U+015B
ENCODING 347
SWIDTH 500 0
DWIDTH 8 0
BBX 13 16 -2 -2
BITMAP 
0000
0000
00E0
0300
0000
0000
0780
0840
0800
0400
0200
1100
1100
0E00
0000
0000
ENDCHAR
STARTCHAR U+015C
ENCODING 348
SWIDTH 500 0
DWIDTH 8 0
BBX 13 16 -2 -2
BITMAP 
00C0
0120
0000
0000
0380
0440
0840
0800
0600
0100
0080
1080
1100
0E00
0000
0000
ENDCHAR
STARTCHAR U+015D
ENCODING 349
SWIDTH 500 0
DWIDTH 8 0
BBX 13 16 -2 -2
BITMAP 
0000
0000
0180
0240
0000
0000
0780
0840
0800
0400
0200
0100
2100
1E00
0000
0000
ENDCHAR
STARTCHAR U+015E
ENCODING 350
SWIDTH 500 0
DWIDTH 8 0
BBX 13 16 -2 -2
BITMAP 
0000
0000
0000
0000
0380
0440
0840
0800
0600
0100
0080
1080
1100
0E00
0C00
3000
ENDCHAR
STARTCHAR U+015F
ENCODING 351
SWIDTH 500 0
DWIDTH 8 0
BBX 13 16 -2 -2
BITMAP 
0000
0000
0000
0000
0000
0000
0780
0840
0800
0400
0200
0100
2100
1E00
0C00
3000
ENDCHAR
STARTCHAR U+0160
ENCODING 352
SWIDTH 500 0
DWIDTH 8 0
BBX 13 16 -2 -2
BITMAP 
0120
00C0
0000
0000
0380
0440
0840
0800
0600
0100
0080
1080
1100
0E00
0000
0000
ENDCHAR
STARTCHAR U+0161
ENCODING 353
SWIDTH 500 0
DWIDTH 8 0
BBX 13 16 -2 -2
BITMAP 
0000
0000
0160
0080
0000
0000
0780
0840
0800
0400
0200
0100
2100
1E00
0000
0000
ENDCHAR
STARTCHAR U+0162
ENCODING 354
SWIDTH 500 0
DWIDTH 8 0
BBX 13 16 -2 -2
BITMAP 
0000
0000
0000
0000
07F0
0080
0100
0100
0100
0200
0200
0200
0400
0400
0800
3000
ENDCHAR
STARTCHAR U+0163
ENCODING 355
SWIDTH 500 0
DWIDTH 8 0
BBX 13 16 -2 -2
BITMAP 
0000
0000
0000
0000
0100
0100
0F80
0200
0200
0400
0400
0400
0400
0600
0800
3000
ENDCHAR
STARTCHAR U+0164
ENCODING 356
SWIDTH 500 0
DWIDTH 8 0
BBX 13 16 -2 -2
BITMAP 
0120
00C0
0000
0000
07F0
0080
0100
0100
0100
0200
0200
0200
0400
0400
0000
0000
ENDCHAR
STARTCHAR U+0165
ENCODING 357
SWIDTH 500 0
DWIDTH 8 0
BBX 13 16 -2 -2
BITMAP 
0000
0000
0030
0020
0120
0140
0200
0F80
0200
0400
0400
0400
0400
0200
0000
0000
ENDCHAR
STARTCHAR U+0166
ENCODING 358
SWIDTH 500 0
DWIDTH 8 0
BBX 13 16 -2 -2
BITMAP 
0000
0000
0000
0000
07F0
0080
0100
0140
0180
0600
0A00
0200
0400
0400
0000
0000
ENDCHAR
STARTCHAR U+0167
ENCODING 359
SWIDTH 500 0
DWIDTH 8 0
BBX 13 16 -2 -2
BITMAP 
0000
0000
0000
0000
0100
0100
0F80
0200
0380
0600
0C00
1400
0400
0200
0000
0000
ENDCHAR
STARTCHAR U+0168
ENCODING 360
SWIDTH 500 0
DWIDTH 8 0
BBX 13 16 -2 -2
BITMAP 
0190
0260
0000
0000
0420
0420
0840
0840
0840
1080
1080
1080
1100
0E00
0000
0000
ENDCHAR
STARTCHAR U+0169
ENCODING 361
SWIDTH 500 0
DWIDTH 8 0
BBX 13 16 -2 -2
BITMAP 
0000
0000
0390
0440
0000
0000
0840
0840
0840
1080
1080
1080
1300
0D00
0000
0000
ENDCHAR
STARTCHAR U+016A
ENCODING 362
SWIDTH 500 0
DWIDTH 8 0
BBX 13 16 -2 -2
BITMAP 
0000
01E0
0000
0000
0420
0420
0840
0840
0840
1080
1080
1080
1100
0E00
0000
0000
ENDCHAR
STARTCHAR U+016B
ENCODING 363
SWIDTH 500 0
DWIDTH 8 0
BBX 13 16 -2 -2
BITMAP 
0000
0000
0000
03C0
0000
0000
0840
0840
0840
1080
1080
1080
1300
0D00
0000
0000
ENDCHAR
STARTCHAR U+016C
ENCODING 364
SWIDTH 500 0
DWIDTH 8 0
BBX 13 16 -2 -2
BITMAP 
0210
0210
01E0
0000
0420
0420
0840
0840
0840
1080
1080
1080
1100
0E00
0000
0000
ENDCHAR
STARTCHAR U+016D
ENCODING 365
SWIDTH 500 0
DWIDTH 8 0
BBX 13 16 -2 -2
BITMAP 
0000
0210
0220
01C0
0000
0000
0840
0840
0840
1080
1080
1080
1300
0D00
0000
0000
ENDCHAR
STARTCHAR U+016E
ENCODING 366
SWIDTH 500 0
DWIDTH 8 0
BBX 13 16 -2 -2
BITMAP 
00C0
0120
00C0
0000
0420
0420
0840
0840
0840
1080
1080
1080
1100
0E00
0000
0000
ENDCHAR
STARTCHAR U+016F
ENCODING 367
SWIDTH 500 0
DWIDTH 8 0
BBX 13 16 -2 -2
BITMAP 
0000
0000
0180
0240
0180
0000
0840
0840
0840
1080
1080
1080
1300
0D00
0000
0000
ENDCHAR
STARTCHAR U+0170
ENCODING 368
SWIDTH 500 0
DWIDTH 8 0
BBX 13 16 -2 -2
BITMAP 
0198
0220
0000
0000
0420
0420
0840
0840
0840
1080
1080
1080
1100
0E00
0000
0000
ENDCHAR
STARTCHAR U+0171
ENCODING 369
SWIDTH 500 0
DWIDTH 8 0
BBX 13 16 -2 -2
BITMAP 
0000
0000
0398
0440
0000
0000
0840
0840
0840
1080
1080
1080
1300
0D00
0000
0000
ENDCHAR
STARTCHAR U+0172
ENCODING 370
SWIDTH 500 0
DWIDTH 8 0
BBX 13 16 -2 -2
BITMAP 
0000
0000
0000
0000
0420
0420
0840
0840
0840
1080
1080
1080
1100
0E00
0800
0400
ENDCHAR
STARTCHAR U+0173
ENCODING 371
SWIDTH 500 0
DWIDTH 8 0
BBX 13 16 -2 -2
BITMAP 
0000
0000
0000
0000
0000
0000
0840
0840
0840
1080
1080
1080
1300
0D00
0200
0100
ENDCHAR
STARTCHAR U+0174
ENCODING 372
SWIDTH 500 0
DWIDTH 8 0
BBX 13 16 -2 -2
BITMAP 
00C0
0120
0000
0000
0420
0420
0840
0840
0D40
1580
1980
1980
2100
2100
0000
0000
ENDCHAR
STARTCHAR U+0175
ENCODING 373
SWIDTH 500 0
DWIDTH 8 0
BBX 13 16 -2 -2
BITMAP 
0000
0000
0180
0240
0000
0000
0820
0920
0920
1240
1240
1240
1280
0B00
0000
0000
ENDCHAR
STARTCHAR U+0176
ENCODING 374
SWIDTH 500 0
DWIDTH 8 0
BBX 13 16 -2 -2
BITMAP 
00C0
0120
0000
0000
0410
0420
0420
0440
0380
0200
0200
0200
0400
0400
0000
0000
ENDCHAR
STARTCHAR U+0177
ENCODING 375
SWIDTH 500 0
DWIDTH 8 0
BBX 13 16 -2 -2
BITMAP 
0000
0000
0180
0240
0000
0000
0840
0840
0840
1080
1080
0B80
0500
0100
0200
3C00
ENDCHAR
STARTCHAR U+0178
ENCODING 376
SWIDTH 500 0
DWIDTH 8 0
BBX 13 16 -2 -2
BITMAP 
0120
0120
0000
0000
0410
0420
0420
0440
0380
0200
0200
0200
0400
0400
0000
0000
ENDCHAR
STARTCHAR U+0179
ENCODING 377
SWIDTH 500 0
DWIDTH 8 0
BBX 13 16 -2 -2
BITMAP 
0060
0180
0000
0000
07E0
0020
0040
0080
0300
0400
0800
1000
2000
3F00
0000
0000
ENDCHAR
STARTCHAR U+017A
ENCODING 378
SWIDTH 500 0
DWIDTH 8 0
BBX 13 16 -2 -2
BITMAP 
0000
0000
00E0
0300
0000
0000
0FC0
0080
0100
0200
0400
0800
1000
3F00
0000
0000
ENDCHAR
STARTCHAR U+017B
ENCODING 379
SWIDTH 500 0
DWIDTH 8 0
BBX 13 16 -2 -2
BITMAP 
0080
0080
0000
0000
07E0
0020
0040
0080
0300
0400
0800
1000
2000
3F00
0000
0000
ENDCHAR
STARTCHAR U+017C
ENCODING 380
SWIDTH 500 0
DWIDTH 8 0
BBX 13 16 -2 -2
BITMAP 
0000
0000
0080
0100
0000
0000
0FC0
0080
0100
0200
0400
0800
1000
3F00
0000
0000
ENDCHAR
STARTCHAR U+017D
ENCODING 381
SWIDTH 500 0
DWIDTH 8 0
BBX 13 16 -2 -2
BITMAP 
0120
00C0
0000
0000
07E0
0020
0040
0080
0300
0400
0800
1000
2000
3F00
0000
0000
ENDCHAR
STARTCHAR U+017E
ENCODING 382
SWIDTH 500 0
DWIDTH 8 0
BBX 13 16 -2 -2
BITMAP 
0000
0000
0160
0080
0000
0000
0FC0
0080
0100
0200
0400
0800
1000
3F00
0000
0000
ENDCHAR
STARTCHAR U+017F
ENCODING 383
SWIDTH 500 0
DWIDTH 8 0
BBX 13 16 -2 -2
BITMAP 
0000
0000
0000
00C0
0100
0100
0200
0600
0200
0400
0400
0400
0800
0800
0000
0000
ENDCHAR
STARTCHAR U+0180
ENCODING 384
SWIDTH 500 0
DWIDTH 8 0
BBX 13 16 -2 -2
BITMAP 
0000
0000
0000
0400
0F00
0400
0B80
0C40
0840
1080
1080
1080
3100
2E00
0000
0000
ENDCHAR
STARTCHAR U+0181
ENCODING 385
SWIDTH 500 0
DWIDTH 8 0
BBX 13 16 -2 -2
BITMAP 
0000
0000
0000
0000
0780
0A40
1440
0440
0700
0880
0880
0880
1100
1E00
0000
0000
ENDCHAR
STARTCHAR U+0182
ENCODING 386
SWIDTH 500 0
DWIDTH 8 0
BBX 13 16 -2 -2
BITMAP 
0000
0000
0000
0000
07E0
0400
0800
0800
0F00
1080
1080
1080
2100
3E00
0000
0000
ENDCHAR
STARTCHAR U+0183
ENCODING 387
SWIDTH 500 0
DWIDTH 8 0
BBX 13 16 -2 -2
BITMAP 
0000
0000
0000
0000
07E0
0400
0800
0B00
0C80
1080
1080
1080
3100
2E00
0000
0000
ENDCHAR
STARTCHAR U+0184
ENCODING 388
SWIDTH 500 0
DWIDTH 8 0
BBX 13 16 -2 -2
BITMAP 
0000
0000
0000
0000
0600
0200
0400
0400
0700
0880
0880
0880
1100
1E00
0000
0000
ENDCHAR
STARTCHAR U+0185
ENCODING 389
SWIDTH 500 0
DWIDTH 8 0
BBX 13 16 -2 -2
BITMAP 
0000
0000
0000
0000
0000
0000
0C00
0400
0400
0800
0E00
0900
1100
1E00
0000
0000
ENDCHAR
STARTCHAR U+0186
ENCODING 390
SWIDTH 500 0
DWIDTH 8 0
BBX 13 16 -2 -2
BITMAP 
0000
0000
0000
0000
0380
0440
0840
0040
0040
0080
0080
1080
2100
3E00
0000
0000
ENDCHAR
STARTCHAR U+0187
ENCODING 391
SWIDTH 500 0
DWIDTH 8 0
BBX 13 16 -2 -2
BITMAP 
0000
0000
0018
0020
03C0
0440
0880
0800
0800
1000
1000
1100
1200
0C00
0000
0000
ENDCHAR
STARTCHAR U+0188
ENCODING 392
SWIDTH 500 0
DWIDTH 8 0
BBX 13 16 -2 -2
BITMAP 
0000
0000
0000
0000
0030
0040
0780
0880
0800
1000
1000
1000
1200
0C00
0000
0000
ENDCHAR
STARTCHAR U+0189
ENCODING 393
SWIDTH 500 0
DWIDTH 8 0
BBX 13 16 -2 -2
BITMAP 
0000
0000
0000
0000
0780
0440
0840
0840
1E40
1080
1080
1100
2200
3C00
0000
0000
ENDCHAR
STARTCHAR U+018A
ENCODING 394
SWIDTH 500 0
DWIDTH 8 0
BBX 13 16 -2 -2
BITMAP 
0000
0000
0000
0000
0780
0A40
1440
0440
0440
0880
0880
0900
1200
1C00
0000
0000
ENDCHAR
STARTCHAR U+018B
ENCODING 395
SWIDTH 500 0
DWIDTH 8 0
BBX 13 16 -2 -2
BITMAP 
0000
0000
0000
0000
07E0
0020
0040
0040
07C0
0880
1080
1080
1100
0F00
0000
0000
ENDCHAR
STARTCHAR U+018C
ENCODING 396
SWIDTH 500 0
DWIDTH 8 0
BBX 13 16 -2 -2
BITMAP 
0000
0000
0000
0000
07E0
0020
0040
0740
08C0
1080
1080
1080
1300
0D00
0000
0000
ENDCHAR
STARTCHAR U+018D
ENCODING 397
SWIDTH 500 0
DWIDTH 8 0
BBX 13 16 -2 -2
BITMAP 
0000
0000
0000
0000
0000
0000
0780
0840
0840
1080
1080
0B00
0C00
0200
0400
3800
ENDCHAR
STARTCHAR U+018E
ENCODING 398
SWIDTH 500 0
DWIDTH 8 0
BBX 13 16 -2 -2
BITMAP 
0000
0000
0000
0000
07E0
0020
0040
0040
07C0
0080
0080
0080
0100
3F00
0000
0000
ENDCHAR
STARTCHAR U+018F
ENCODING 399
SWIDTH 500 0
DWIDTH 8 0
BBX 13 16 -2 -2
BITMAP 
0000
0000
0000
0000
0180
0640
0840
0040
0040
1F80
1080
1100
1200
0C00
0000
0000
ENDCHAR
STARTCHAR U+0190
ENCODING 400
SWIDTH 500 0
DWIDTH 8 0
BBX 13 16 -2 -2
BITMAP 
0000
0000
0000
0000
0380
0440
0840
0800
0700
0800
1000
1080
1100
0E00
0000
0000
ENDCHAR
STARTCHAR U+0191
ENCODING 401
SWIDTH 500 0
DWIDTH 8 0
BBX 13 16 -2 -2
BITMAP 
0000
0000
0000
0000
01F0
0100
0200
0200
03C0
0400
0400
0400
0800
0800
3000
0000
ENDCHAR
STARTCHAR U+0192
ENCODING 402
SWIDTH 500 0
DWIDTH 8 0
BBX 13 16 -2 -2
BITMAP 
0000
0000
0000
00C0
0100
0100
0200
0F80
0200
0400
0400
0400
0800
0800
3000
0000
ENDCHAR
STARTCHAR U+0193
ENCODING 403
SWIDTH 500 0
DWIDTH 8 0
BBX 13 16 -2 -2
BITMAP 
0000
0000
0000
0030
03C0
0440
0880
0800
0800
1700
1100
1100
1600
0A00
0000
0000
ENDCHAR
STARTCHAR U+0194
ENCODING 404
SWIDTH 500 0
DWIDTH 8 0
BBX 13 16 -2 -2
BITMAP 
0000
0000
0000
0000
0420
0440
0440
0480
0500
0500
0600
0A00
0A00
0400
0000
0000
ENDCHAR
STARTCHAR U+0195
ENCODING 405
SWIDTH 500 0
DWIDTH 8 0
BBX 13 16 -2 -2
BITMAP 
0000
0000
0000
0400
0400
0400
0800
0C20
0A20
1240
1240
1240
2280
2100
0000
0000
ENDCHAR
STARTCHAR U+0196
ENCODING 406
SWIDTH 500 0
DWIDTH 8 0
BBX 13 16 -2 -2
BITMAP 
0000
0000
0000
0000
0700
0100
0200
0200
0200
0400
0400
0400
0400
0200
0000
0000
ENDCHAR
STARTCHAR U+0197
ENCODING 407
SWIDTH 500 0
DWIDTH 8 0
BBX 13 16 -2 -2
BITMAP 
0000
0000
0000
0000
03E0
0080
0100
0100
07C0
0200
0200
0200
0400
1F00
0000
0000
ENDCHAR
STARTCHAR U+0198
ENCODING 408
SWIDTH 500 0
DWIDTH 8 0
BBX 13 16 -2 -2
BITMAP 
0000
0000
0000
0000
0460
04A0
0900
0A00
0C00
1800
1400
1200
2200
2100
0000
0000
ENDCHAR
STARTCHAR U+0199
ENCODING 409
SWIDTH 500 0
DWIDTH 8 0
BBX 13 16 -2 -2
BITMAP 
0000
0000
0000
0300
0400
0400
0880
0900
0E00
1800
1400
1200
2200
2100
0000
0000
ENDCHAR
STARTCHAR U+019A
ENCODING 410
SWIDTH 500 0
DWIDTH 8 0
BBX 13 16 -2 -2
BITMAP 
0000
0000
0000
0000
0180
0080
0100
0100
07C0
0200
0200
0200
0400
1F00
0000
0000
ENDCHAR
STARTCHAR U+019B
ENCODING 411
SWIDTH 500 0
DWIDTH 8 0
BBX 13 16 -2 -2
BITMAP 
0000
0000
0000
0000
0240
0380
0200
0600
0A00
0700
0900
1100
1100
2100
0000
0000
ENDCHAR
STARTCHAR U+019C
ENCODING 412
SWIDTH 500 0
DWIDTH 8 0
BBX 13 16 -2 -2
BITMAP 
0000
0000
0000
0000
0490
0490
0920
0920
0920
1240
1240
1240
1280
0B80
0000
0000
ENDCHAR
STARTCHAR U+019D
ENCODING 413
SWIDTH 500 0
DWIDTH 8 0
BBX 13 16 -2 -2
BITMAP 
0000
0000
0000
0000
0220
0220
0640
0640
0640
0A80
0980
0980
1100
1100
6000
0000
ENDCHAR
STARTCHAR U+019E
ENCODING 414
SWIDTH 500 0
DWIDTH 8 0
BBX 13 16 -2 -2
BITMAP 
0000
0000
0000
0000
0000
0000
0B80
0C40
0840
1080
1080
1080
2100
2100
0100
0200
ENDCHAR
STARTCHAR U+019F
ENCODING 415
SWIDTH 500 0
DWIDTH 8 0
BBX 13 16 -2 -2
BITMAP 
0000
0000
0000
0000
0380
0440
0840
0840
0FC0
1080
1080
1080
1100
0E00
0000
0000
ENDCHAR
STARTCHAR U+01A0
ENCODING 416
SWIDTH 500 0
DWIDTH 8 0
BBX 13 16 -2 -2
BITMAP 
0000
0000
0000
0020
0320
0480
0880
0880
0880
1100
1100
1100
1200
0C00
0000
0000
ENDCHAR
STARTCHAR U+01A1
ENCODING 417
SWIDTH 500 0
DWIDTH 8 0
BBX 13 16 -2 -2
BITMAP 
0000
0000
0000
0000
0000
0040
0740
0880
0880
1100
1100
1100
1200
0C00
0000
0000
ENDCHAR
STARTCHAR U+01A2
ENCODING 418
SWIDTH 500 0
DWIDTH 8 0
BBX 13 16 -2 -2
BITMAP 
0000
0000
0000
0000
0260
0520
0940
0940
0940
1280
1280
1280
1500
0900
0100
0200
ENDCHAR
STARTCHAR U+01A3
ENCODING 419
SWIDTH 500 0
DWIDTH 8 0
BBX 13 16 -2 -2
BITMAP 
0000
0000
0000
0000
0000
0000
06C0
0940
0940
1280
1280
1280
1500
0900
0100
0200
ENDCHAR
STARTCHAR U+01A4
ENCODING 420
SWIDTH 500 0
DWIDTH 8 0
BBX 13 16 -2 -2
BITMAP 
0000
0000
0000
0000
03C0
0520
0A20
0220
03C0
0400
0400
0400
0800
0800
0000
0000
ENDCHAR
STARTCHAR U+01A5
ENCODING 421
SWIDTH 500 0
DWIDTH 8 0
BBX 13 16 -2 -2
BITMAP 
0000
0000
0000
0000
0000
0070
0B80
0C80
0880
1100
1100
1100
3200
2C00
2000
4000
ENDCHAR
STARTCHAR U+01A6
ENCODING 422
SWIDTH 500 0
DWIDTH 8 0
BBX 13 16 -2 -2
BITMAP 
0000
0000
0000
0000
0700
0200
0780
0440
0480
0F00
0A00
0900
1100
1080
0000
0000
ENDCHAR
STARTCHAR U+01A7
ENCODING 423
SWIDTH 500 0
DWIDTH 8 0
BBX 13 16 -2 -2
BITMAP 
0000
0000
0000
0000
0380
0440
0840
0040
0180
0E00
1000
1080
1100
0E00
0000
0000
ENDCHAR
STARTCHAR U+01A8
ENCODING 424
SWIDTH 500 0
DWIDTH 8 0
BBX 13 16 -2 -2
BITMAP 
0000
0000
0000
0000
0000
0000
0780
0840
0080
0300
0C00
1000
1100
0E00
0000
0000
ENDCHAR
STARTCHAR U+01A9
ENCODING 425
SWIDTH 500 0
DWIDTH 8 0
BBX 13 16 -2 -2
BITMAP 
0000
0000
0000
0000
07E0
0400
0400
0200
0200
0200
0400
0800
1000
3F00
0000
0000
ENDCHAR
STARTCHAR U+01AA
ENCODING 426
SWIDTH 500 0
DWIDTH 8 0
BBX 13 16 -2 -2
BITMAP 
0000
0000
0000
0200
0500
0500
0600
0200
0200
0400
0400
0400
0800
0800
0600
0000
ENDCHAR
STARTCHAR U+01AB
ENCODING 427
SWIDTH 500 0
DWIDTH 8 0
BBX 13 16 -2 -2
BITMAP 
0000
0000
0000
0000
0100
0100
0F80
0200
0200
0400
0400
0400
0400
0200
0600
1800
ENDCHAR
STARTCHAR U+01AC
ENCODING 428
SWIDTH 500 0
DWIDTH 8 0
BBX 13 16 -2 -2
BITMAP 
0000
0000
0000
0000
03F0
0480
0900
0100
0100
0200
0200
0200
0400
0400
0000
0000
ENDCHAR
STARTCHAR U+01AD
ENCODING 429
SWIDTH 500 0
DWIDTH 8 0
BBX 13 16 -2 -2
BITMAP 
0000
0000
0000
00C0
0100
0100
0200
0F80
0200
0400
0400
0400
0400
0200
0000
0000
ENDCHAR
STARTCHAR U+01AE
ENCODING 430
SWIDTH 500 0
DWIDTH 8 0
BBX 13 16 -2 -2
BITMAP 
0000
0000
0000
0000
07F0
0080
0100
0100
0100
0200
0200
0200
0400
0400
0300
0000
ENDCHAR
STARTCHAR U+01AF
ENCODING 431
SWIDTH 500 0
DWIDTH 8 0
BBX 13 16 -2 -2
BITMAP 
0000
0000
0008
0010
0460
0440
0880
0880
0880
1100
1100
1100
1200
0C00
0000
0000
ENDCHAR
STARTCHAR U+01B0
ENCODING 432
SWIDTH 500 0
DWIDTH 8 0
BBX 13 16 -2 -2
BITMAP 
0000
0000
0000
0000
0010
0020
08C0
0880
0880
1100
1100
1100
1600
0A00
0000
0000
ENDCHAR
STARTCHAR U+01B1
ENCODING 433
SWIDTH 500 0
DWIDTH 8 0
BBX 13 16 -2 -2
BITMAP 
0000
0000
0000
0000
0420
0440
0440
0840
0840
1080
1080
1100
1200
0C00
0000
0000
ENDCHAR
STARTCHAR U+01B2
ENCODING 434
SWIDTH 500 0
DWIDTH 8 0
BBX 13 16 -2 -2
BITMAP 
0000
0000
0000
0000
0480
0440
0840
0840
0840
1080
1080
1100
1600
0800
0000
0000
ENDCHAR
STARTCHAR U+01B3
ENCODING 435
SWIDTH 500 0
DWIDTH 8 0
BBX 13 16 -2 -2
BITMAP 
0000
0000
0000
0000
0310
0520
0120
0140
0180
0080
0100
0100
0200
0200
0000
0000
ENDCHAR
STARTCHAR U+01B4
ENCODING 436
SWIDTH 500 0
DWIDTH 8 0
BBX 13 16 -2 -2
BITMAP 
0000
0000
0000
0000
0000
0030
0840
0880
0880
1100
1100
0900
0600
0200
0400
3800
ENDCHAR
STARTCHAR U+01B5
ENCODING 437
SWIDTH 500 0
DWIDTH 8 0
BBX 13 16 -2 -2
BITMAP 
0000
0000
0000
0000
07E0
0040
0080
0100
0780
0400
0800
1000
2000
3F00
0000
0000
ENDCHAR
STARTCHAR U+01B6
ENCODING 438
SWIDTH 500 0
DWIDTH 8 0
BBX 13 16 -2 -2
BITMAP 
0000
0000
0000
0000
0000
0000
0FC0
0080
0100
0F00
0400
0800
1000
3F00
0000
0000
ENDCHAR
STARTCHAR U+01B7
ENCODING 439
SWIDTH 500 0
DWIDTH 8 0
BBX 13 16 -2 -2
BITMAP 
0000
0000
0000
0000
07E0
00C0
0100
0200
0300
0080
0080
0080
2300
1E00
0000
0000
ENDCHAR
STARTCHAR U+01B8
ENCODING 440
SWIDTH 500 0
DWIDTH 8 0
BBX 13 16 -2 -2
BITMAP 
0000
0000
0000
0000
07E0
0200
0200
0100
0700
0800
1000
1000
3100
1E00
0000
0000
ENDCHAR
STARTCHAR U+01B9
ENCODING 441
SWIDTH 500 0
DWIDTH 8 0
BBX 13 16 -2 -2
BITMAP 
0000
0000
0000
0000
0000
0000
0F80
0400
0200
0200
0E00
1000
2000
2000
2300
1C00
ENDCHAR
STARTCHAR U+01BA
ENCODING 442
SWIDTH 500 0
DWIDTH 8 0
BBX 13 16 -2 -2
BITMAP 
0000
0000
0000
0000
0000
0000
07C0
0080
0300
0500
0080
0100
1E00
2000
2300
1C00
ENDCHAR
STARTCHAR U+01BB
ENCODING 443
SWIDTH 500 0
DWIDTH 8 0
BBX 13 16 -2 -2
BITMAP 
0000
0000
0000
0000
0380
0440
0840
0080
0300
1D80
0800
1000
2000
3F00
0000
0000
ENDCHAR
STARTCHAR U+01BC
ENCODING 444
SWIDTH 500 0
DWIDTH 8 0
BBX 13 16 -2 -2
BITMAP 
0000
0000
0000
0000
07E0
0200
0400
0400
0700
0080
0080
0080
2100
1E00
0000
0000
ENDCHAR
STARTCHAR U+01BD
ENCODING 445
SWIDTH 500 0
DWIDTH 8 0
BBX 13 16 -2 -2
BITMAP 
0000
0000
0000
0000
0000
0000
0FC0
0400
0400
0F00
0080
0080
2100
1E00
0000
0000
ENDCHAR
STARTCHAR U+01BE
ENCODING 446
SWIDTH 500 0
DWIDTH 8 0
BBX 13 16 -2 -2
BITMAP 
0000
0000
0000
0000
0100
0100
0F80
0200
0200
0600
0100
0100
2200
1C00
0000
0000
ENDCHAR
STARTCHAR U+01BF
ENCODING 447
SWIDTH 500 0
DWIDTH 8 0
BBX 13 16 -2 -2
BITMAP 
0000
0000
0000
0000
0000
0000
0B80
0C40
0840
1080
1100
1600
2800
3000
2000
4000
ENDCHAR
STARTCHAR U+01C0
ENCODING 448
SWIDTH 500 0
DWIDTH 8 0
BBX 13 16 -2 -2
BITMAP 
0000
0000
0000
0100
0100
0100
0200
0200
0200
0400
0400
0400
0800
0800
0000
0000
ENDCHAR
STARTCHAR U+01C1
ENCODING 449
SWIDTH 500 0
DWIDTH 8 0
BBX 13 16 -2 -2
BITMAP 
0000
0000
0000
0280
0280
0280
0500
0500
0500
0A00
0A00
0A00
1400
1400
0000
0000
ENDCHAR
STARTCHAR U+01C2
ENCODING 450
SWIDTH 500 0
DWIDTH 8 0
BBX 13 16 -2 -2
BITMAP 
0000
0000
0000
0100
0100
0100
0200
0F80
0200
1F00
0400
0400
0800
0800
0000
0000
ENDCHAR
STARTCHAR U+01C3
ENCODING 451
SWIDTH 500 0
DWIDTH 8 0
BBX 13 16 -2 -2
BITMAP 
0000
0000
0000
0000
0080
0080
0100
0100
0100
0200
0200
0000
0400
0400
0000
0000
ENDCHAR
STARTCHAR U+01C4
ENCODING 452
SWIDTH 500 0
DWIDTH 8 0
BBX 13 16 -2 -2
BITMAP 
0000
0028
0010
0000
0670
0610
0A20
0A20
0A40
1480
1500
1500
2A00
3380
0000
0000
ENDCHAR
STARTCHAR U+01C5
ENCODING 453
SWIDTH 500 0
DWIDTH 8 0
BBX 13 16 -2 -2
BITMAP 
0000
0000
0000
0050
0620
0600
0AE0
0A20
0A40
1440
1480
1500
2A00
3380
0000
0000
ENDCHAR
STARTCHAR U+01C6
ENCODING 454
SWIDTH 500 0
DWIDTH 8 0
BBX 13 16 -2 -2
BITMAP 
0000
0000
0000
0150
0120
0100
06E0
0A20
0A40
1440
1480
1500
1A00
0B80
0000
0000
ENDCHAR
STARTCHAR U+01C7
ENCODING 455
SWIDTH 500 0
DWIDTH 8 0
BBX 13 16 -2 -2
BITMAP 
0000
0000
0000
0000
0470
0410
0820
0820
0820
1040
1040
1240
2280
3900
0000
0000
ENDCHAR
STARTCHAR U+01C8
ENCODING 456
SWIDTH 500 0
DWIDTH 8 0
BBX 13 16 -2 -2
BITMAP 
0000
0000
0000
0010
0410
0400
0860
0820
0820
1040
1040
1040
2080
3C80
0100
0E00
ENDCHAR
STARTCHAR U+01C9
ENCODING 457
SWIDTH 500 0
DWIDTH 8 0
BBX 13 16 -2 -2
BITMAP 
0000
0000
0000
0010
0610
0200
0460
0420
0420
0840
0840
0840
1080
7C80
0100
0E00
ENDCHAR
STARTCHAR U+01CA
ENCODING 458
SWIDTH 500 0
DWIDTH 8 0
BBX 13 16 -2 -2
BITMAP 
0000
0000
0000
0000
04B0
0490
0920
0D20
0D20
1640
1640
1340
2680
2500
0000
0000
ENDCHAR
STARTCHAR U+01CB
ENCODING 459
SWIDTH 500 0
DWIDTH 8 0
BBX 13 16 -2 -2
BITMAP 
0000
0000
0000
0010
0490
0480
0D60
0D20
0D20
1640
1640
1640
2480
2480
0900
0600
ENDCHAR
STARTCHAR U+01CC
ENCODING 460
SWIDTH 500 0
DWIDTH 8 0
BBX 13 16 -2 -2
BITMAP 
0000
0000
0000
0010
0010
0000
0A60
0D20
0920
1240
1240
1240
2480
2480
0900
0600
ENDCHAR
STARTCHAR U+01CD
ENCODING 461
SWIDTH 500 0
DWIDTH 8 0
BBX 13 16 -2 -2
BITMAP 
0120
00C0
0000
0000
0100
0280
0480
0840
0840
1F80
1080
1080
2100
2100
0000
0000
ENDCHAR
STARTCHAR U+01CE
ENCODING 462
SWIDTH 500 0
DWIDTH 8 0
BBX 13 16 -2 -2
BITMAP 
0000
0000
0160
0080
0000
0000
0780
0840
0040
0F80
1080
1080
1300
0D00
0000
0000
ENDCHAR
STARTCHAR U+01CF
ENCODING 463
SWIDTH 500 0
DWIDTH 8 0
BBX 13 16 -2 -2
BITMAP 
0120
00C0
0000
0000
03E0
0080
0100
0100
0100
0200
0200
0200
0400
1F00
0000
0000
ENDCHAR
STARTCHAR U+01D0
ENCODING 464
SWIDTH 500 0
DWIDTH 8 0
BBX 13 16 -2 -2
BITMAP 
0000
0000
0160
0080
0000
0000
0300
0100
0100
0200
0200
0200
0400
1F00
0000
0000
ENDCHAR
STARTCHAR U+01D1
ENCODING 465
SWIDTH 500 0
DWIDTH 8 0
BBX 13 16 -2 -2
BITMAP 
0120
00C0
0000
0000
0380
0440
0840
0840
0840
1080
1080
1080
1100
0E00
0000
0000
ENDCHAR
STARTCHAR U+01D2
ENCODING 466
SWIDTH 500 0
DWIDTH 8 0
BBX 13 16 -2 -2
BITMAP 
0000
0000
0160
0080
0000
0000
0780
0840
0840
1080
1080
1080
1100
0E00
0000
0000
ENDCHAR
STARTCHAR U+01D3
ENCODING 467
SWIDTH 500 0
DWIDTH 8 0
BBX 13 16 -2 -2
BITMAP 
0120
00C0
0000
0000
0420
0420
0840
0840
0840
1080
1080
1080
1100
0E00
0000
0000
ENDCHAR
STARTCHAR U+01D4
ENCODING 468
SWIDTH 500 0
DWIDTH 8 0
BBX 13 16 -2 -2
BITMAP 
0000
0000
0160
0080
0000
0000
0840
0840
0840
1080
1080
1080
1300
0D00
0000
0000
ENDCHAR
STARTCHAR U+01D5
ENCODING 469
SWIDTH 500 0
DWIDTH 8 0
BBX 13 16 -2 -2
BITMAP 
01E0
0000
0120
0000
0420
0420
0840
0840
0840
1080
1080
1080
1100
0E00
0000
0000
ENDCHAR
STARTCHAR U+01D6
ENCODING 470
SWIDTH 500 0
DWIDTH 8 0
BBX 13 16 -2 -2
BITMAP 
0000
01E0
0000
0240
0240
0000
0840
0840
0840
1080
1080
1080
1300
0D00
0000
0000
ENDCHAR
STARTCHAR U+01D7
ENCODING 471
SWIDTH 500 0
DWIDTH 8 0
BBX 13 16 -2 -2
BITMAP 
0060
0180
0000
0240
0000
0420
0840
0840
0840
1080
1080
1080
1100
0E00
0000
0000
ENDCHAR
STARTCHAR U+01D8
ENCODING 472
SWIDTH 500 0
DWIDTH 8 0
BBX 13 16 -2 -2
BITMAP 
0060
0180
0000
0240
0240
0000
0840
0840
0840
1080
1080
1080
1300
0D00
0000
0000
ENDCHAR
STARTCHAR U+01D9
ENCODING 473
SWIDTH 500 0
DWIDTH 8 0
BBX 13 16 -2 -2
BITMAP 
0120
00C0
0000
0240
0000
0420
0840
0840
0840
1080
1080
1080
1100
0E00
0000
0000
ENDCHAR
STARTCHAR U+01DA
ENCODING 474
SWIDTH 500 0
DWIDTH 8 0
BBX 13 16 -2 -2
BITMAP 
0120
00C0
0000
0240
0240
0000
0840
0840
0840
1080
1080
1080
1300
0D00
0000
0000
ENDCHAR
STARTCHAR U+01DB
ENCODING 475
SWIDTH 500 0
DWIDTH 8 0
BBX 13 16 -2 -2
BITMAP 
0180
0060
0000
0240
0000
0420
0840
0840
0840
1080
1080
1080
1100
0E00
0000
0000
ENDCHAR
STARTCHAR U+01DC
ENCODING 476
SWIDTH 500 0
DWIDTH 8 0
BBX 13 16 -2 -2
BITMAP 
0180
0060
0000
0240
0240
0000
0840
0840
0840
1080
1080
1080
1300
0D00
0000
0000
ENDCHAR
STARTCHAR U+01DD
ENCODING 477
SWIDTH 500 0
DWIDTH 8 0
BBX 13 16 -2 -2
BITMAP 
0000
0000
0000
0000
0000
0000
0780
0840
0040
0080
1F80
1080
1100
0E00
0000
0000
ENDCHAR
STARTCHAR U+01DE
ENCODING 478
SWIDTH 500 0
DWIDTH 8 0
BBX 13 16 -2 -2
BITMAP 
01E0
0000
0120
0000
0100
0280
0480
0840
0840
1F80
1080
1080
2100
2100
0000
0000
ENDCHAR
STARTCHAR U+01DF
ENCODING 479
SWIDTH 500 0
DWIDTH 8 0
BBX 13 16 -2 -2
BITMAP 
0000
01E0
0000
0240
0240
0000
0780
0840
0040
0F80
1080
1080
1300
0D00
0000
0000
ENDCHAR
STARTCHAR U+01E0
ENCODING 480
SWIDTH 500 0
DWIDTH 8 0
BBX 13 16 -2 -2
BITMAP 
01E0
0000
00C0
0000
0100
0280
0480
0840
0840
1F80
1080
1080
2100
2100
0000
0000
ENDCHAR
STARTCHAR U+01E1
ENCODING 481
SWIDTH 500 0
DWIDTH 8 0
BBX 13 16 -2 -2
BITMAP 
0000
01E0
0000
0100
0100
0000
0780
0840
0040
0F80
1080
1080
1300
0D00
0000
0000
ENDCHAR
STARTCHAR U+01E2
ENCODING 482
SWIDTH 500 0
DWIDTH 8 0
BBX 13 16 -2 -2
BITMAP 
0000
01E0
0000
0000
01F0
0280
0500
0900
0FE0
1200
1200
1200
2400
2780
0000
0000
ENDCHAR
STARTCHAR U+01E3
ENCODING 483
SWIDTH 500 0
DWIDTH 8 0
BBX 13 16 -2 -2
BITMAP 
0000
0000
0000
03C0
0000
0000
07C0
0920
0120
0FC0
1200
1200
1480
0F00
0000
0000
ENDCHAR
STARTCHAR U+01E4
ENCODING 484
SWIDTH 500 0
DWIDTH 8 0
BBX 13 16 -2 -2
BITMAP 
0000
0000
0000
0000
0380
0440
0840
0800
0800
1380
1080
13C0
1100
0F00
0000
0000
ENDCHAR
STARTCHAR U+01E5
ENCODING 485
SWIDTH 500 0
DWIDTH 8 0
BBX 13 16 -2 -2
BITMAP 
0000
0000
0000
0000
0000
0040
0740
0880
0880
0900
0E00
1000
1E00
2780
2300
1C00
ENDCHAR
STARTCHAR U+01E6
ENCODING 486
SWIDTH 500 0
DWIDTH 8 0
BBX 13 16 -2 -2
BITMAP 
0120
00C0
0000
0000
0380
0440
0840
0800
0800
1380
1080
1080
1300
0D00
0000
0000
ENDCHAR
STARTCHAR U+01E7
ENCODING 487
SWIDTH 500 0
DWIDTH 8 0
BBX 13 16 -2 -2
BITMAP 
0000
0000
0160
0080
0000
0040
0740
0880
0880
0900
0E00
1000
1E00
2100
2200
1C00
ENDCHAR
STARTCHAR U+01E8
ENCODING 488
SWIDTH 500 0
DWIDTH 8 0
BBX 13 16 -2 -2
BITMAP 
0120
00C0
0000
0000
0420
04C0
0900
0A00
0C00
1800
1400
1200
2200
2100
0000
0000
ENDCHAR
STARTCHAR U+01E9
ENCODING 489
SWIDTH 500 0
DWIDTH 8 0
BBX 13 16 -2 -2
BITMAP 
0240
0180
0000
0000
0400
0400
0880
0900
0E00
1800
1400
1200
2200
2100
0000
0000
ENDCHAR
STARTCHAR U+01EA
ENCODING 490
SWIDTH 500 0
DWIDTH 8 0
BBX 13 16 -2 -2
BITMAP 
0000
0000
0000
0000
0380
0440
0840
0840
0840
1080
1080
1080
1100
0E00
0800
0400
ENDCHAR
STARTCHAR U+01EB
ENCODING 491
SWIDTH 500 0
DWIDTH 8 0
BBX 13 16 -2 -2
BITMAP 
0000
0000
0000
0000
0000
0000
0780
0840
0840
1080
1080
1080
1100
0E00
0800
0400
ENDCHAR
STARTCHAR U+01EC
ENCODING 492
SWIDTH 500 0
DWIDTH 8 0
BBX 13 16 -2 -2
BITMAP 
0000
01E0
0000
0000
0380
0440
0840
0840
0840
1080
1080
1080
1100
0E00
0800
0400
ENDCHAR
STARTCHAR U+01ED
ENCODING 493
SWIDTH 500 0
DWIDTH 8 0
BBX 13 16 -2 -2
BITMAP 
0000
0000
0000
03C0
0000
0000
0780
0840
0840
1080
1080
1080
1100
0E00
0800
0400
ENDCHAR
STARTCHAR U+01EE
ENCODING 494
SWIDTH 500 0
DWIDTH 8 0
BBX 13 16 -2 -2
BITMAP 
0120
00C0
0000
0000
07E0
00C0
0100
0200
0300
0080
0080
0080
2300
1E00
0000
0000
ENDCHAR
STARTCHAR U+01EF
ENCODING 495
SWIDTH 500 0
DWIDTH 8 0
BBX 13 16 -2 -2
BITMAP 
0000
0000
0160
0080
0000
0000
07C0
0080
0100
0200
0700
0100
0100
0100
2200
1C00
ENDCHAR
STARTCHAR U+01F0
ENCODING 496
SWIDTH 500 0
DWIDTH 8 0
BBX 13 16 -2 -2
BITMAP 
0000
0000
00B0
0040
0000
0000
0180
0080
0080
0100
0100
0100
0200
0200
2C00
3000
ENDCHAR
STARTCHAR U+01F1
ENCODING 497
SWIDTH 500 0
DWIDTH 8 0
BBX 13 16 -2 -2
BITMAP 
0000
0000
0000
0000
0670
0610
0A20
0A20
0A40
1480
1500
1500
2A00
3380
0000
0000
ENDCHAR
STARTCHAR U+01F2
ENCODING 498
SWIDTH 500 0
DWIDTH 8 0
BBX 13 16 -2 -2
BITMAP 
0000
0000
0000
0000
0600
0600
0AE0
0A20
0A40
1440
1480
1500
2A00
3380
0000
0000
ENDCHAR
STARTCHAR U+01F3
ENCODING 499
SWIDTH 500 0
DWIDTH 8 0
BBX 13 16 -2 -2
BITMAP 
0000
0000
0000
0100
0100
0100
06E0
0A20
0A40
1440
1480
1500
1A00
0B80
0000
0000
ENDCHAR
STARTCHAR U+01F4
ENCODING 500
SWIDTH 500 0
DWIDTH 8 0
BBX 13 16 -2 -2
BITMAP 
0060
0180
0000
0000
0380
0440
0840
0800
0800
1380
1080
1080
1300
0D00
0000
0000
ENDCHAR
STARTCHAR U+01F5
ENCODING 501
SWIDTH 500 0
DWIDTH 8 0
BBX 13 16 -2 -2
BITMAP 
0000
0000
00E0
0300
0000
0040
0740
0880
0880
0900
0E00
1000
1E00
2100
2200
1C00
ENDCHAR
STARTCHAR U+01F6
ENCODING 502
SWIDTH 500 0
DWIDTH 8 0
BBX 13 16 -2 -2
BITMAP 
0000
0000
0000
0480
0480
0480
0900
0F20
0920
1240
1240
1240
2280
2100
0000
0000
ENDCHAR
STARTCHAR U+01F7
ENCODING 503
SWIDTH 500 0
DWIDTH 8 0
BBX 13 16 -2 -2
BITMAP 
0000
0000
0000
0000
05C0
0620
0820
0820
0840
1180
1200
1C00
3000
2000
2000
4000
ENDCHAR
STARTCHAR U+01F8
ENCODING 504
SWIDTH 500 0
DWIDTH 8 0
BBX 13 16 -2 -2
BITMAP 
0180
0060
0000
0000
0420
0620
0C40
0A40
0A40
1280
1280
1380
2300
2100
0000
0000
ENDCHAR
STARTCHAR U+01F9
ENCODING 505
SWIDTH 500 0
DWIDTH 8 0
BBX 13 16 -2 -2
BITMAP 
0000
0000
0180
0040
0000
0000
0B80
0C40
0840
1080
1080
1080
2100
2100
0000
0000
ENDCHAR
STARTCHAR U+01FA
ENCODING 506
SWIDTH 500 0
DWIDTH 8 0
BBX 13 16 -2 -2
BITMAP 
0060
0180
01C0
0240
0180
0180
0280
0480
0840
1F80
1080
1080
2100
2100
0000
0000
ENDCHAR
STARTCHAR U+01FB
ENCODING 507
SWIDTH 500 0
DWIDTH 8 0
BBX 13 16 -2 -2
BITMAP 
0060
0180
0000
0180
0240
0180
0000
0700
0880
0080
0F80
1080
1300
0D00
0000
0000
ENDCHAR
STARTCHAR U+01FC
ENCODING 508
SWIDTH 500 0
DWIDTH 8 0
BBX 13 16 -2 -2
BITMAP 
0030
00C0
0000
0000
01F0
0280
0500
0900
0FE0
1200
1200
1200
2400
2780
0000
0000
ENDCHAR
STARTCHAR U+01FD
ENCODING 509
SWIDTH 500 0
DWIDTH 8 0
BBX 13 16 -2 -2
BITMAP 
0000
0000
0070
0180
0000
0000
07C0
0920
0120
0FC0
1200
1200
1480
0F00
0000
0000
ENDCHAR
STARTCHAR U+01FE
ENCODING 510
SWIDTH 500 0
DWIDTH 8 0
BBX 13 16 -2 -2
BITMAP 
0060
0180
0000
0020
03A0
04C0
08C0
0940
0A40
1280
1480
1880
0900
2600
2000
0000
ENDCHAR
STARTCHAR U+01FF
ENCODING 511
SWIDTH 500 0
DWIDTH 8 0
BBX 13 16 -2 -2
BITMAP 
0000
0000
00E0
0300
0000
0060
0780
08C0
0940
1280
1480
1880
3100
1E00
2000
0000
ENDCHAR
STARTCHAR U+0200
ENCODING 512
SWIDTH 500 0
DWIDTH 8 0
BBX 13 16 -2 -2
BITMAP 
0660
0110
0000
0000
0100
0280
0480
0840
0840
1F80
1080
1080
2100
2100
0000
0000
ENDCHAR
STARTCHAR U+0201
ENCODING 513
SWIDTH 500 0
DWIDTH 8 0
BBX 13 16 -2 -2
BITMAP 
0000
0000
0460
0220
0000
0000
0780
0840
0040
0F80
1080
1080
1300
0D00
0000
0000
ENDCHAR
STARTCHAR U+0202
ENCODING 514
SWIDTH 500 0
DWIDTH 8 0
BBX 13 16 -2 -2
BITMAP 
01E0
0210
0210
0000
0100
0280
0480
0840
0840
1F80
1080
1080
2100
2100
0000
0000
ENDCHAR
STARTCHAR U+0203
ENCODING 515
SWIDTH 500 0
DWIDTH 8 0
BBX 13 16 -2 -2
BITMAP 
0000
0000
01C0
0220
0420
0000
0780
0840
0040
0F80
1080
1080
1300
0D00
0000
0000
ENDCHAR
STARTCHAR U+0204
ENCODING 516
SWIDTH 500 0
DWIDTH 8 0
BBX 13 16 -2 -2
BITMAP 
0660
0110
0000
0000
07E0
0400
0800
0800
0F80
1000
1000
1000
2000
3F00
0000
0000
ENDCHAR
STARTCHAR U+0205
ENCODING 517
SWIDTH 500 0
DWIDTH 8 0
BBX 13 16 -2 -2
BITMAP 
0000
0000
0460
0220
0000
0000
0780
0840
0840
1F80
1000
1000
1100
0E00
0000
0000
ENDCHAR
STARTCHAR U+0206
ENCODING 518
SWIDTH 500 0
DWIDTH 8 0
BBX 13 16 -2 -2
BITMAP 
01E0
0210
0210
0000
07E0
0400
0800
0800
0F80
1000
1000
1000
2000
3F00
0000
0000
ENDCHAR
STARTCHAR U+0207
ENCODING 519
SWIDTH 500 0
DWIDTH 8 0
BBX 13 16 -2 -2
BITMAP 
0000
0000
01C0
0220
0420
0000
0780
0840
0840
1F80
1000
1000
1100
0E00
0000
0000
ENDCHAR
STARTCHAR U+0208
ENCODING 520
SWIDTH 500 0
DWIDTH 8 0
BBX 13 16 -2 -2
BITMAP 
0660
0110
0000
0000
03E0
0080
0100
0100
0100
0200
0200
0200
0400
1F00
0000
0000
ENDCHAR
STARTCHAR U+0209
ENCODING 521
SWIDTH 500 0
DWIDTH 8 0
BBX 13 16 -2 -2
BITMAP 
0000
0000
0460
0220
0000
0000
0300
0100
0100
0200
0200
0200
0400
1F00
0000
0000
ENDCHAR
STARTCHAR U+020A
ENCODING 522
SWIDTH 500 0
DWIDTH 8 0
BBX 13 16 -2 -2
BITMAP 
01E0
0210
0210
0000
03E0
0080
0100
0100
0100
0200
0200
0200
0400
1F00
0000
0000
ENDCHAR
STARTCHAR U+020B
ENCODING 523
SWIDTH 500 0
DWIDTH 8 0
BBX 13 16 -2 -2
BITMAP 
0000
0000
01C0
0220
0420
0000
0300
0100
0100
0200
0200
0200
0400
1F00
0000
0000
ENDCHAR
STARTCHAR U+020C
ENCODING 524
SWIDTH 500 0
DWIDTH 8 0
BBX 13 16 -2 -2
BITMAP 
0660
0110
0000
0000
0380
0440
0840
0840
0840
1080
1080
1080
1100
0E00
0000
0000
ENDCHAR
STARTCHAR U+020D
ENCODING 525
SWIDTH 500 0
DWIDTH 8 0
BBX 13 16 -2 -2
BITMAP 
0000
0000
0460
0220
0000
0000
0780
0840
0840
1080
1080
1080
1100
0E00
0000
0000
ENDCHAR
STARTCHAR U+020E
ENCODING 526
SWIDTH 500 0
DWIDTH 8 0
BBX 13 16 -2 -2
BITMAP 
01E0
0210
0210
0000
0380
0440
0840
0840
0840
1080
1080
1080
1100
0E00
0000
0000
ENDCHAR
STARTCHAR U+020F
ENCODING 527
SWIDTH 500 0
DWIDTH 8 0
BBX 13 16 -2 -2
BITMAP 
0000
0000
01C0
0220
0420
0000
0780
0840
0840
1080
1080
1080
1100
0E00
0000
0000
ENDCHAR
STARTCHAR U+0210
ENCODING 528
SWIDTH 500 0
DWIDTH 8 0
BBX 13 16 -2 -2
BITMAP 
0660
0110
0000
0000
0780
0440
0840
0840
0F80
1200
1100
1100
2100
2100
0000
0000
ENDCHAR
STARTCHAR U+0211
ENCODING 529
SWIDTH 500 0
DWIDTH 8 0
BBX 13 16 -2 -2
BITMAP 
0000
0000
0460
0220
0000
0000
0B80
0C40
0840
1000
1000
1000
2000
2000
0000
0000
ENDCHAR
STARTCHAR U+0212
ENCODING 530
SWIDTH 500 0
DWIDTH 8 0
BBX 13 16 -2 -2
BITMAP 
01E0
0210
0210
0000
0780
0440
0840
0840
0F80
1200
1100
1100
2100
2100
0000
0000
ENDCHAR
STARTCHAR U+0213
ENCODING 531
SWIDTH 500 0
DWIDTH 8 0
BBX 13 16 -2 -2
BITMAP 
0000
0000
01C0
0220
0420
0000
0B80
0C40
0840
1000
1000
1000
2000
2000
0000
0000
ENDCHAR
STARTCHAR U+0214
ENCODING 532
SWIDTH 500 0
DWIDTH 8 0
BBX 13 16 -2 -2
BITMAP 
0660
0110
0000
0000
0420
0420
0840
0840
0840
1080
1080
1080
1100
0E00
0000
0000
ENDCHAR
STARTCHAR U+0215
ENCODING 533
SWIDTH 500 0
DWIDTH 8 0
BBX 13 16 -2 -2
BITMAP 
0000
0000
0460
0220
0000
0000
0840
0840
0840
1080
1080
1080
1300
0D00
0000
0000
ENDCHAR
STARTCHAR U+0216
ENCODING 534
SWIDTH 500 0
DWIDTH 8 0
BBX 13 16 -2 -2
BITMAP 
01E0
0210
0210
0000
0420
0420
0840
0840
0840
1080
1080
1080
1100
0E00
0000
0000
ENDCHAR
STARTCHAR U+0217
ENCODING 535
SWIDTH 500 0
DWIDTH 8 0
BBX 13 16 -2 -2
BITMAP 
0000
0000
01C0
0220
0420
0000
0840
0840
0840
1080
1080
1080
1300
0D00
0000
0000
ENDCHAR
STARTCHAR U+0218
ENCODING 536
SWIDTH 500 0
DWIDTH 8 0
BBX 13 16 -2 -2
BITMAP 
0000
0000
0000
0000
0380
0440
0440
0200
0100
1080
1080
0F00
0000
0C00
0800
1000
ENDCHAR
STARTCHAR U+0219
ENCODING 537
SWIDTH 500 0
DWIDTH 8 0
BBX 13 16 -2 -2
BITMAP 
0000
0000
0000
0000
0000
0000
0780
0840
0600
0100
1080
0F00
0000
0C00
0800
1000
ENDCHAR
STARTCHAR U+021A
ENCODING 538
SWIDTH 500 0
DWIDTH 8 0
BBX 13 16 -2 -2
BITMAP 
0000
0000
0000
0000
07F0
0080
0100
0100
0100
0200
0200
0200
0000
0C00
0800
1000
ENDCHAR
STARTCHAR U+021B
ENCODING 539
SWIDTH 500 0
DWIDTH 8 0
BBX 13 16 -2 -2
BITMAP 
0000
0000
0000
0000
0100
0100
0F80
0200
0200
0400
0400
0300
0000
0C00
0800
1000
ENDCHAR
STARTCHAR U+021C
ENCODING 540
SWIDTH 500 0
DWIDTH 8 0
BBX 13 16 -2 -2
BITMAP 
0000
0000
0000
0000
0700
0480
0080
0100
0780
1880
0080
0100
0600
3800
0000
0000
ENDCHAR
STARTCHAR U+021D
ENCODING 541
SWIDTH 500 0
DWIDTH 8 0
BBX 13 16 -2 -2
BITMAP 
0000
0000
0000
0000
0000
0000
0E00
0100
0200
0400
0E00
1200
0200
0200
0C00
7000
ENDCHAR
STARTCHAR U+021E
ENCODING 542
SWIDTH 500 0
DWIDTH 8 0
BBX 13 16 -2 -2
BITMAP 
0120
00C0
0000
0000
0420
0420
0840
0840
0FC0
1080
1080
1080
2100
2100
0000
0000
ENDCHAR
STARTCHAR U+021F
ENCODING 543
SWIDTH 500 0
DWIDTH 8 0
BBX 13 16 -2 -2
BITMAP 
0240
0180
0000
0400
0400
0400
0B80
0C40
0840
1080
1080
1080
2100
2100
0000
0000
ENDCHAR
STARTCHAR U+0222
ENCODING 546
SWIDTH 500 0
DWIDTH 8 0
BBX 13 16 -2 -2
BITMAP 
0000
0000
0000
00C0
0420
0840
0840
0880
0F80
1080
2080
2080
2100
1E00
0000
0000
ENDCHAR
STARTCHAR U+0223
ENCODING 547
SWIDTH 500 0
DWIDTH 8 0
BBX 13 16 -2 -2
BITMAP 
0000
0000
0000
0000
0240
0440
0440
0480
0780
0880
1080
1080
1100
0E00
0000
0000
ENDCHAR
STARTCHAR U+0224
ENCODING 548
SWIDTH 500 0
DWIDTH 8 0
BBX 13 16 -2 -2
BITMAP 
0000
0000
0000
0000
07E0
0020
0040
0080
0300
0400
0800
1000
2000
3F00
0200
0400
ENDCHAR
STARTCHAR U+0225
ENCODING 549
SWIDTH 500 0
DWIDTH 8 0
BBX 13 16 -2 -2
BITMAP 
0000
0000
0000
0000
0000
0000
0FC0
0080
0100
0200
0400
0800
1000
3F00
0200
0400
ENDCHAR
STARTCHAR U+0226
ENCODING 550
SWIDTH 500 0
DWIDTH 8 0
BBX 13 16 -2 -2
BITMAP 
0080
0080
0000
0000
0100
0280
0480
0840
0840
1F80
1080
1080
2100
2100
0000
0000
ENDCHAR
STARTCHAR U+0227
ENCODING 551
SWIDTH 500 0
DWIDTH 8 0
BBX 13 16 -2 -2
BITMAP 
0000
0000
0080
0100
0000
0000
0780
0840
0040
0F80
1080
1080
1300
0D00
0000
0000
ENDCHAR
STARTCHAR U+0228
ENCODING 552
SWIDTH 500 0
DWIDTH 8 0
BBX 13 16 -2 -2
BITMAP 
0000
0000
0000
0000
07E0
0400
0800
0800
0F80
1000
1000
1000
2000
3F00
0C00
3000
ENDCHAR
STARTCHAR U+0229
ENCODING 553
SWIDTH 500 0
DWIDTH 8 0
BBX 13 16 -2 -2
BITMAP 
0000
0000
0000
0000
0000
0000
0780
0840
0840
1F80
1000
1000
1100
0E00
0C00
3000
ENDCHAR
STARTCHAR U+022A
ENCODING 554
SWIDTH 500 0
DWIDTH 8 0
BBX 13 16 -2 -2
BITMAP 
01E0
0000
0120
0000
0380
0440
0840
0840
0840
1080
1080
1080
1100
0E00
0000
0000
ENDCHAR
STARTCHAR U+022B
ENCODING 555
SWIDTH 500 0
DWIDTH 8 0
BBX 13 16 -2 -2
BITMAP 
0000
0000
01E0
0000
0240
0000
0780
0840
0840
1080
1080
1080
1100
0E00
0000
0000
ENDCHAR
STARTCHAR U+022C
ENCODING 556
SWIDTH 500 0
DWIDTH 8 0
BBX 13 16 -2 -2
BITMAP 
01E0
0000
0390
0440
0000
0380
0440
0840
0840
1080
1080
1080
1100
0E00
0000
0000
ENDCHAR
STARTCHAR U+022D
ENCODING 557
SWIDTH 500 0
DWIDTH 8 0
BBX 13 16 -2 -2
BITMAP 
0000
0000
01E0
0000
0320
04C0
0000
0700
0880
1080
1080
1080
1100
0E00
0000
0000
ENDCHAR
STARTCHAR U+022E
ENCODING 558
SWIDTH 500 0
DWIDTH 8 0
BBX 13 16 -2 -2
BITMAP 
0000
0080
0080
0000
0380
0440
0840
0840
0840
1080
1080
1080
1100
0E00
0000
0000
ENDCHAR
STARTCHAR U+022F
ENCODING 559
SWIDTH 500 0
DWIDTH 8 0
BBX 13 16 -2 -2
BITMAP 
0000
0000
0000
0100
0100
0000
0780
0840
0840
1080
1080
1080
1100
0E00
0000
0000
ENDCHAR
STARTCHAR U+0230
ENCODING 560
SWIDTH 500 0
DWIDTH 8 0
BBX 13 16 -2 -2
BITMAP 
01E0
0000
00C0
0000
0380
0440
0840
0840
0840
1080
1080
1080
1100
0E00
0000
0000
ENDCHAR
STARTCHAR U+0231
ENCODING 561
SWIDTH 500 0
DWIDTH 8 0
BBX 13 16 -2 -2
BITMAP 
0000
0000
01E0
0000
0180
0000
0780
0840
0840
1080
1080
1080
1100
0E00
0000
0000
ENDCHAR
STARTCHAR U+0232
ENCODING 562
SWIDTH 500 0
DWIDTH 8 0
BBX 13 16 -2 -2
BITMAP 
0000
01E0
0000
0000
0410
0420
0420
0440
0380
0200
0200
0200
0400
0400
0000
0000
ENDCHAR
STARTCHAR U+0233
ENCODING 563
SWIDTH 500 0
DWIDTH 8 0
BBX 13 16 -2 -2
BITMAP 
0000
0000
0000
03C0
0000
0000
0840
0840
0840
1080
1080
0B80
0500
0100
0200
3C00
ENDCHAR
STARTCHAR U+0250
ENCODING 592
SWIDTH 500 0
DWIDTH 8 0
BBX 13 16 -2 -2
BITMAP 
0000
0000
0000
0000
0000
0000
0B80
0C40
0840
1080
1F00
1000
1100
0E00
0000
0000
ENDCHAR
STARTCHAR U+0251
ENCODING 593
SWIDTH 500 0
DWIDTH 8 0
BBX 13 16 -2 -2
BITMAP 
0000
0000
0000
0000
0000
0000
0740
08C0
0840
1080
1080
1380
1500
0900
0000
0000
ENDCHAR
STARTCHAR U+0252
ENCODING 594
SWIDTH 500 0
DWIDTH 8 0
BBX 13 16 -2 -2
BITMAP 
0000
0000
0000
0000
0000
0000
0980
0A40
0C40
1080
1080
1080
3100
2E00
0000
0000
ENDCHAR
STARTCHAR U+0253
ENCODING 595
SWIDTH 500 0
DWIDTH 8 0
BBX 13 16 -2 -2
BITMAP 
0000
0000
0000
0380
0400
0400
0B80
0C40
0840
1080
1080
1080
3100
2E00
0000
0000
ENDCHAR
STARTCHAR U+0254
ENCODING 596
SWIDTH 500 0
DWIDTH 8 0
BBX 13 16 -2 -2
BITMAP 
0000
0000
0000
0000
0000
0000
0780
0840
0040
0080
0080
0080
2100
1E00
0000
0000
ENDCHAR
STARTCHAR U+0255
ENCODING 597
SWIDTH 500 0
DWIDTH 8 0
BBX 13 16 -2 -2
BITMAP 
0000
0000
0000
0000
0000
0000
0780
0840
0800
1000
1000
1600
1900
1E00
2000
0000
ENDCHAR
STARTCHAR U+0256
ENCODING 598
SWIDTH 500 0
DWIDTH 8 0
BBX 13 16 -2 -2
BITMAP 
0000
0000
0000
0040
0040
0040
0680
0980
0880
1100
1100
1100
1600
0A00
0180
0000
ENDCHAR
STARTCHAR U+0257
ENCODING 599
SWIDTH 500 0
DWIDTH 8 0
BBX 13 16 -2 -2
BITMAP 
0000
0000
0000
0030
0040
0040
0680
0980
0880
1100
1100
1100
1600
0A00
0000
0000
ENDCHAR
STARTCHAR U+0258
ENCODING 600
SWIDTH 500 0
DWIDTH 8 0
BBX 13 16 -2 -2
BITMAP 
0000
0000
0000
0000
0000
0000
0780
0840
0840
1F80
0080
0080
2100
1E00
0000
0000
ENDCHAR
STARTCHAR U+0259
ENCODING 601
SWIDTH 500 0
DWIDTH 8 0
BBX 13 16 -2 -2
BITMAP 
0000
0000
0000
0000
0000
0000
0780
0840
0040
0080
1F80
1080
1100
0E00
0000
0000
ENDCHAR
STARTCHAR U+025A
ENCODING 602
SWIDTH 500 0
DWIDTH 8 0
BBX 13 16 -2 -2
BITMAP 
0000
0000
0000
0000
0000
0000
0700
08C0
03C0
0D40
1100
1100
1200
0C00
0000
0000
ENDCHAR
STARTCHAR U+025B
ENCODING 603
SWIDTH 500 0
DWIDTH 8 0
BBX 13 16 -2 -2
BITMAP 
0000
0000
0000
0000
0000
0000
0780
0840
0800
0F00
1000
1000
1100
0E00
0000
0000
ENDCHAR
STARTCHAR U+025C
ENCODING 604
SWIDTH 500 0
DWIDTH 8 0
BBX 13 16 -2 -2
BITMAP 
0000
0000
0000
0000
0000
0000
0780
0840
0080
0F00
0080
0080
2100
1E00
0000
0000
ENDCHAR
STARTCHAR U+025D
ENCODING 605
SWIDTH 500 0
DWIDTH 8 0
BBX 13 16 -2 -2
BITMAP 
0000
0000
0000
0000
0000
0000
0E80
11A0
0240
1C00
0200
0200
4400
3800
0000
0000
ENDCHAR
STARTCHAR U+025E
ENCODING 606
SWIDTH 500 0
DWIDTH 8 0
BBX 13 16 -2 -2
BITMAP 
0000
0000
0000
0000
0000
0000
0780
0840
0880
1700
1080
1080
1100
0E00
0000
0000
ENDCHAR
STARTCHAR U+025F
ENCODING 607
SWIDTH 500 0
DWIDTH 8 0
BBX 13 16 -2 -2
BITMAP 
0000
0000
0000
0000
0000
0000
0180
0080
0080
0100
07C0
0100
0200
0200
2C00
3000
ENDCHAR
STARTCHAR U+0260
ENCODING 608
SWIDTH 500 0
DWIDTH 8 0
BBX 13 16 -2 -2
BITMAP 
0000
0000
0000
0000
0000
0070
07A0
0880
0880
0900
0E00
1000
1E00
2100
2200
1C00
ENDCHAR
STARTCHAR U+0261
ENCODING 609
SWIDTH 500 0
DWIDTH 8 0
BBX 13 16 -2 -2
BITMAP 
0000
0000
0000
0000
0000
0000
0740
08C0
0840
1080
1080
1380
0D00
0100
2200
1C00
ENDCHAR
STARTCHAR U+0262
ENCODING 610
SWIDTH 500 0
DWIDTH 8 0
BBX 13 16 -2 -2
BITMAP 
0000
0000
0000
0000
0000
0000
0780
0840
0800
1000
1380
1080
1100
0F00
0000
0000
ENDCHAR
STARTCHAR U+0263
ENCODING 611
SWIDTH 500 0
DWIDTH 8 0
BBX 13 16 -2 -2
BITMAP 
0000
0000
0000
0000
0000
0000
0840
0840
0880
0880
0900
0A00
0C00
1200
1400
1800
ENDCHAR
STARTCHAR U+0264
ENCODING 612
SWIDTH 500 0
DWIDTH 8 0
BBX 13 16 -2 -2
BITMAP 
0000
0000
0000
0000
0000
0000
0840
0840
0880
0900
0600
0E00
1200
0C00
0000
0000
ENDCHAR
STARTCHAR U+0265
ENCODING 613
SWIDTH 500 0
DWIDTH 8 0
BBX 13 16 -2 -2
BITMAP 
0000
0000
0000
0000
0000
0420
0840
0840
0840
1080
1080
1380
0D00
0100
0100
0200
ENDCHAR
STARTCHAR U+0266
ENCODING 614
SWIDTH 500 0
DWIDTH 8 0
BBX 13 16 -2 -2
BITMAP 
0000
0000
0000
0380
0400
0400
0B80
0C40
0840
1080
1080
1080
2100
2100
0000
0000
ENDCHAR
STARTCHAR U+0267
ENCODING 615
SWIDTH 500 0
DWIDTH 8 0
BBX 13 16 -2 -2
BITMAP 
0000
0000
0000
0380
0400
0400
0B80
0C40
0840
1080
1080
1080
2100
2600
0000
0000
ENDCHAR
STARTCHAR U+0268
ENCODING 616
SWIDTH 500 0
DWIDTH 8 0
BBX 13 16 -2 -2
BITMAP 
0000
0000
0000
0080
0080
0000
0300
0100
0100
0F80
0200
0200
0400
1F00
0000
0000
ENDCHAR
STARTCHAR U+0269
ENCODING 617
SWIDTH 500 0
DWIDTH 8 0
BBX 13 16 -2 -2
BITMAP 
0000
0000
0000
0000
0000
0000
0200
0200
0200
0400
0400
0400
0400
0200
0000
0000
ENDCHAR
STARTCHAR U+026A
ENCODING 618
SWIDTH 500 0
DWIDTH 8 0
BBX 13 16 -2 -2
BITMAP 
0000
0000
0000
0000
0000
0000
07C0
0100
0100
0200
0200
0200
0400
1F00
0000
0000
ENDCHAR
STARTCHAR U+026B
ENCODING 619
SWIDTH 500 0
DWIDTH 8 0
BBX 13 16 -2 -2
BITMAP 
0000
0000
0000
0000
0180
0080
0100
0100
0F40
1300
0200
0200
0400
1F00
0000
0000
ENDCHAR
STARTCHAR U+026C
ENCODING 620
SWIDTH 500 0
DWIDTH 8 0
BBX 13 16 -2 -2
BITMAP 
0000
0000
0000
0000
0180
0080
0100
0700
0900
0780
0200
0200
0400
1F00
0000
0000
ENDCHAR
STARTCHAR U+026D
ENCODING 621
SWIDTH 500 0
DWIDTH 8 0
BBX 13 16 -2 -2
BITMAP 
0000
0000
0000
0000
0180
0080
0100
0100
0100
0200
0200
0200
0400
0400
0300
0000
ENDCHAR
STARTCHAR U+026E
ENCODING 622
SWIDTH 500 0
DWIDTH 8 0
BBX 13 16 -2 -2
BITMAP 
0000
0000
0000
0000
0300
0100
03E0
0240
0280
0500
0580
0480
0880
3E80
0500
0600
ENDCHAR
STARTCHAR U+026F
ENCODING 623
SWIDTH 500 0
DWIDTH 8 0
BBX 13 16 -2 -2
BITMAP 
0000
0000
0000
0000
0000
0000
0920
0920
0920
1240
1240
1240
1280
0B80
0000
0000
ENDCHAR
STARTCHAR U+0270
ENCODING 624
SWIDTH 500 0
DWIDTH 8 0
BBX 13 16 -2 -2
BITMAP 
0000
0000
0000
0000
0000
0000
0920
0920
0920
1240
1240
1240
1280
0B80
0080
0100
ENDCHAR
STARTCHAR U+0271
ENCODING 625
SWIDTH 500 0
DWIDTH 8 0
BBX 13 16 -2 -2
BITMAP 
0000
0000
0000
0000
0000
0000
0EC0
0920
0920
1240
1240
1240
2480
2080
0300
0000
ENDCHAR
STARTCHAR U+0272
ENCODING 626
SWIDTH 500 0
DWIDTH 8 0
BBX 13 16 -2 -2
BITMAP 
0000
0000
0000
0000
0000
0000
02C0
0320
0220
0440
0440
0440
0880
0880
3000
0000
ENDCHAR
STARTCHAR U+0273
ENCODING 627
SWIDTH 500 0
DWIDTH 8 0
BBX 13 16 -2 -2
BITMAP 
0000
0000
0000
0000
0000
0000
0B00
0C80
0880
1100
1100
1100
2200
2200
0180
0000
ENDCHAR
STARTCHAR U+0274
ENCODING 628
SWIDTH 500 0
DWIDTH 8 0
BBX 13 16 -2 -2
BITMAP 
0000
0000
0000
0000
0000
0000
0840
0840
0C40
1480
1280
1180
2100
2100
0000
0000
ENDCHAR
STARTCHAR U+0275
ENCODING 629
SWIDTH 500 0
DWIDTH 8 0
BBX 13 16 -2 -2
BITMAP 
0000
0000
0000
0000
0000
0000
0780
0840
0840
1F80
1080
1080
1100
0E00
0000
0000
ENDCHAR
STARTCHAR U+0276
ENCODING 630
SWIDTH 500 0
DWIDTH 8 0
BBX 13 16 -2 -2
BITMAP 
0000
0000
0000
0000
0000
0000
06E0
0900
0900
1380
1200
1200
1200
0B80
0000
0000
ENDCHAR
STARTCHAR U+0277
ENCODING 631
SWIDTH 500 0
DWIDTH 8 0
BBX 13 16 -2 -2
BITMAP 
0000
0000
0000
0000
0000
0000
07C0
0820
0820
1240
1240
1240
1280
0B00
0000
0000
ENDCHAR
STARTCHAR U+0278
ENCODING 632
SWIDTH 500 0
DWIDTH 8 0
BBX 13 16 -2 -2
BITMAP 
0000
0000
0000
0000
0080
0080
07C0
0920
0920
1240
1240
1240
1480
0F00
0400
0800
ENDCHAR
STARTCHAR U+0279
ENCODING 633
SWIDTH 500 0
DWIDTH 8 0
BBX 13 16 -2 -2
BITMAP 
0000
0000
0000
0000
0000
0000
0040
0040
0040
0080
0080
1080
1300
0D00
0000
0000
ENDCHAR
STARTCHAR U+027A
ENCODING 634
SWIDTH 500 0
DWIDTH 8 0
BBX 13 16 -2 -2
BITMAP 
0000
0000
0000
0000
0020
0020
0040
0040
0040
0080
0080
1080
1300
0D00
0000
0000
ENDCHAR
STARTCHAR U+027B
ENCODING 635
SWIDTH 500 0
DWIDTH 8 0
BBX 13 16 -2 -2
BITMAP 
0000
0000
0000
0000
0000
0000
0080
0080
0080
0100
0100
1100
1600
0A00
0180
0000
ENDCHAR
STARTCHAR U+027C
ENCODING 636
SWIDTH 500 0
DWIDTH 8 0
BBX 13 16 -2 -2
BITMAP 
0000
0000
0000
0000
0000
0000
0B80
0C40
0840
1000
1000
1000
2000
2000
2000
4000
ENDCHAR
STARTCHAR U+027D
ENCODING 637
SWIDTH 500 0
DWIDTH 8 0
BBX 13 16 -2 -2
BITMAP 
0000
0000
0000
0000
0000
0000
0B80
0C40
0840
1000
1000
1000
2000
2000
1800
0000
ENDCHAR
STARTCHAR U+027E
ENCODING 638
SWIDTH 500 0
DWIDTH 8 0
BBX 13 16 -2 -2
BITMAP 
0000
0000
0000
0000
0000
0000
0780
0840
0840
1000
1000
1000
2000
2000
0000
0000
ENDCHAR
STARTCHAR U+027F
ENCODING 639
SWIDTH 500 0
DWIDTH 8 0
BBX 13 16 -2 -2
BITMAP 
0000
0000
0000
0000
0000
0000
0780
0840
0840
0080
0080
0080
0100
0100
0000
0000
ENDCHAR
STARTCHAR U+0280
ENCODING 640
SWIDTH 500 0
DWIDTH 8 0
BBX 13 16 -2 -2
BITMAP 
0000
0000
0000
0000
0000
0000
0F80
0840
0880
1E80
1100
1100
2100
2100
0000
0000
ENDCHAR
STARTCHAR U+0281
ENCODING 641
SWIDTH 500 0
DWIDTH 8 0
BBX 13 16 -2 -2
BITMAP 
0000
0000
0000
0000
0000
0000
0840
0840
0880
1080
1F00
1100
2100
3E00
0000
0000
ENDCHAR
STARTCHAR U+0282
ENCODING 642
SWIDTH 500 0
DWIDTH 8 0
BBX 13 16 -2 -2
BITMAP 
0000
0000
0000
0000
0000
0000
0780
0840
0800
0400
0200
0100
2100
3E00
2000
1000
ENDCHAR
STARTCHAR U+0283
ENCODING 643
SWIDTH 500 0
DWIDTH 8 0
BBX 13 16 -2 -2
BITMAP 
0000
0000
0000
00C0
0100
0100
0200
0200
0200
0400
0400
0400
0800
0800
3000
0000
ENDCHAR
STARTCHAR U+0284
ENCODING 644
SWIDTH 500 0
DWIDTH 8 0
BBX 13 16 -2 -2
BITMAP 
0000
0000
0000
00C0
0100
0100
0200
0F80
0200
0400
1F00
0400
0800
0800
3000
0000
ENDCHAR
STARTCHAR U+0285
ENCODING 645
SWIDTH 500 0
DWIDTH 8 0
BBX 13 16 -2 -2
BITMAP 
0000
0000
0000
0000
0000
0000
0C00
0200
0200
0400
0400
0400
0800
0800
0600
0000
ENDCHAR
STARTCHAR U+0286
ENCODING 646
SWIDTH 500 0
DWIDTH 8 0
BBX 13 16 -2 -2
BITMAP 
0000
0000
0000
0060
0080
0080
0100
0100
0100
0200
0200
0200
1C00
2700
1800
0000
ENDCHAR
STARTCHAR U+0287
ENCODING 647
SWIDTH 500 0
DWIDTH 8 0
BBX 13 16 -2 -2
BITMAP 
0000
0000
0000
0000
0400
0200
0200
0200
0200
0400
0400
1F00
0800
0800
0000
0000
ENDCHAR
STARTCHAR U+0288
ENCODING 648
SWIDTH 500 0
DWIDTH 8 0
BBX 13 16 -2 -2
BITMAP 
0000
0000
0000
0000
0100
0100
0F80
0200
0200
0400
0400
0400
0800
0800
0700
0000
ENDCHAR
STARTCHAR U+0289
ENCODING 649
SWIDTH 500 0
DWIDTH 8 0
BBX 13 16 -2 -2
BITMAP 
0000
0000
0000
0000
0000
0000
0440
0440
0440
1FC0
0880
0880
0B00
0500
0000
0000
ENDCHAR
STARTCHAR U+028A
ENCODING 650
SWIDTH 500 0
DWIDTH 8 0
BBX 13 16 -2 -2
BITMAP 
0000
0000
0000
0000
0000
0000
0840
0480
0880
1080
1080
1100
1200
0C00
0000
0000
ENDCHAR
STARTCHAR U+028B
ENCODING 651
SWIDTH 500 0
DWIDTH 8 0
BBX 13 16 -2 -2
BITMAP 
0000
0000
0000
0000
0000
0000
0980
0840
0840
1080
1080
1100
1600
0800
0000
0000
ENDCHAR
STARTCHAR U+028C
ENCODING 652
SWIDTH 500 0
DWIDTH 8 0
BBX 13 16 -2 -2
BITMAP 
0000
0000
0000
0000
0000
0000
0300
0300
0500
0900
0900
1100
2100
2100
0000
0000
ENDCHAR
STARTCHAR U+028D
ENCODING 653
SWIDTH 500 0
DWIDTH 8 0
BBX 13 16 -2 -2
BITMAP 
0000
0000
0000
0000
0000
0000
06C0
0920
0920
1240
1240
1240
2480
2080
0000
0000
ENDCHAR
STARTCHAR U+028E
ENCODING 654
SWIDTH 500 0
DWIDTH 8 0
BBX 13 16 -2 -2
BITMAP 
0000
0000
0000
0000
0000
0000
0780
0800
0800
1600
1900
1100
2100
2100
2100
4200
ENDCHAR
STARTCHAR U+028F
ENCODING 655
SWIDTH 500 0
DWIDTH 8 0
BBX 13 16 -2 -2
BITMAP 
0000
0000
0000
0000
0000
0000
0820
0820
0440
0580
0200
0200
0400
0400
0000
0000
ENDCHAR
STARTCHAR U+0290
ENCODING 656
SWIDTH 500 0
DWIDTH 8 0
BBX 13 16 -2 -2
BITMAP 
0000
0000
0000
0000
0000
0000
0F80
0100
0200
0200
0400
0800
1000
3E00
0200
0100
ENDCHAR
STARTCHAR U+0291
ENCODING 657
SWIDTH 500 0
DWIDTH 8 0
BBX 13 16 -2 -2
BITMAP 
0000
0000
0000
0000
0000
0000
0FC0
0080
0100
0200
0400
0B00
1480
3F00
0800
0000
ENDCHAR
STARTCHAR U+0292
ENCODING 658
SWIDTH 500 0
DWIDTH 8 0
BBX 13 16 -2 -2
BITMAP 
0000
0000
0000
0000
0000
0000
07C0
0080
0100
0200
0700
0100
0100
0100
2200
1C00
ENDCHAR
STARTCHAR U+0293
ENCODING 659
SWIDTH 500 0
DWIDTH 8 0
BBX 13 16 -2 -2
BITMAP 
0000
0000
0000
0000
0000
0000
07C0
0080
0100
0200
0700
0100
0100
1900
2600
1C00
ENDCHAR
STARTCHAR U+0294
ENCODING 660
SWIDTH 500 0
DWIDTH 8 0
BBX 13 16 -2 -2
BITMAP 
0000
0000
0000
0000
0380
0440
0840
0040
0080
0100
0200
0200
0400
0400
0000
0000
ENDCHAR
STARTCHAR U+0295
ENCODING 661
SWIDTH 500 0
DWIDTH 8 0
BBX 13 16 -2 -2
BITMAP 
0000
0000
0000
0000
0380
0440
0840
0800
0400
0400
0400
0400
0800
0800
0000
0000
ENDCHAR
STARTCHAR U+0296
ENCODING 662
SWIDTH 500 0
DWIDTH 8 0
BBX 13 16 -2 -2
BITMAP 
0000
0000
0000
0000
0080
0080
0100
0100
0100
0100
0080
1080
1100
0E00
0000
0000
ENDCHAR
STARTCHAR U+0297
ENCODING 663
SWIDTH 500 0
DWIDTH 8 0
BBX 13 16 -2 -2
BITMAP 
0000
0000
0000
0000
0000
0000
0780
0840
0800
1000
1000
1000
2000
2000
2300
1C00
ENDCHAR
STARTCHAR U+0298
ENCODING 664
SWIDTH 500 0
DWIDTH 8 0
BBX 13 16 -2 -2
BITMAP 
0000
0000
0000
0000
0000
0000
0780
0840
0840
1680
1680
1080
1100
0E00
0000
0000
ENDCHAR
STARTCHAR U+0299
ENCODING 665
SWIDTH 500 0
DWIDTH 8 0
BBX 13 16 -2 -2
BITMAP 
0000
0000
0000
0000
0000
0000
0F80
0840
0880
1F00
1080
1080
2100
3E00
0000
0000
ENDCHAR
STARTCHAR U+029A
ENCODING 666
SWIDTH 500 0
DWIDTH 8 0
BBX 13 16 -2 -2
BITMAP 
0000
0000
0000
0000
0000
0000
0780
0840
0840
0E80
1080
1080
1100
0E00
0000
0000
ENDCHAR
STARTCHAR U+029B
ENCODING 667
SWIDTH 500 0
DWIDTH 8 0
BBX 13 16 -2 -2
BITMAP 
0000
0000
0000
0000
0000
0000
0760
0880
0800
1000
1300
1100
1200
0E00
0000
0000
ENDCHAR
STARTCHAR U+029C
ENCODING 668
SWIDTH 500 0
DWIDTH 8 0
BBX 13 16 -2 -2
BITMAP 
0000
0000
0000
0000
0000
0000
0440
0440
0440
0F80
0880
0880
1100
1100
0000
0000
ENDCHAR
STARTCHAR U+029D
ENCODING 669
SWIDTH 500 0
DWIDTH 8 0
BBX 13 16 -2 -2
BITMAP 
0000
0000
0000
0040
0040
0000
0180
0080
0080
0100
0100
0100
0200
1F00
2C00
1000
ENDCHAR
STARTCHAR U+029E
ENCODING 670
SWIDTH 500 0
DWIDTH 8 0
BBX 13 16 -2 -2
BITMAP 
0000
0000
0000
0000
0000
0000
0840
0440
0240
0280
0180
0680
0900
1100
0100
0200
ENDCHAR
STARTCHAR U+029F
ENCODING 671
SWIDTH 500 0
DWIDTH 8 0
BBX 13 16 -2 -2
BITMAP 
0000
0000
0000
0000
0000
0000
0800
0800
0800
1000
1000
1000
2000
3F00
0000
0000
ENDCHAR
STARTCHAR U+02A0
ENCODING 672
SWIDTH 500 0
DWIDTH 8 0
BBX 13 16 -2 -2
BITMAP 
0000
0000
0000
0000
0000
0030
0640
0980
0880
1100
1100
1100
1600
0A00
0200
0400
ENDCHAR
STARTCHAR U+02A1
ENCODING 673
SWIDTH 500 0
DWIDTH 8 0
BBX 13 16 -2 -2
BITMAP 
0000
0000
0000
0000
0380
0440
0840
0040
0080
0100
0200
0F80
0400
0400
0000
0000
ENDCHAR
STARTCHAR U+02A2
ENCODING 674
SWIDTH 500 0
DWIDTH 8 0
BBX 13 16 -2 -2
BITMAP 
0000
0000
0000
0000
0380
0440
0840
0800
0400
0400
0400
1F00
0800
0800
0000
0000
ENDCHAR
STARTCHAR U+02A3
ENCODING 675
SWIDTH 500 0
DWIDTH 8 0
BBX 13 16 -2 -2
BITMAP 
0000
0000
0000
0100
0100
0100
07E0
0A20
0A40
1480
1500
1600
1C00
0F80
0000
0000
ENDCHAR
STARTCHAR U+02A4
ENCODING 676
SWIDTH 500 0
DWIDTH 8 0
BBX 13 16 -2 -2
BITMAP 
0000
0000
0000
0100
0100
0100
07E0
0A40
0A80
1500
1580
1480
1880
0880
0500
0600
ENDCHAR
STARTCHAR U+02A5
ENCODING 677
SWIDTH 500 0
DWIDTH 8 0
BBX 13 16 -2 -2
BITMAP 
0000
0000
0000
0100
0100
0100
07E0
0A40
0A80
1500
1600
1780
1A80
0F00
0200
0000
ENDCHAR
STARTCHAR U+02A6
ENCODING 678
SWIDTH 500 0
DWIDTH 8 0
BBX 13 16 -2 -2
BITMAP 
0000
0000
0000
0000
0200
0200
0EC0
0500
0500
0900
0880
0880
0880
0700
0000
0000
ENDCHAR
STARTCHAR U+02A7
ENCODING 679
SWIDTH 500 0
DWIDTH 8 0
BBX 13 16 -2 -2
BITMAP 
0000
0000
0000
0030
0240
0240
0F80
0480
0480
0900
0900
0900
0A00
0600
0600
1800
ENDCHAR
STARTCHAR U+02A8
ENCODING 680
SWIDTH 500 0
DWIDTH 8 0
BBX 13 16 -2 -2
BITMAP 
0000
0000
0000
0000
0200
0200
0EC0
0520
0500
0A00
0A00
0B80
0E80
0700
0200
0000
ENDCHAR
STARTCHAR U+02A9
ENCODING 681
SWIDTH 500 0
DWIDTH 8 0
BBX 13 16 -2 -2
BITMAP 
0000
0000
0000
0180
0200
0200
0400
0F60
05A0
0A40
0A40
0A40
1480
1480
0100
0600
ENDCHAR
STARTCHAR U+02AA
ENCODING 682
SWIDTH 500 0
DWIDTH 8 0
BBX 13 16 -2 -2
BITMAP 
0000
0000
0000
0000
0600
0200
04C0
0520
0500
0900
0880
0880
1480
3B00
0000
0000
ENDCHAR
STARTCHAR U+02AB
ENCODING 683
SWIDTH 500 0
DWIDTH 8 0
BBX 13 16 -2 -2
BITMAP 
0000
0000
0000
0000
0600
0200
05E0
0420
0440
0880
0900
0A00
1400
3F80
0000
0000
ENDCHAR
STARTCHAR U+02AC
ENCODING 684
SWIDTH 500 0
DWIDTH 8 0
BBX 13 16 -2 -2
BITMAP 
0000
0000
0000
0410
0490
0490
04A0
02C0
0000
1040
1240
1240
1280
0B00
0000
0000
ENDCHAR
STARTCHAR U+02AD
ENCODING 685
SWIDTH 500 0
DWIDTH 8 0
BBX 13 16 -2 -2
BITMAP 
0000
0000
0000
0000
07F0
0410
0820
0820
0000
0000
1FC0
1040
2080
2080
0000
0000
ENDCHAR
STARTCHAR U+02B0
ENCODING 688
SWIDTH 500 0
DWIDTH 8 0
BBX 13 16 -2 -2
BITMAP 
0000
0000
0000
0000
0200
0380
0680
0480
0480
0000
0000
0000
0000
0000
0000
0000
ENDCHAR
STARTCHAR U+02B1
ENCODING 689
SWIDTH 500 0
DWIDTH 8 0
BBX 13 16 -2 -2
BITMAP 
0000
0000
0000
0180
0200
0380
0680
0480
0480
0000
0000
0000
0000
0000
0000
0000
ENDCHAR
STARTCHAR U+02B2
ENCODING 690
SWIDTH 500 0
DWIDTH 8 0
BBX 13 16 -2 -2
BITMAP 
0000
0000
0000
0080
0000
0080
0100
0500
0200
0000
0000
0000
0000
0000
0000
0000
ENDCHAR
STARTCHAR U+02B3
ENCODING 691
SWIDTH 500 0
DWIDTH 8 0
BBX 13 16 -2 -2
BITMAP 
0000
0000
0000
0000
0280
0340
0400
0400
0400
0000
0000
0000
0000
0000
0000
0000
ENDCHAR
STARTCHAR U+02B4
ENCODING 692
SWIDTH 500 0
DWIDTH 8 0
BBX 13 16 -2 -2
BITMAP 
0000
0000
0000
0000
0080
0080
0100
0B00
0500
0000
0000
0000
0000
0000
0000
0000
ENDCHAR
STARTCHAR U+02B5
ENCODING 693
SWIDTH 500 0
DWIDTH 8 0
BBX 13 16 -2 -2
BITMAP 
0000
0000
0000
0000
0080
0080
0100
0B00
0540
0180
0000
0000
0000
0000
0000
0000
ENDCHAR
STARTCHAR U+02B6
ENCODING 694
SWIDTH 500 0
DWIDTH 8 0
BBX 13 16 -2 -2
BITMAP 
0000
0000
0000
0000
0440
0580
0E00
0900
0E00
0000
0000
0000
0000
0000
0000
0000
ENDCHAR
STARTCHAR U+02B7
ENCODING 695
SWIDTH 500 0
DWIDTH 8 0
BBX 13 16 -2 -2
BITMAP 
0000
0000
0000
0000
0820
0920
0940
0580
0000
0000
0000
0000
0000
0000
0000
0000
ENDCHAR
STARTCHAR U+02B8
ENCODING 696
SWIDTH 500 0
DWIDTH 8 0
BBX 13 16 -2 -2
BITMAP 
0000
0000
0000
0000
0440
0380
0200
0400
0800
0000
0000
0000
0000
0000
0000
0000
ENDCHAR
STARTCHAR U+02B9
ENCODING 697
SWIDTH 500 0
DWIDTH 8 0
BBX 13 16 -2 -2
BITMAP 
0000
0000
0000
0000
0100
0200
0400
0000
0000
0000
0000
0000
0000
0000
0000
0000
ENDCHAR
STARTCHAR U+02BA
ENCODING 698
SWIDTH 500 0
DWIDTH 8 0
BBX 13 16 -2 -2
BITMAP 
0000
0000
0000
0000
0140
0380
0500
0000
0000
0000
0000
0000
0000
0000
0000
0000
ENDCHAR
STARTCHAR U+02BB
ENCODING 699
SWIDTH 500 0
DWIDTH 8 0
BBX 13 16 -2 -2
BITMAP 
0000
0000
0040
0080
0100
0180
0000
0000
0000
0000
0000
0000
0000
0000
0000
0000
ENDCHAR
STARTCHAR U+02BC
ENCODING 700
SWIDTH 500 0
DWIDTH 8 0
BBX 13 16 -2 -2
BITMAP 
0000
0000
00C0
0080
0080
0100
0000
0000
0000
0000
0000
0000
0000
0000
0000
0000
ENDCHAR
STARTCHAR U+02BD
ENCODING 701
SWIDTH 500 0
DWIDTH 8 0
BBX 13 16 -2 -2
BITMAP 
0000
0000
00C0
0100
0100
0080
0000
0000
0000
0000
0000
0000
0000
0000
0000
0000
ENDCHAR
STARTCHAR U+02BE
ENCODING 702
SWIDTH 500 0
DWIDTH 8 0
BBX 13 16 -2 -2
BITMAP 
0000
0000
0000
0180
0040
0080
0300
0000
0000
0000
0000
0000
0000
0000
0000
0000
ENDCHAR
STARTCHAR U+02BF
ENCODING 703
SWIDTH 500 0
DWIDTH 8 0
BBX 13 16 -2 -2
BITMAP 
0000
0000
0000
0180
0200
0200
0100
0000
0000
0000
0000
0000
0000
0000
0000
0000
ENDCHAR
STARTCHAR U+02C0
ENCODING 704
SWIDTH 500 0
DWIDTH 8 0
BBX 13 16 -2 -2
BITMAP 
0380
0440
0440
0080
0300
0200
0400
0400
0000
0000
0000
0000
0000
0000
0000
0000
ENDCHAR
STARTCHAR U+02C1
ENCODING 705
SWIDTH 500 0
DWIDTH 8 0
BBX 13 16 -2 -2
BITMAP 
0380
0440
0440
0400
0200
0200
0400
0400
0000
0000
0000
0000
0000
0000
0000
0000
ENDCHAR
STARTCHAR U+02C2
ENCODING 706
SWIDTH 500 0
DWIDTH 8 0
BBX 13 16 -2 -2
BITMAP 
0000
0000
0000
0080
0100
0200
0200
0100
0000
0000
0000
0000
0000
0000
0000
0000
ENDCHAR
STARTCHAR U+02C3
ENCODING 707
SWIDTH 500 0
DWIDTH 8 0
BBX 13 16 -2 -2
BITMAP 
0000
0000
0000
0200
0100
0180
0200
0400
0000
0000
0000
0000
0000
0000
0000
0000
ENDCHAR
STARTCHAR U+02C4
ENCODING 708
SWIDTH 500 0
DWIDTH 8 0
BBX 13 16 -2 -2
BITMAP 
0000
0000
0000
0100
0280
0440
0000
0000
0000
0000
0000
0000
0000
0000
0000
0000
ENDCHAR
STARTCHAR U+02C5
ENCODING 709
SWIDTH 500 0
DWIDTH 8 0
BBX 13 16 -2 -2
BITMAP 
0000
0000
0000
0440
0280
0100
0000
0000
0000
0000
0000
0000
0000
0000
0000
0000
ENDCHAR
STARTCHAR U+02C6
ENCODING 710
SWIDTH 500 0
DWIDTH 8 0
BBX 13 16 -2 -2
BITMAP 
00C0
0120
0000
0000
0000
0000
0000
0000
0000
0000
0000
0000
0000
0000
0000
0000
ENDCHAR
STARTCHAR U+02C7
ENCODING 711
SWIDTH 500 0
DWIDTH 8 0
BBX 13 16 -2 -2
BITMAP 
0000
0000
0000
0240
0180
0000
0000
0000
0000
0000
0000
0000
0000
0000
0000
0000
ENDCHAR
STARTCHAR U+02C8
ENCODING 712
SWIDTH 500 0
DWIDTH 8 0
BBX 13 16 -2 -2
BITMAP 
0000
0000
0000
0080
0080
0080
0000
0000
0000
0000
0000
0000
0000
0000
0000
0000
ENDCHAR
STARTCHAR U+02C9
ENCODING 713
SWIDTH 500 0
DWIDTH 8 0
BBX 13 16 -2 -2
BITMAP 
0000
0000
0000
03C0
0000
0000
0000
0000
0000
0000
0000
0000
0000
0000
0000
0000
ENDCHAR
STARTCHAR U+02CA
ENCODING 714
SWIDTH 500 0
DWIDTH 8 0
BBX 13 16 -2 -2
BITMAP 
0000
0000
0000
00C0
0300
0000
0000
0000
0000
0000
0000
0000
0000
0000
0000
0000
ENDCHAR
STARTCHAR U+02CB
ENCODING 715
SWIDTH 500 0
DWIDTH 8 0
BBX 13 16 -2 -2
BITMAP 
0000
0000
0000
0300
00C0
0000
0000
0000
0000
0000
0000
0000
0000
0000
0000
0000
ENDCHAR
STARTCHAR U+02CC
ENCODING 716
SWIDTH 500 0
DWIDTH 8 0
BBX 13 16 -2 -2
BITMAP 
0000
0000
0000
0000
0000
0000
0000
0000
0000
0000
0800
0800
1000
0000
0000
0000
ENDCHAR
STARTCHAR U+02CD
ENCODING 717
SWIDTH 500 0
DWIDTH 8 0
BBX 13 16 -2 -2
BITMAP 
0000
0000
0000
0000
0000
0000
0000
0000
0000
0000
0000
0000
0000
0000
1C00
0000
ENDCHAR
STARTCHAR U+02CE
ENCODING 718
SWIDTH 500 0
DWIDTH 8 0
BBX 13 16 -2 -2
BITMAP 
0000
0000
0000
0000
0000
0000
0000
0000
0000
0000
0000
0000
0000
0800
0400
0000
ENDCHAR
STARTCHAR U+02CF
ENCODING 719
SWIDTH 500 0
DWIDTH 8 0
BBX 13 16 -2 -2
BITMAP 
0000
0000
0000
0000
0000
0000
0000
0000
0000
0000
0000
0000
0000
0800
1000
0000
ENDCHAR
STARTCHAR U+02D0
ENCODING 720
SWIDTH 500 0
DWIDTH 8 0
BBX 13 16 -2 -2
BITMAP 
0000
0000
0000
0000
0000
0000
0700
0200
0000
0000
0000
0400
1C00
0000
0000
0000
ENDCHAR
STARTCHAR U+02D1
ENCODING 721
SWIDTH 500 0
DWIDTH 8 0
BBX 13 16 -2 -2
BITMAP 
0000
0000
0000
0000
0000
0000
0700
0200
0000
0000
0000
0000
0000
0000
0000
0000
ENDCHAR
STARTCHAR U+02D2
ENCODING 722
SWIDTH 500 0
DWIDTH 8 0
BBX 13 16 -2 -2
BITMAP 
0000
0000
0000
0000
0000
0000
0000
0200
0200
0200
0400
0000
0000
0000
0000
0000
ENDCHAR
STARTCHAR U+02D3
ENCODING 723
SWIDTH 500 0
DWIDTH 8 0
BBX 13 16 -2 -2
BITMAP 
0000
0000
0000
0000
0000
0000
0000
0200
0400
0400
0400
0000
0000
0000
0000
0000
ENDCHAR
STARTCHAR U+02D4
ENCODING 724
SWIDTH 500 0
DWIDTH 8 0
BBX 13 16 -2 -2
BITMAP 
0000
0000
0000
0000
0000
0000
0200
0200
0F80
0000
0000
0000
0000
0000
0000
0000
ENDCHAR
STARTCHAR U+02D5
ENCODING 725
SWIDTH 500 0
DWIDTH 8 0
BBX 13 16 -2 -2
BITMAP 
0000
0000
0000
0000
0000
0000
0000
0000
0F80
0400
0400
0000
0000
0000
0000
0000
ENDCHAR
STARTCHAR U+02D6
ENCODING 726
SWIDTH 500 0
DWIDTH 8 0
BBX 13 16 -2 -2
BITMAP 
0000
0000
0000
0000
0000
0000
0000
0200
0200
1F00
0400
0400
0000
0000
0000
0000
ENDCHAR
STARTCHAR U+02D7
ENCODING 727
SWIDTH 500 0
DWIDTH 8 0
BBX 13 16 -2 -2
BITMAP 
0000
0000
0000
0000
0000
0000
0000
0880
0F80
1100
0000
0000
0000
0000
0000
0000
ENDCHAR
STARTCHAR U+02D8
ENCODING 728
SWIDTH 500 0
DWIDTH 8 0
BBX 13 16 -2 -2
BITMAP 
0210
0210
01E0
0000
0000
0000
0000
0000
0000
0000
0000
0000
0000
0000
0000
0000
ENDCHAR
STARTCHAR U+02D9
ENCODING 729
SWIDTH 500 0
DWIDTH 8 0
BBX 13 16 -2 -2
BITMAP 
0080
0080
0000
0000
0000
0000
0000
0000
0000
0000
0000
0000
0000
0000
0000
0000
ENDCHAR
STARTCHAR U+02DA
ENCODING 730
SWIDTH 500 0
DWIDTH 8 0
BBX 13 16 -2 -2
BITMAP 
00C0
0120
00C0
0000
0000
0000
0000
0000
0000
0000
0000
0000
0000
0000
0000
0000
ENDCHAR
STARTCHAR U+02DB
ENCODING 731
SWIDTH 500 0
DWIDTH 8 0
BBX 13 16 -2 -2
BITMAP 
0000
0000
0000
0000
0000
0000
0000
0000
0000
0000
0000
0000
0000
0000
0400
0200
ENDCHAR
STARTCHAR U+02DC
ENCODING 732
SWIDTH 500 0
DWIDTH 8 0
BBX 13 16 -2 -2
BITMAP 
0190
0260
0000
0000
0000
0000
0000
0000
0000
0000
0000
0000
0000
0000
0000
0000
ENDCHAR
STARTCHAR U+02DD
ENCODING 733
SWIDTH 500 0
DWIDTH 8 0
BBX 13 16 -2 -2
BITMAP 
0198
0220
0000
0000
0000
0000
0000
0000
0000
0000
0000
0000
0000
0000
0000
0000
ENDCHAR
STARTCHAR U+02DE
ENCODING 734
SWIDTH 500 0
DWIDTH 8 0
BBX 13 16 -2 -2
BITMAP 
0000
0000
0000
0000
0000
0000
0000
0C00
12C0
0100
0000
0000
0000
0000
0000
0000
ENDCHAR
STARTCHAR U+02DF
ENCODING 735
SWIDTH 500 0
DWIDTH 8 0
BBX 13 16 -2 -2
BITMAP 
0000
0000
0000
0000
0000
0000
0000
0440
0380
0200
0500
0880
0000
0000
0000
0000
ENDCHAR
STARTCHAR U+02E0
ENCODING 736
SWIDTH 500 0
DWIDTH 8 0
BBX 13 16 -2 -2
BITMAP 
0000
0000
0000
0000
0440
0380
0200
0500
0200
0000
0000
0000
0000
0000
0000
0000
ENDCHAR
STARTCHAR U+02E1
ENCODING 737
SWIDTH 500 0
DWIDTH 8 0
BBX 13 16 -2 -2
BITMAP 
0000
0000
0000
0300
0100
0100
0200
0700
0000
0000
0000
0000
0000
0000
0000
0000
ENDCHAR
STARTCHAR U+02E2
ENCODING 738
SWIDTH 500 0
DWIDTH 8 0
BBX 13 16 -2 -2
BITMAP 
0000
0000
0000
0000
0180
0200
0200
0100
0600
0000
0000
0000
0000
0000
0000
0000
ENDCHAR
STARTCHAR U+02E3
ENCODING 739
SWIDTH 500 0
DWIDTH 8 0
BBX 13 16 -2 -2
BITMAP 
0000
0000
0000
0000
0240
0280
0300
0480
0000
0000
0000
0000
0000
0000
0000
0000
ENDCHAR
STARTCHAR U+02E4
ENCODING 740
SWIDTH 500 0
DWIDTH 8 0
BBX 13 16 -2 -2
BITMAP 
0000
0000
0000
0000
0380
0440
0800
0800
0600
0400
0400
0000
0000
0000
0000
0000
ENDCHAR
STARTCHAR U+02E5
ENCODING 741
SWIDTH 500 0
DWIDTH 8 0
BBX 13 16 -2 -2
BITMAP 
0000
0000
0000
0000
0780
0080
0100
0100
0100
0200
0200
0200
0400
0400
0400
0000
ENDCHAR
STARTCHAR U+02E6
ENCODING 742
SWIDTH 500 0
DWIDTH 8 0
BBX 13 16 -2 -2
BITMAP 
0000
0000
0000
0000
0080
0080
0F00
0100
0100
0200
0200
0200
0400
0400
0400
0000
ENDCHAR
STARTCHAR U+02E7
ENCODING 743
SWIDTH 500 0
DWIDTH 8 0
BBX 13 16 -2 -2
BITMAP 
0000
0000
0000
0000
0080
0080
0100
0100
0100
1E00
0200
0200
0400
0400
0400
0000
ENDCHAR
STARTCHAR U+02E8
ENCODING 744
SWIDTH 500 0
DWIDTH 8 0
BBX 13 16 -2 -2
BITMAP 
0000
0000
0000
0000
0080
0080
0100
0100
0100
0200
0200
0200
3C00
0400
0400
0000
ENDCHAR
STARTCHAR U+02E9
ENCODING 745
SWIDTH 500 0
DWIDTH 8 0
BBX 13 16 -2 -2
BITMAP 
0000
0000
0000
0000
0080
0080
0100
0100
0100
0200
0200
0200
0400
0400
3C00
0000
ENDCHAR
STARTCHAR U+02EA
ENCODING 746
SWIDTH 500 0
DWIDTH 8 0
BBX 13 16 -2 -2
BITMAP 
0000
0000
0000
0000
0000
0000
0000
0800
0800
1000
1000
1000
2000
3C00
0000
0000
ENDCHAR
STARTCHAR U+02EB
ENCODING 747
SWIDTH 500 0
DWIDTH 8 0
BBX 13 16 -2 -2
BITMAP 
0000
0000
0000
0000
0000
0000
0000
0800
0800
1000
1E00
1000
2000
2000
0000
0000
ENDCHAR
STARTCHAR U+02EC
ENCODING 748
SWIDTH 500 0
DWIDTH 8 0
BBX 13 16 -2 -2
BITMAP 
0000
0000
0000
0000
0000
0000
0000
0000
0000
0000
0000
0000
1100
0A00
0400
0000
ENDCHAR
STARTCHAR U+02ED
ENCODING 749
SWIDTH 500 0
DWIDTH 8 0
BBX 13 16 -2 -2
BITMAP 
0000
0000
03F0
0000
0000
07E0
0000
0000
0000
0000
0000
0000
0000
0000
0000
0000
ENDCHAR
STARTCHAR U+02EE
ENCODING 750
SWIDTH 500 0
DWIDTH 8 0
BBX 13 16 -2 -2
BITMAP 
0000
0000
0000
0000
0360
0120
0240
0480
0000
0000
0000
0000
0000
0000
0000
0000
ENDCHAR
STARTCHAR U+0300
ENCODING 768
SWIDTH 500 0
DWIDTH 8 0
BBX 13 16 -2 -2
BITMAP 
0180
0060
0000
0000
0000
0000
0000
0000
0000
0000
0000
0000
0000
0000
0000
0000
ENDCHAR
STARTCHAR U+0301
ENCODING 769
SWIDTH 500 0
DWIDTH 8 0
BBX 13 16 -2 -2
BITMAP 
0060
0180
0000
0000
0000
0000
0000
0000
0000
0000
0000
0000
0000
0000
0000
0000
ENDCHAR
STARTCHAR U+0302
ENCODING 770
SWIDTH 500 0
DWIDTH 8 0
BBX 13 16 -2 -2
BITMAP 
00C0
0120
0210
0000
0000
0000
0000
0000
0000
0000
0000
0000
0000
0000
0000
0000
ENDCHAR
STARTCHAR U+0303
ENCODING 771
SWIDTH 500 0
DWIDTH 8 0
BBX 13 16 -2 -2
BITMAP 
0190
0260
0000
0000
0000
0000
0000
0000
0000
0000
0000
0000
0000
0000
0000
0000
ENDCHAR
STARTCHAR U+0304
ENCODING 772
SWIDTH 500 0
DWIDTH 8 0
BBX 13 16 -2 -2
BITMAP 
0000
01E0
0000
0000
0000
0000
0000
0000
0000
0000
0000
0000
0000
0000
0000
0000
ENDCHAR
STARTCHAR U+0305
ENCODING 773
SWIDTH 500 0
DWIDTH 8 0
BBX 13 16 -2 -2
BITMAP 
0000
07F8
0000
0000
0000
0000
0000
0000
0000
0000
0000
0000
0000
0000
0000
0000
ENDCHAR
STARTCHAR U+0306
ENCODING 774
SWIDTH 500 0
DWIDTH 8 0
BBX 13 16 -2 -2
BITMAP 
0210
0210
01E0
0000
0000
0000
0000
0000
0000
0000
0000
0000
0000
0000
0000
0000
ENDCHAR
STARTCHAR U+0307
ENCODING 775
SWIDTH 500 0
DWIDTH 8 0
BBX 13 16 -2 -2
BITMAP 
0080
0080
0000
0000
0000
0000
0000
0000
0000
0000
0000
0000
0000
0000
0000
0000
ENDCHAR
STARTCHAR U+0308
ENCODING 776
SWIDTH 500 0
DWIDTH 8 0
BBX 13 16 -2 -2
BITMAP 
0120
0120
0000
0000
0000
0000
0000
0000
0000
0000
0000
0000
0000
0000
0000
0000
ENDCHAR
STARTCHAR U+0309
ENCODING 777
SWIDTH 500 0
DWIDTH 8 0
BBX 13 16 -2 -2
BITMAP 
00C0
0040
0000
0000
0000
0000
0000
0000
0000
0000
0000
0000
0000
0000
0000
0000
ENDCHAR
STARTCHAR U+030A
ENCODING 778
SWIDTH 500 0
DWIDTH 8 0
BBX 13 16 -2 -2
BITMAP 
00C0
0120
00C0
0000
0000
0000
0000
0000
0000
0000
0000
0000
0000
0000
0000
0000
ENDCHAR
STARTCHAR U+030B
ENCODING 779
SWIDTH 500 0
DWIDTH 8 0
BBX 13 16 -2 -2
BITMAP 
0198
0220
0000
0000
0000
0000
0000
0000
0000
0000
0000
0000
0000
0000
0000
0000
ENDCHAR
STARTCHAR U+030C
ENCODING 780
SWIDTH 500 0
DWIDTH 8 0
BBX 13 16 -2 -2
BITMAP 
0110
00A0
0040
0000
0000
0000
0000
0000
0000
0000
0000
0000
0000
0000
0000
0000
ENDCHAR
STARTCHAR U+030D
ENCODING 781
SWIDTH 500 0
DWIDTH 8 0
BBX 13 16 -2 -2
BITMAP 
0040
0040
0040
0080
0000
0000
0000
0000
0000
0000
0000
0000
0000
0000
0000
0000
ENDCHAR
STARTCHAR U+030E
ENCODING 782
SWIDTH 500 0
DWIDTH 8 0
BBX 13 16 -2 -2
BITMAP 
00A0
00A0
00A0
0140
0000
0000
0000
0000
0000
0000
0000
0000
0000
0000
0000
0000
ENDCHAR
STARTCHAR U+030F
ENCODING 783
SWIDTH 500 0
DWIDTH 8 0
BBX 13 16 -2 -2
BITMAP 
0660
0110
0000
0000
0000
0000
0000
0000
0000
0000
0000
0000
0000
0000
0000
0000
ENDCHAR
STARTCHAR U+0310
ENCODING 784
SWIDTH 500 0
DWIDTH 8 0
BBX 13 16 -2 -2
BITMAP 
00C0
02D0
0220
01C0
0000
0000
0000
0000
0000
0000
0000
0000
0000
0000
0000
0000
ENDCHAR
STARTCHAR U+0311
ENCODING 785
SWIDTH 500 0
DWIDTH 8 0
BBX 13 16 -2 -2
BITMAP 
01E0
0210
0210
0000
0000
0000
0000
0000
0000
0000
0000
0000
0000
0000
0000
0000
ENDCHAR
STARTCHAR U+0312
ENCODING 786
SWIDTH 500 0
DWIDTH 8 0
BBX 13 16 -2 -2
BITMAP 
0000
0000
0080
0100
0300
0000
0000
0000
0000
0000
0000
0000
0000
0000
0000
0000
ENDCHAR
STARTCHAR U+0313
ENCODING 787
SWIDTH 500 0
DWIDTH 8 0
BBX 13 16 -2 -2
BITMAP 
0000
0000
0180
0100
0200
0000
0000
0000
0000
0000
0000
0000
0000
0000
0000
0000
ENDCHAR
STARTCHAR U+0314
ENCODING 788
SWIDTH 500 0
DWIDTH 8 0
BBX 13 16 -2 -2
BITMAP 
0000
0000
0180
0200
0100
0000
0000
0000
0000
0000
0000
0000
0000
0000
0000
0000
ENDCHAR
STARTCHAR U+0315
ENCODING 789
SWIDTH 500 0
DWIDTH 8 0
BBX 13 16 -2 -2
BITMAP 
0000
0000
0030
0020
0040
0000
0000
0000
0000
0000
0000
0000
0000
0000
0000
0000
ENDCHAR
STARTCHAR U+0316
ENCODING 790
SWIDTH 500 0
DWIDTH 8 0
BBX 13 16 -2 -2
BITMAP 
0000
0000
0000
0000
0000
0000
0000
0000
0000
0000
0000
0000
0000
0000
1800
0400
ENDCHAR
STARTCHAR U+0317
ENCODING 791
SWIDTH 500 0
DWIDTH 8 0
BBX 13 16 -2 -2
BITMAP 
0000
0000
0000
0000
0000
0000
0000
0000
0000
0000
0000
0000
0000
0000
0E00
3000
ENDCHAR
STARTCHAR U+0318
ENCODING 792
SWIDTH 500 0
DWIDTH 8 0
BBX 13 16 -2 -2
BITMAP 
0000
0000
0000
0000
0000
0000
0000
0000
0000
0000
0000
0100
0200
1E00
0200
0400
ENDCHAR
STARTCHAR U+0319
ENCODING 793
SWIDTH 500 0
DWIDTH 8 0
BBX 13 16 -2 -2
BITMAP 
0000
0000
0000
0000
0000
0000
0000
0000
0000
0000
0000
0800
1000
1E00
1000
2000
ENDCHAR
STARTCHAR U+031A
ENCODING 794
SWIDTH 500 0
DWIDTH 8 0
BBX 13 16 -2 -2
BITMAP 
0000
01E0
0020
0040
0000
0000
0000
0000
0000
0000
0000
0000
0000
0000
0000
0000
ENDCHAR
STARTCHAR U+031B
ENCODING 795
SWIDTH 500 0
DWIDTH 8 0
BBX 13 16 -2 -2
BITMAP 
0000
0000
0008
0010
0060
0000
0000
0000
0000
0000
0000
0000
0000
0000
0000
0000
ENDCHAR
STARTCHAR U+031C
ENCODING 796
SWIDTH 500 0
DWIDTH 8 0
BBX 13 16 -2 -2
BITMAP 
0000
0000
0000
0000
0000
0000
0000
0000
0000
0000
0000
0000
0000
0C00
1000
0800
ENDCHAR
STARTCHAR U+031D
ENCODING 797
SWIDTH 500 0
DWIDTH 8 0
BBX 13 16 -2 -2
BITMAP 
0000
0000
0000
0000
0000
0000
0000
0000
0000
0000
0000
0000
0400
0400
0E00
0000
ENDCHAR
STARTCHAR U+031E
ENCODING 798
SWIDTH 500 0
DWIDTH 8 0
BBX 13 16 -2 -2
BITMAP 
0000
0000
0000
0000
0000
0000
0000
0000
0000
0000
0000
0000
0000
0E00
0400
0800
ENDCHAR
STARTCHAR U+031F
ENCODING 799
SWIDTH 500 0
DWIDTH 8 0
BBX 13 16 -2 -2
BITMAP 
0000
0000
0000
0000
0000
0000
0000
0000
0000
0000
0000
0200
0400
1F00
0400
0800
ENDCHAR
STARTCHAR U+0320
ENCODING 800
SWIDTH 500 0
DWIDTH 8 0
BBX 13 16 -2 -2
BITMAP 
0000
0000
0000
0000
0000
0000
0000
0000
0000
0000
0000
0000
0000
0000
1E00
0000
ENDCHAR
STARTCHAR U+0321
ENCODING 801
SWIDTH 500 0
DWIDTH 8 0
BBX 13 16 -2 -2
BITMAP 
0000
0000
0000
0000
0000
0000
0000
0000
0000
0000
0000
0000
0100
0100
0600
0400
ENDCHAR
STARTCHAR U+0322
ENCODING 802
SWIDTH 500 0
DWIDTH 8 0
BBX 13 16 -2 -2
BITMAP 
0000
0000
0000
0000
0000
0000
0000
0000
0000
0000
0000
0000
0200
0200
0280
0300
ENDCHAR
STARTCHAR U+0323
ENCODING 803
SWIDTH 500 0
DWIDTH 8 0
BBX 13 16 -2 -2
BITMAP 
0000
0000
0000
0000
0000
0000
0000
0000
0000
0000
0000
0000
0000
0000
0C00
1800
ENDCHAR
STARTCHAR U+0324
ENCODING 804
SWIDTH 500 0
DWIDTH 8 0
BBX 13 16 -2 -2
BITMAP 
0000
0000
0000
0000
0000
0000
0000
0000
0000
0000
0000
0000
0000
0000
1200
2400
ENDCHAR
STARTCHAR U+0325
ENCODING 805
SWIDTH 500 0
DWIDTH 8 0
BBX 13 16 -2 -2
BITMAP 
0000
0000
0000
0000
0000
0000
0000
0000
0000
0000
0000
0000
0000
0C00
1600
0800
ENDCHAR
STARTCHAR U+0326
ENCODING 806
SWIDTH 500 0
DWIDTH 8 0
BBX 13 16 -2 -2
BITMAP 
0000
0000
0000
0000
0000
0000
0000
0000
0000
0000
0000
0000
0C00
0400
0800
0000
ENDCHAR
STARTCHAR U+0327
ENCODING 807
SWIDTH 500 0
DWIDTH 8 0
BBX 13 16 -2 -2
BITMAP 
0000
0000
0000
0000
0000
0000
0000
0000
0000
0000
0000
0000
0800
0800
2C00
1000
ENDCHAR
STARTCHAR U+0328
ENCODING 808
SWIDTH 500 0
DWIDTH 8 0
BBX 13 16 -2 -2
BITMAP 
0000
0000
0000
0000
0000
0000
0000
0000
0000
0000
0000
0000
0000
0200
0580
0200
ENDCHAR
STARTCHAR U+0329
ENCODING 809
SWIDTH 500 0
DWIDTH 8 0
BBX 13 16 -2 -2
BITMAP 
0000
0000
0000
0000
0000
0000
0000
0000
0000
0000
0000
0000
0000
0800
0800
1000
ENDCHAR
STARTCHAR U+032A
ENCODING 810
SWIDTH 500 0
DWIDTH 8 0
BBX 13 16 -2 -2
BITMAP 
0000
0000
0000
0000
0000
0000
0000
0000
0000
0000
0000
0000
0000
3F00
2100
4200
ENDCHAR
STARTCHAR U+032B
ENCODING 811
SWIDTH 500 0
DWIDTH 8 0
BBX 13 16 -2 -2
BITMAP 
0000
0000
0000
0000
0000
0000
0000
0000
0000
0000
0000
0000
0000
2A00
3C00
2800
ENDCHAR
STARTCHAR U+032C
ENCODING 812
SWIDTH 500 0
DWIDTH 8 0
BBX 13 16 -2 -2
BITMAP 
0000
0000
0000
0000
0000
0000
0000
0000
0000
0000
0000
0000
0000
1100
0A00
0C00
ENDCHAR
STARTCHAR U+032D
ENCODING 813
SWIDTH 500 0
DWIDTH 8 0
BBX 13 16 -2 -2
BITMAP 
0000
0000
0000
0000
0000
0000
0000
0000
0000
0000
0000
0000
0000
0C00
3200
4200
ENDCHAR
STARTCHAR U+032E
ENCODING 814
SWIDTH 500 0
DWIDTH 8 0
BBX 13 16 -2 -2
BITMAP 
0000
0000
0000
0000
0000
0000
0000
0000
0000
0000
0000
0000
0000
2100
2200
1C00
ENDCHAR
STARTCHAR U+032F
ENCODING 815
SWIDTH 500 0
DWIDTH 8 0
BBX 13 16 -2 -2
BITMAP 
0000
0000
0000
0000
0000
0000
0000
0000
0000
0000
0000
0000
0000
1C00
2200
4200
ENDCHAR
STARTCHAR U+0330
ENCODING 816
SWIDTH 500 0
DWIDTH 8 0
BBX 13 16 -2 -2
BITMAP 
0000
0000
0000
0000
0000
0000
0000
0000
0000
0000
0000
0000
0000
0000
3900
4400
ENDCHAR
STARTCHAR U+0331
ENCODING 817
SWIDTH 500 0
DWIDTH 8 0
BBX 13 16 -2 -2
BITMAP 
0000
0000
0000
0000
0000
0000
0000
0000
0000
0000
0000
0000
0000
0000
3F00
0000
ENDCHAR
STARTCHAR U+0332
ENCODING 818
SWIDTH 500 0
DWIDTH 8 0
BBX 13 16 -2 -2
BITMAP 
0000
0000
0000
0000
0000
0000
0000
0000
0000
0000
0000
0000
0000
0000
7F80
0000
ENDCHAR
STARTCHAR U+0333
ENCODING 819
SWIDTH 500 0
DWIDTH 8 0
BBX 13 16 -2 -2
BITMAP 
0000
0000
0000
0000
0000
0000
0000
0000
0000
0000
0000
0000
0000
7F80
0000
FF00
ENDCHAR
STARTCHAR U+0334
ENCODING 820
SWIDTH 500 0
DWIDTH 8 0
BBX 13 16 -2 -2
BITMAP 
0000
0000
0000
0000
0000
0000
0640
0B40
0980
0000
0000
0000
0000
0000
0000
0000
ENDCHAR
STARTCHAR U+0335
ENCODING 821
SWIDTH 500 0
DWIDTH 8 0
BBX 13 16 -2 -2
BITMAP 
0000
0000
0000
0000
0000
0000
0000
0780
0000
0000
0000
0000
0000
0000
0000
0000
ENDCHAR
STARTCHAR U+0336
ENCODING 822
SWIDTH 500 0
DWIDTH 8 0
BBX 13 16 -2 -2
BITMAP 
0000
0000
0000
0000
0000
0000
0000
1FE0
0000
0000
0000
0000
0000
0000
0000
0000
ENDCHAR
STARTCHAR U+0337
ENCODING 823
SWIDTH 500 0
DWIDTH 8 0
BBX 13 16 -2 -2
BITMAP 
0000
0000
0000
0000
0000
0000
0040
0080
0300
0400
0800
1000
0000
0000
0000
0000
ENDCHAR
STARTCHAR U+0338
ENCODING 824
SWIDTH 500 0
DWIDTH 8 0
BBX 13 16 -2 -2
BITMAP 
0000
0000
0000
0020
0040
0080
0080
0100
0200
0400
0800
1000
2000
0000
0000
0000
ENDCHAR
STARTCHAR U+0339
ENCODING 825
SWIDTH 500 0
DWIDTH 8 0
BBX 13 16 -2 -2
BITMAP 
0000
0000
0000
0000
0000
0000
0000
0000
0000
0000
0000
0000
0000
0C00
0600
1800
ENDCHAR
STARTCHAR U+033A
ENCODING 826
SWIDTH 500 0
DWIDTH 8 0
BBX 13 16 -2 -2
BITMAP 
0000
0000
0000
0000
0000
0000
0000
0000
0000
0000
0000
0000
0000
2100
2100
7E00
ENDCHAR
STARTCHAR U+033B
ENCODING 827
SWIDTH 500 0
DWIDTH 8 0
BBX 13 16 -2 -2
BITMAP 
0000
0000
0000
0000
0000
0000
0000
0000
0000
0000
0000
0000
0000
1C00
1400
3800
ENDCHAR
STARTCHAR U+033C
ENCODING 828
SWIDTH 500 0
DWIDTH 8 0
BBX 13 16 -2 -2
BITMAP 
0000
0000
0000
0000
0000
0000
0000
0000
0000
0000
0000
0000
0000
3600
4900
0000
ENDCHAR
STARTCHAR U+033D
ENCODING 829
SWIDTH 500 0
DWIDTH 8 0
BBX 13 16 -2 -2
BITMAP 
0000
0330
01C0
0620
0000
0000
0000
0000
0000
0000
0000
0000
0000
0000
0000
0000
ENDCHAR
STARTCHAR U+033E
ENCODING 830
SWIDTH 500 0
DWIDTH 8 0
BBX 13 16 -2 -2
BITMAP 
0060
00C0
0040
00C0
0180
0000
0000
0000
0000
0000
0000
0000
0000
0000
0000
0000
ENDCHAR
STARTCHAR U+033F
ENCODING 831
SWIDTH 500 0
DWIDTH 8 0
BBX 13 16 -2 -2
BITMAP 
03F0
0000
03F0
0000
0000
0000
0000
0000
0000
0000
0000
0000
0000
0000
0000
0000
ENDCHAR
STARTCHAR U+0340
ENCODING 832
SWIDTH 500 0
DWIDTH 8 0
BBX 13 16 -2 -2
BITMAP 
0180
0060
0000
0000
0000
0000
0000
0000
0000
0000
0000
0000
0000
0000
0000
0000
ENDCHAR
STARTCHAR U+0341
ENCODING 833
SWIDTH 500 0
DWIDTH 8 0
BBX 13 16 -2 -2
BITMAP 
0060
0180
0000
0000
0000
0000
0000
0000
0000
0000
0000
0000
0000
0000
0000
0000
ENDCHAR
STARTCHAR U+0342
ENCODING 834
SWIDTH 500 0
DWIDTH 8 0
BBX 13 16 -2 -2
BITMAP 
0320
04C0
0000
0000
0000
0000
0000
0000
0000
0000
0000
0000
0000
0000
0000
0000
ENDCHAR
STARTCHAR U+0343
ENCODING 835
SWIDTH 500 0
DWIDTH 8 0
BBX 13 16 -2 -2
BITMAP 
0000
0000
0180
0100
0200
0000
0000
0000
0000
0000
0000
0000
0000
0000
0000
0000
ENDCHAR
STARTCHAR U+0344
ENCODING 836
SWIDTH 500 0
DWIDTH 8 0
BBX 13 16 -2 -2
BITMAP 
0080
02A0
0080
0000
0000
0000
0000
0000
0000
0000
0000
0000
0000
0000
0000
0000
ENDCHAR
STARTCHAR U+0345
ENCODING 837
SWIDTH 500 0
DWIDTH 8 0
BBX 13 16 -2 -2
BITMAP 
0000
0000
0000
0000
0000
0000
0000
0000
0000
0000
0000
0000
0000
0000
0800
1800
ENDCHAR
STARTCHAR U+0346
ENCODING 838
SWIDTH 500 0
DWIDTH 8 0
BBX 13 16 -2 -2
BITMAP 
01E0
0120
0120
0000
0000
0000
0000
0000
0000
0000
0000
0000
0000
0000
0000
0000
ENDCHAR
STARTCHAR U+0347
ENCODING 839
SWIDTH 500 0
DWIDTH 8 0
BBX 13 16 -2 -2
BITMAP 
0000
0000
0000
0000
0000
0000
0000
0000
0000
0000
0000
0000
0000
1E00
0000
3C00
ENDCHAR
STARTCHAR U+0348
ENCODING 840
SWIDTH 500 0
DWIDTH 8 0
BBX 13 16 -2 -2
BITMAP 
0000
0000
0000
0000
0000
0000
0000
0000
0000
0000
0000
0000
0000
0A00
0A00
1400
ENDCHAR
STARTCHAR U+0349
ENCODING 841
SWIDTH 500 0
DWIDTH 8 0
BBX 13 16 -2 -2
BITMAP 
0000
0000
0000
0000
0000
0000
0000
0000
0000
0000
0000
0000
0000
1E00
0200
0400
ENDCHAR
STARTCHAR U+034A
ENCODING 842
SWIDTH 500 0
DWIDTH 8 0
BBX 13 16 -2 -2
BITMAP 
0020
03C8
05F0
0200
0000
0000
0000
0000
0000
0000
0000
0000
0000
0000
0000
0000
ENDCHAR
STARTCHAR U+034B
ENCODING 843
SWIDTH 500 0
DWIDTH 8 0
BBX 13 16 -2 -2
BITMAP 
0020
0388
04F0
0300
0000
0000
0000
0000
0000
0000
0000
0000
0000
0000
0000
0000
ENDCHAR
STARTCHAR U+034C
ENCODING 844
SWIDTH 500 0
DWIDTH 8 0
BBX 13 16 -2 -2
BITMAP 
0190
0260
0390
0440
0000
0000
0000
0000
0000
0000
0000
0000
0000
0000
0000
0000
ENDCHAR
STARTCHAR U+034D
ENCODING 845
SWIDTH 500 0
DWIDTH 8 0
BBX 13 16 -2 -2
BITMAP 
0000
0000
0000
0000
0000
0000
0000
0000
0000
0000
0000
1900
2100
7F80
2300
2400
ENDCHAR
STARTCHAR U+034E
ENCODING 846
SWIDTH 500 0
DWIDTH 8 0
BBX 13 16 -2 -2
BITMAP 
0000
0000
0000
0000
0000
0000
0000
0000
0000
0000
0000
0000
0800
1C00
2A00
1000
ENDCHAR
STARTCHAR U+0360
ENCODING 864
SWIDTH 500 0
DWIDTH 8 0
BBX 13 16 -2 -2
BITMAP 
0000
0000
0388
0460
0000
0000
0000
0000
0000
0000
0000
0000
0000
0000
0000
0000
ENDCHAR
STARTCHAR U+0361
ENCODING 865
SWIDTH 500 0
DWIDTH 8 0
BBX 13 16 -2 -2
BITMAP 
0000
0000
03E0
0410
0000
0000
0000
0000
0000
0000
0000
0000
0000
0000
0000
0000
ENDCHAR
STARTCHAR U+0362
ENCODING 866
SWIDTH 500 0
DWIDTH 8 0
BBX 13 16 -2 -2
BITMAP 
0000
0000
0000
0000
0000
0000
0000
0000
0000
0000
0000
0080
3F80
0100
0000
0000
ENDCHAR
STARTCHAR U+0374
ENCODING 884
SWIDTH 500 0
DWIDTH 8 0
BBX 13 16 -2 -2
BITMAP 
0000
0000
0000
0000
00C0
0180
0200
0400
0000
0000
0000
0000
0000
0000
0000
0000
ENDCHAR
STARTCHAR U+0375
ENCODING 885
SWIDTH 500 0
DWIDTH 8 0
BBX 13 16 -2 -2
BITMAP 
0000
0000
0000
0000
0000
0000
0000
0000
0000
0000
0000
0000
0600
0C00
1000
2000
ENDCHAR
STARTCHAR U+037A
ENCODING 890
SWIDTH 500 0
DWIDTH 8 0
BBX 13 16 -2 -2
BITMAP 
0000
0000
0000
0000
0000
0000
0000
0000
0000
0000
0000
0000
0000
0000
0800
1800
ENDCHAR
STARTCHAR U+037E
ENCODING 894
SWIDTH 500 0
DWIDTH 8 0
BBX 13 16 -2 -2
BITMAP 
0000
0000
0000
0000
0000
0000
0000
0000
0300
0600
0000
0000
0C00
0400
0800
1000
ENDCHAR
STARTCHAR U+0384
ENCODING 900
SWIDTH 500 0
DWIDTH 8 0
BBX 13 16 -2 -2
BITMAP 
0080
0080
0080
0000
0000
0000
0000
0000
0000
0000
0000
0000
0000
0000
0000
0000
ENDCHAR
STARTCHAR U+0385
ENCODING 901
SWIDTH 500 0
DWIDTH 8 0
BBX 13 16 -2 -2
BITMAP 
0080
0080
0080
0440
0440
0000
0000
0000
0000
0000
0000
0000
0000
0000
0000
0000
ENDCHAR
STARTCHAR U+0386
ENCODING 902
SWIDTH 500 0
DWIDTH 8 0
BBX 13 16 -2 -2
BITMAP 
0200
0200
0200
0000
0100
0280
0480
0840
0840
1F80
1080
1080
2100
2100
0000
0000
ENDCHAR
STARTCHAR U+0387
ENCODING 903
SWIDTH 500 0
DWIDTH 8 0
BBX 13 16 -2 -2
BITMAP 
0000
0000
0000
0000
0000
0000
0000
0000
0100
0700
0200
0000
0000
0000
0000
0000
ENDCHAR
STARTCHAR U+0388
ENCODING 904
SWIDTH 500 0
DWIDTH 8 0
BBX 13 16 -2 -2
BITMAP 
0200
0200
0200
0000
07E0
0400
0800
0800
0F80
1000
1000
1000
2000
3F00
0000
0000
ENDCHAR
STARTCHAR U+0389
ENCODING 905
SWIDTH 500 0
DWIDTH 8 0
BBX 13 16 -2 -2
BITMAP 
0200
0200
0200
0000
0420
0420
0840
0840
0FC0
1080
1080
1080
2100
2100
0000
0000
ENDCHAR
STARTCHAR U+038A
ENCODING 906
SWIDTH 500 0
DWIDTH 8 0
BBX 13 16 -2 -2
BITMAP 
0200
0200
0200
0000
03E0
0080
0100
0100
0100
0200
0200
0200
0400
1F00
0000
0000
ENDCHAR
STARTCHAR U+038C
ENCODING 908
SWIDTH 500 0
DWIDTH 8 0
BBX 13 16 -2 -2
BITMAP 
0200
0200
0200
0000
0380
0440
0840
0840
0840
1080
1080
1080
1100
0E00
0000
0000
ENDCHAR
STARTCHAR U+038E
ENCODING 910
SWIDTH 500 0
DWIDTH 8 0
BBX 13 16 -2 -2
BITMAP 
0200
0200
0200
0000
0410
0420
0420
0440
0380
0200
0200
0200
0400
0400
0000
0000
ENDCHAR
STARTCHAR U+038F
ENCODING 911
SWIDTH 500 0
DWIDTH 8 0
BBX 13 16 -2 -2
BITMAP 
0200
0200
0200
0000
03C0
0420
0820
0820
0820
1040
1040
0880
0900
0A00
3B80
0000
ENDCHAR
STARTCHAR U+0390
ENCODING 912
SWIDTH 500 0
DWIDTH 8 0
BBX 13 16 -2 -2
BITMAP 
0080
0080
0080
0440
0440
0000
0200
0200
0200
0400
0400
0400
0400
0200
0000
0000
ENDCHAR
STARTCHAR U+0391
ENCODING 913
SWIDTH 500 0
DWIDTH 8 0
BBX 13 16 -2 -2
BITMAP 
0000
0000
0000
0000
0100
0280
0480
0840
0840
1F80
1080
1080
2100
2100
0000
0000
ENDCHAR
STARTCHAR U+0392
ENCODING 914
SWIDTH 500 0
DWIDTH 8 0
BBX 13 16 -2 -2
BITMAP 
0000
0000
0000
0000
0780
0440
0840
0840
0F00
1080
1080
1080
2100
3E00
0000
0000
ENDCHAR
STARTCHAR U+0393
ENCODING 915
SWIDTH 500 0
DWIDTH 8 0
BBX 13 16 -2 -2
BITMAP 
0000
0000
0000
0000
07E0
0400
0800
0800
0800
1000
1000
1000
2000
2000
0000
0000
ENDCHAR
STARTCHAR U+0394
ENCODING 916
SWIDTH 500 0
DWIDTH 8 0
BBX 13 16 -2 -2
BITMAP 
0000
0000
0000
0000
0080
0080
0180
0280
0480
0880
0880
1080
2080
3F80
0000
0000
ENDCHAR
STARTCHAR U+0395
ENCODING 917
SWIDTH 500 0
DWIDTH 8 0
BBX 13 16 -2 -2
BITMAP 
0000
0000
0000
0000
07E0
0400
0800
0800
0F80
1000
1000
1000
2000
3F00
0000
0000
ENDCHAR
STARTCHAR U+0396
ENCODING 918
SWIDTH 500 0
DWIDTH 8 0
BBX 13 16 -2 -2
BITMAP 
0000
0000
0000
0000
07E0
0020
0040
0080
0300
0400
0800
1000
2000
3F00
0000
0000
ENDCHAR
STARTCHAR U+0397
ENCODING 919
SWIDTH 500 0
DWIDTH 8 0
BBX 13 16 -2 -2
BITMAP 
0000
0000
0000
0000
0420
0420
0840
0840
0FC0
1080
1080
1080
2100
2100
0000
0000
ENDCHAR
STARTCHAR U+0398
ENCODING 920
SWIDTH 500 0
DWIDTH 8 0
BBX 13 16 -2 -2
BITMAP 
0000
0000
0000
0000
0380
0440
0840
0840
0FC0
1080
1080
1080
1100
0E00
0000
0000
ENDCHAR
STARTCHAR U+0399
ENCODING 921
SWIDTH 500 0
DWIDTH 8 0
BBX 13 16 -2 -2
BITMAP 
0000
0000
0000
0000
03E0
0080
0100
0100
0100
0200
0200
0200
0400
1F00
0000
0000
ENDCHAR
STARTCHAR U+039A
ENCODING 922
SWIDTH 500 0
DWIDTH 8 0
BBX 13 16 -2 -2
BITMAP 
0000
0000
0000
0000
0420
04C0
0900
0A00
0C00
1800
1400
1200
2200
2100
0000
0000
ENDCHAR
STARTCHAR U+039B
ENCODING 923
SWIDTH 500 0
DWIDTH 8 0
BBX 13 16 -2 -2
BITMAP 
0000
0000
0000
0000
0080
0080
0180
0280
0480
0880
0880
1080
2080
2080
0000
0000
ENDCHAR
STARTCHAR U+039C
ENCODING 924
SWIDTH 500 0
DWIDTH 8 0
BBX 13 16 -2 -2
BITMAP 
0000
0000
0000
0000
0420
0420
0CC0
0CC0
0D40
1680
1080
1080
2100
2100
0000
0000
ENDCHAR
STARTCHAR U+039D
ENCODING 925
SWIDTH 500 0
DWIDTH 8 0
BBX 13 16 -2 -2
BITMAP 
0000
0000
0000
0000
0420
0620
0C40
0A40
0A40
1280
1280
1380
2300
2100
0000
0000
ENDCHAR
STARTCHAR U+039E
ENCODING 926
SWIDTH 500 0
DWIDTH 8 0
BBX 13 16 -2 -2
BITMAP 
0000
0000
0000
0000
07E0
0000
0000
0000
0780
0000
0000
0000
0000
3F00
0000
0000
ENDCHAR
STARTCHAR U+039F
ENCODING 927
SWIDTH 500 0
DWIDTH 8 0
BBX 13 16 -2 -2
BITMAP 
0000
0000
0000
0000
0380
0440
0840
0840
0840
1080
1080
1080
1100
0E00
0000
0000
ENDCHAR
STARTCHAR U+03A0
ENCODING 928
SWIDTH 500 0
DWIDTH 8 0
BBX 13 16 -2 -2
BITMAP 
0000
0000
0000
0000
07F0
0220
0440
0440
0440
0880
0880
0880
1100
1100
0000
0000
ENDCHAR
STARTCHAR U+03A1
ENCODING 929
SWIDTH 500 0
DWIDTH 8 0
BBX 13 16 -2 -2
BITMAP 
0000
0000
0000
0000
0780
0440
0840
0840
0F80
1000
1000
1000
2000
2000
0000
0000
ENDCHAR
STARTCHAR U+03A3
ENCODING 931
SWIDTH 500 0
DWIDTH 8 0
BBX 13 16 -2 -2
BITMAP 
0000
0000
0000
0000
07E0
0400
0400
0200
0200
0200
0400
0800
1000
3F00
0000
0000
ENDCHAR
STARTCHAR U+03A4
ENCODING 932
SWIDTH 500 0
DWIDTH 8 0
BBX 13 16 -2 -2
BITMAP 
0000
0000
0000
0000
07F0
0080
0100
0100
0100
0200
0200
0200
0400
0400
0000
0000
ENDCHAR
STARTCHAR U+03A5
ENCODING 933
SWIDTH 500 0
DWIDTH 8 0
BBX 13 16 -2 -2
BITMAP 
0000
0000
0000
0000
0410
0420
0420
0440
0380
0200
0200
0200
0400
0400
0000
0000
ENDCHAR
STARTCHAR U+03A6
ENCODING 934
SWIDTH 500 0
DWIDTH 8 0
BBX 13 16 -2 -2
BITMAP 
0000
0000
0000
0000
07F0
0080
07C0
0920
0920
1240
1240
0F80
0400
3F80
0000
0000
ENDCHAR
STARTCHAR U+03A7
ENCODING 935
SWIDTH 500 0
DWIDTH 8 0
BBX 13 16 -2 -2
BITMAP 
0000
0000
0000
0000
0420
0440
0440
0480
0500
0600
0900
1100
1100
2100
0000
0000
ENDCHAR
STARTCHAR U+03A8
ENCODING 936
SWIDTH 500 0
DWIDTH 8 0
BBX 13 16 -2 -2
BITMAP 
0000
0000
0000
0000
0490
0490
0920
0920
0940
0780
0200
0200
0400
0400
0000
0000
ENDCHAR
STARTCHAR U+03A9
ENCODING 937
SWIDTH 500 0
DWIDTH 8 0
BBX 13 16 -2 -2
BITMAP 
0000
0000
0000
0000
03C0
0420
0820
0820
0820
0840
0880
0900
0A00
3B80
0000
0000
ENDCHAR
STARTCHAR U+03AA
ENCODING 938
SWIDTH 500 0
DWIDTH 8 0
BBX 13 16 -2 -2
BITMAP 
0120
0120
0000
0000
03E0
0080
0100
0100
0100
0200
0200
0200
0400
1F00
0000
0000
ENDCHAR
STARTCHAR U+03AB
ENCODING 939
SWIDTH 500 0
DWIDTH 8 0
BBX 13 16 -2 -2
BITMAP 
0120
0120
0000
0000
0410
0420
0420
0440
0380
0200
0200
0200
0400
0400
0000
0000
ENDCHAR
STARTCHAR U+03AC
ENCODING 940
SWIDTH 500 0
DWIDTH 8 0
BBX 13 16 -2 -2
BITMAP 
0000
0080
0080
0100
0000
0000
0640
0940
0980
1100
1100
1300
1500
0900
0000
0000
ENDCHAR
STARTCHAR U+03AD
ENCODING 941
SWIDTH 500 0
DWIDTH 8 0
BBX 13 16 -2 -2
BITMAP 
0000
0080
0080
0100
0000
0000
07C0
0800
0800
0F00
1000
1000
1000
0F00
0000
0000
ENDCHAR
STARTCHAR U+03AE
ENCODING 942
SWIDTH 500 0
DWIDTH 8 0
BBX 13 16 -2 -2
BITMAP 
0000
0080
0080
0100
0000
0000
0B80
0C40
0840
1080
1080
1080
2100
2100
0100
0200
ENDCHAR
STARTCHAR U+03AF
ENCODING 943
SWIDTH 500 0
DWIDTH 8 0
BBX 13 16 -2 -2
BITMAP 
0000
0080
0080
0100
0000
0000
0200
0200
0200
0400
0400
0400
0400
0200
0000
0000
ENDCHAR
STARTCHAR U+03B0
ENCODING 944
SWIDTH 500 0
DWIDTH 8 0
BBX 13 16 -2 -2
BITMAP 
0080
0080
0080
0440
0440
0000
0840
0840
0840
1080
1080
1080
1100
0E00
0000
0000
ENDCHAR
STARTCHAR U+03B1
ENCODING 945
SWIDTH 500 0
DWIDTH 8 0
BBX 13 16 -2 -2
BITMAP 
0000
0000
0000
0000
0000
0000
0640
0940
0980
1100
1100
1300
1500
0900
0000
0000
ENDCHAR
STARTCHAR U+03B2
ENCODING 946
SWIDTH 500 0
DWIDTH 8 0
BBX 13 16 -2 -2
BITMAP 
0000
0000
0000
0000
0300
0480
0880
0880
0F80
1080
1080
1080
3100
2E00
2000
4000
ENDCHAR
STARTCHAR U+03B3
ENCODING 947
SWIDTH 500 0
DWIDTH 8 0
BBX 13 16 -2 -2
BITMAP 
0000
0000
0000
0000
0000
0000
0620
0920
0140
0180
0200
0400
0400
0800
0000
0000
ENDCHAR
STARTCHAR U+03B4
ENCODING 948
SWIDTH 500 0
DWIDTH 8 0
BBX 13 16 -2 -2
BITMAP 
0000
0000
0000
0000
01C0
0200
0400
0400
0600
0900
1080
1080
1100
0E00
0000
0000
ENDCHAR
STARTCHAR U+03B5
ENCODING 949
SWIDTH 500 0
DWIDTH 8 0
BBX 13 16 -2 -2
BITMAP 
0000
0000
0000
0000
0000
0000
0780
0840
0800
0F00
1000
1000
1100
0E00
0000
0000
ENDCHAR
STARTCHAR U+03B6
ENCODING 950
SWIDTH 500 0
DWIDTH 8 0
BBX 13 16 -2 -2
BITMAP 
0000
0000
0000
0000
0200
0200
0180
0100
0200
0400
0800
0800
0800
0600
0300
1C00
ENDCHAR
STARTCHAR U+03B7
ENCODING 951
SWIDTH 500 0
DWIDTH 8 0
BBX 13 16 -2 -2
BITMAP 
0000
0000
0000
0000
0000
0000
0B80
0C40
0840
1080
1080
1080
2100
2100
0100
0200
ENDCHAR
STARTCHAR U+03B8
ENCODING 952
SWIDTH 500 0
DWIDTH 8 0
BBX 13 16 -2 -2
BITMAP 
0000
0000
0000
0000
0100
0280
0480
0840
0FC0
1080
1080
1100
1200
0C00
0000
0000
ENDCHAR
STARTCHAR U+03B9
ENCODING 953
SWIDTH 500 0
DWIDTH 8 0
BBX 13 16 -2 -2
BITMAP 
0000
0000
0000
0000
0000
0000
0200
0200
0200
0400
0400
0400
0400
0200
0000
0000
ENDCHAR
STARTCHAR U+03BA
ENCODING 954
SWIDTH 500 0
DWIDTH 8 0
BBX 13 16 -2 -2
BITMAP 
0000
0000
0000
0000
0000
0000
0440
0480
0700
0C00
0C00
0A00
1200
1100
0000
0000
ENDCHAR
STARTCHAR U+03BB
ENCODING 955
SWIDTH 500 0
DWIDTH 8 0
BBX 13 16 -2 -2
BITMAP 
0000
0000
0000
0000
0200
0200
0200
0200
0200
0700
0900
1100
1100
2100
0000
0000
ENDCHAR
STARTCHAR U+03BC
ENCODING 956
SWIDTH 500 0
DWIDTH 8 0
BBX 13 16 -2 -2
BITMAP 
0000
0000
0000
0000
0000
0000
0840
0840
0840
1080
1980
1B80
2D00
2100
2000
4000
ENDCHAR
STARTCHAR U+03BD
ENCODING 957
SWIDTH 500 0
DWIDTH 8 0
BBX 13 16 -2 -2
BITMAP 
0000
0000
0000
0000
0000
0000
0840
0840
0880
1080
1100
1600
2800
3000
0000
0000
ENDCHAR
STARTCHAR U+03BE
ENCODING 958
SWIDTH 500 0
DWIDTH 8 0
BBX 13 16 -2 -2
BITMAP 
0000
0000
0000
0000
0400
0400
0780
0800
0800
0F00
1000
1000
0E00
0100
0200
3C00
ENDCHAR
STARTCHAR U+03BF
ENCODING 959
SWIDTH 500 0
DWIDTH 8 0
BBX 13 16 -2 -2
BITMAP 
0000
0000
0000
0000
0000
0000
0780
0840
0840
1080
1080
1080
1100
0E00
0000
0000
ENDCHAR
STARTCHAR U+03C0
ENCODING 960
SWIDTH 500 0
DWIDTH 8 0
BBX 13 16 -2 -2
BITMAP 
0000
0000
0000
0000
0000
0000
0FC0
0480
0480
0900
0900
0900
1200
1200
0000
0000
ENDCHAR
STARTCHAR U+03C1
ENCODING 961
SWIDTH 500 0
DWIDTH 8 0
BBX 13 16 -2 -2
BITMAP 
0000
0000
0000
0000
0000
0000
0780
0840
0840
1080
1080
1080
3100
2E00
2000
4000
ENDCHAR
STARTCHAR U+03C2
ENCODING 962
SWIDTH 500 0
DWIDTH 8 0
BBX 13 16 -2 -2
BITMAP 
0000
0000
0000
0000
0000
0000
03C0
0400
0800
1000
1000
0800
0600
0100
0200
1C00
ENDCHAR
STARTCHAR U+03C3
ENCODING 963
SWIDTH 500 0
DWIDTH 8 0
BBX 13 16 -2 -2
BITMAP 
0000
0000
0000
0000
0000
0000
07E0
0900
0900
1100
1100
1100
1200
0C00
0000
0000
ENDCHAR
STARTCHAR U+03C4
ENCODING 964
SWIDTH 500 0
DWIDTH 8 0
BBX 13 16 -2 -2
BITMAP 
0000
0000
0000
0000
0000
0000
0FC0
0200
0200
0400
0400
0400
0400
0200
0000
0000
ENDCHAR
STARTCHAR U+03C5
ENCODING 965
SWIDTH 500 0
DWIDTH 8 0
BBX 13 16 -2 -2
BITMAP 
0000
0000
0000
0000
0000
0000
0840
0840
0840
1080
1080
1080
1100
0E00
0000
0000
ENDCHAR
STARTCHAR U+03C6
ENCODING 966
SWIDTH 500 0
DWIDTH 8 0
BBX 13 16 -2 -2
BITMAP 
0000
0000
0000
0000
0000
0000
07C0
0920
0920
1240
1240
1240
1480
0F00
0400
0800
ENDCHAR
STARTCHAR U+03C7
ENCODING 967
SWIDTH 500 0
DWIDTH 8 0
BBX 13 16 -2 -2
BITMAP 
0000
0000
0000
0000
0000
0000
0840
0840
0880
0900
0600
0600
0A00
1200
2200
4200
ENDCHAR
STARTCHAR U+03C8
ENCODING 968
SWIDTH 500 0
DWIDTH 8 0
BBX 13 16 -2 -2
BITMAP 
0000
0000
0000
0000
0000
0000
0000
0000
0920
1240
1240
1240
1480
0F00
0400
0800
ENDCHAR
STARTCHAR U+03C9
ENCODING 969
SWIDTH 500 0
DWIDTH 8 0
BBX 13 16 -2 -2
BITMAP 
0000
0000
0000
0000
0000
0000
0440
0820
0820
1240
1240
1240
1280
0B00
0000
0000
ENDCHAR
STARTCHAR U+03CA
ENCODING 970
SWIDTH 500 0
DWIDTH 8 0
BBX 13 16 -2 -2
BITMAP 
0000
0000
0120
0240
0000
0000
0200
0200
0200
0400
0400
0400
0400
0200
0000
0000
ENDCHAR
STARTCHAR U+03CB
ENCODING 971
SWIDTH 500 0
DWIDTH 8 0
BBX 13 16 -2 -2
BITMAP 
0000
0000
0120
0240
0000
0000
0840
0840
0840
1080
1080
1080
1100
0E00
0000
0000
ENDCHAR
STARTCHAR U+03CC
ENCODING 972
SWIDTH 500 0
DWIDTH 8 0
BBX 13 16 -2 -2
BITMAP 
0000
0080
0080
0100
0000
0000
0780
0840
0840
1080
1080
1080
1100
0E00
0000
0000
ENDCHAR
STARTCHAR U+03CD
ENCODING 973
SWIDTH 500 0
DWIDTH 8 0
BBX 13 16 -2 -2
BITMAP 
0000
0080
0080
0100
0000
0000
0840
0840
0840
1080
1080
1080
1100
0E00
0000
0000
ENDCHAR
STARTCHAR U+03CE
ENCODING 974
SWIDTH 500 0
DWIDTH 8 0
BBX 13 16 -2 -2
BITMAP 
0000
0040
0040
0080
0000
0000
0440
0820
0820
1240
1240
1240
1280
0B00
0000
0000
ENDCHAR
STARTCHAR U+03D0
ENCODING 976
SWIDTH 500 0
DWIDTH 8 0
BBX 13 16 -2 -2
BITMAP 
0000
0000
0000
0000
0100
0280
0480
0900
0F80
1880
1080
1100
0E00
0000
0000
0000
ENDCHAR
STARTCHAR U+03D1
ENCODING 977
SWIDTH 500 0
DWIDTH 8 0
BBX 13 16 -2 -2
BITMAP 
0000
0000
0000
0000
0300
0480
0480
03C0
0080
1100
1100
1200
0C00
0000
0000
0000
ENDCHAR
STARTCHAR U+03D2
ENCODING 978
SWIDTH 500 0
DWIDTH 8 0
BBX 13 16 -2 -2
BITMAP 
0000
0000
0000
0000
0440
0CA0
0500
0500
0600
0400
0400
0400
0800
0000
0000
0000
ENDCHAR
STARTCHAR U+03D3
ENCODING 979
SWIDTH 500 0
DWIDTH 8 0
BBX 13 16 -2 -2
BITMAP 
0000
0000
0000
0000
0A40
0AA0
0500
0500
0600
0400
0400
0400
0800
0000
0000
0000
ENDCHAR
STARTCHAR U+03D4
ENCODING 980
SWIDTH 500 0
DWIDTH 8 0
BBX 13 16 -2 -2
BITMAP 
0000
0000
0000
0440
0440
0000
0880
1540
0600
0200
0400
0400
0800
0000
0000
0000
ENDCHAR
STARTCHAR U+03D5
ENCODING 981
SWIDTH 500 0
DWIDTH 8 0
BBX 13 16 -2 -2
BITMAP 
0000
0000
0000
0000
0000
0100
0200
0F00
1280
2480
2480
2500
1E00
0800
0800
0000
ENDCHAR
STARTCHAR U+03D6
ENCODING 982
SWIDTH 500 0
DWIDTH 8 0
BBX 13 16 -2 -2
BITMAP 
0000
0000
0000
0000
0000
0000
0000
1FC0
1040
2480
2480
2D00
3600
0000
0000
0000
ENDCHAR
STARTCHAR U+03D7
ENCODING 983
SWIDTH 500 0
DWIDTH 8 0
BBX 13 16 -2 -2
BITMAP 
0000
0000
0000
0000
0000
0000
0000
0440
0C80
0480
0700
0900
0B00
1100
0200
0C00
ENDCHAR
STARTCHAR U+03DA
ENCODING 986
SWIDTH 500 0
DWIDTH 8 0
BBX 13 16 -2 -2
BITMAP 
0000
0000
0000
0000
03C0
0420
0800
0800
0800
0400
0200
0100
0100
1E00
0000
0000
ENDCHAR
STARTCHAR U+03DB
ENCODING 987
SWIDTH 500 0
DWIDTH 8 0
BBX 13 16 -2 -2
BITMAP 
0000
0000
0000
0000
0000
0000
07C0
0800
0800
0800
0600
0100
0100
0600
0000
0000
ENDCHAR
STARTCHAR U+03DC
ENCODING 988
SWIDTH 500 0
DWIDTH 8 0
BBX 13 16 -2 -2
BITMAP 
0000
0000
0000
0000
07E0
0400
0800
0800
0F00
1000
1000
1000
2000
0000
0000
0000
ENDCHAR
STARTCHAR U+03DD
ENCODING 989
SWIDTH 500 0
DWIDTH 8 0
BBX 13 16 -2 -2
BITMAP 
0000
0000
0000
0000
0000
0000
07C0
0400
0400
0F00
0800
0800
1000
1000
1000
2000
ENDCHAR
STARTCHAR U+03DE
ENCODING 990
SWIDTH 500 0
DWIDTH 8 0
BBX 13 16 -2 -2
BITMAP 
0000
0000
0000
0000
0600
0200
0400
0400
04C0
0F00
1900
0200
0400
0700
0000
0000
ENDCHAR
STARTCHAR U+03DF
ENCODING 991
SWIDTH 500 0
DWIDTH 8 0
BBX 13 16 -2 -2
BITMAP 
0000
0000
0000
0000
0000
0180
0200
0600
0400
1FC0
0080
0180
0200
0600
0000
0000
ENDCHAR
STARTCHAR U+03E0
ENCODING 992
SWIDTH 500 0
DWIDTH 8 0
BBX 13 16 -2 -2
BITMAP 
0000
0000
0000
0000
0780
0A40
0440
04C0
0140
0280
0480
0480
0100
0200
0000
0000
ENDCHAR
STARTCHAR U+03E1
ENCODING 993
SWIDTH 500 0
DWIDTH 8 0
BBX 13 16 -2 -2
BITMAP 
0000
0000
0000
0000
0300
0080
0080
0180
0240
0180
0280
0080
0100
0100
0000
0000
ENDCHAR
STARTCHAR U+03E2
ENCODING 994
SWIDTH 500 0
DWIDTH 8 0
BBX 13 16 -2 -2
BITMAP 
0000
0000
0000
0000
0000
0920
1240
1240
1240
1280
0B80
0100
3E00
0000
0000
0000
ENDCHAR
STARTCHAR U+03E3
ENCODING 995
SWIDTH 500 0
DWIDTH 8 0
BBX 13 16 -2 -2
BITMAP 
0000
0000
0000
0000
0000
0000
0000
1240
1240
2480
2480
2C80
3300
0100
3E00
0000
ENDCHAR
STARTCHAR U+03E4
ENCODING 996
SWIDTH 500 0
DWIDTH 8 0
BBX 13 16 -2 -2
BITMAP 
0000
0000
0000
0000
0320
0420
0840
0840
07C0
0080
0080
0080
0100
0000
0000
0000
ENDCHAR
STARTCHAR U+03E5
ENCODING 997
SWIDTH 500 0
DWIDTH 8 0
BBX 13 16 -2 -2
BITMAP 
0000
0000
0000
0000
0280
0480
0900
0900
0700
0200
0200
0200
0400
0000
0000
0000
ENDCHAR
STARTCHAR U+03E6
ENCODING 998
SWIDTH 500 0
DWIDTH 8 0
BBX 13 16 -2 -2
BITMAP 
0000
0000
0000
0000
0700
0200
0400
0700
0480
0880
0880
0880
3900
0100
0600
0000
ENDCHAR
STARTCHAR U+03E7
ENCODING 999
SWIDTH 500 0
DWIDTH 8 0
BBX 13 16 -2 -2
BITMAP 
0000
0000
0000
0000
0000
0200
0200
0700
0A80
0C80
0080
1100
0E00
0000
0000
0000
ENDCHAR
STARTCHAR U+03E8
ENCODING 1000
SWIDTH 500 0
DWIDTH 8 0
BBX 13 16 -2 -2
BITMAP 
0000
0000
0000
0000
0380
0440
0840
0080
0700
0800
1080
1100
0E00
0000
0000
0000
ENDCHAR
STARTCHAR U+03E9
ENCODING 1001
SWIDTH 500 0
DWIDTH 8 0
BBX 13 16 -2 -2
BITMAP 
0000
0000
0000
0000
0000
0380
0440
0840
0580
0600
0800
1000
0F00
0000
0000
0000
ENDCHAR
STARTCHAR U+03EA
ENCODING 1002
SWIDTH 500 0
DWIDTH 8 0
BBX 13 16 -2 -2
BITMAP 
0000
0000
0000
0000
04C0
0200
0200
0500
0900
0900
1100
2080
7F00
0000
0000
0000
ENDCHAR
STARTCHAR U+03EB
ENCODING 1003
SWIDTH 500 0
DWIDTH 8 0
BBX 13 16 -2 -2
BITMAP 
0000
0000
0000
0000
0000
0000
0000
0D80
0200
0600
0A00
1100
3E00
0000
0000
0000
ENDCHAR
STARTCHAR U+03EC
ENCODING 1004
SWIDTH 500 0
DWIDTH 8 0
BBX 13 16 -2 -2
BITMAP 
0000
0000
0000
0000
03C0
0400
0F80
0840
0840
1080
1080
1100
0E00
0000
0000
0000
ENDCHAR
STARTCHAR U+03ED
ENCODING 1005
SWIDTH 500 0
DWIDTH 8 0
BBX 13 16 -2 -2
BITMAP 
0000
0000
0000
0000
0000
0000
0780
0800
0B00
1080
1080
1100
0E00
0000
0000
0000
ENDCHAR
STARTCHAR U+03EE
ENCODING 1006
SWIDTH 500 0
DWIDTH 8 0
BBX 13 16 -2 -2
BITMAP 
0000
0000
0000
0000
0380
0100
0F80
0A80
0200
0400
0400
0400
0800
0000
0000
0000
ENDCHAR
STARTCHAR U+03EF
ENCODING 1007
SWIDTH 500 0
DWIDTH 8 0
BBX 13 16 -2 -2
BITMAP 
0000
0000
0000
0000
0000
0000
0200
0280
0F80
1400
0400
0400
0800
0000
0000
0000
ENDCHAR
STARTCHAR U+03F0
ENCODING 1008
SWIDTH 500 0
DWIDTH 8 0
BBX 13 16 -2 -2
BITMAP 
0000
0000
0000
0000
0000
0000
0000
0840
0880
0900
0E00
1100
2100
0000
0000
0000
ENDCHAR
STARTCHAR U+03F1
ENCODING 1009
SWIDTH 500 0
DWIDTH 8 0
BBX 13 16 -2 -2
BITMAP 
0000
0000
0000
0000
0000
0000
0000
0700
0880
1080
1080
1900
2600
2000
1E00
0000
ENDCHAR
STARTCHAR U+03F2
ENCODING 1010
SWIDTH 500 0
DWIDTH 8 0
BBX 13 16 -2 -2
BITMAP 
0000
0000
0000
0000
0000
0000
0000
0780
0840
1000
1000
1180
0E00
0000
0000
0000
ENDCHAR
STARTCHAR U+03F3
ENCODING 1011
SWIDTH 500 0
DWIDTH 8 0
BBX 13 16 -2 -2
BITMAP 
0000
0000
0000
0000
0000
0040
0000
0180
0080
0100
0100
0100
2200
2200
1C00
0000
ENDCHAR
STARTCHAR U+03F4
ENCODING 1012
SWIDTH 500 0
DWIDTH 8 0
BBX 13 16 -2 -2
BITMAP 
0000
0000
0000
0000
0380
0440
0840
0840
0FC0
1080
1080
1100
0E00
0000
0000
0000
ENDCHAR
STARTCHAR U+03F5
ENCODING 1013
SWIDTH 500 0
DWIDTH 8 0
BBX 13 16 -2 -2
BITMAP 
0000
0000
0000
0000
0000
0000
0000
0780
0800
1E00
1000
1000
0E00
0000
0000
0000
ENDCHAR
STARTCHAR U+0400
ENCODING 1024
SWIDTH 500 0
DWIDTH 8 0
BBX 13 16 -2 -2
BITMAP 
0000
0000
0000
0100
0080
0000
0FC0
0800
0800
1F00
1000
1000
3F00
0000
0000
0000
ENDCHAR
STARTCHAR U+0401
ENCODING 1025
SWIDTH 500 0
DWIDTH 8 0
BBX 13 16 -2 -2
BITMAP 
0120
0120
0000
0000
07E0
0400
0800
0800
0F80
1000
1000
1000
2000
3F00
0000
0000
ENDCHAR
STARTCHAR U+0402
ENCODING 1026
SWIDTH 500 0
DWIDTH 8 0
BBX 13 16 -2 -2
BITMAP 
0000
0000
0000
0000
07E0
0100
0200
0200
0380
0440
0440
0440
0880
0F00
0000
0000
ENDCHAR
STARTCHAR U+0403
ENCODING 1027
SWIDTH 500 0
DWIDTH 8 0
BBX 13 16 -2 -2
BITMAP 
0060
0180
0000
0000
07E0
0400
0800
0800
0800
1000
1000
1000
2000
2000
0000
0000
ENDCHAR
STARTCHAR U+0404
ENCODING 1028
SWIDTH 500 0
DWIDTH 8 0
BBX 13 16 -2 -2
BITMAP 
0000
0000
0000
0000
01C0
0220
0400
0800
0F80
1000
1000
1000
1100
0E00
0000
0000
ENDCHAR
STARTCHAR U+0405
ENCODING 1029
SWIDTH 500 0
DWIDTH 8 0
BBX 13 16 -2 -2
BITMAP 
0000
0000
0000
0000
0380
0440
0840
0800
0600
0100
0080
1080
1100
0E00
0000
0000
ENDCHAR
STARTCHAR U+0406
ENCODING 1030
SWIDTH 500 0
DWIDTH 8 0
BBX 13 16 -2 -2
BITMAP 
0000
0000
0000
0000
03E0
0080
0100
0100
0100
0200
0200
0200
0400
1F00
0000
0000
ENDCHAR
STARTCHAR U+0407
ENCODING 1031
SWIDTH 500 0
DWIDTH 8 0
BBX 13 16 -2 -2
BITMAP 
0120
0120
0000
0000
03E0
0080
0100
0100
0100
0200
0200
0200
0400
1F00
0000
0000
ENDCHAR
STARTCHAR U+0408
ENCODING 1032
SWIDTH 500 0
DWIDTH 8 0
BBX 13 16 -2 -2
BITMAP 
0000
0000
0000
0000
00E0
0040
0080
0080
0080
0100
0100
1100
1200
0C00
0000
0000
ENDCHAR
STARTCHAR U+0409
ENCODING 1033
SWIDTH 500 0
DWIDTH 8 0
BBX 13 16 -2 -2
BITMAP 
0000
0000
0000
0000
0780
0480
0900
0900
0980
1240
1240
1240
2480
4700
0000
0000
ENDCHAR
STARTCHAR U+040A
ENCODING 1034
SWIDTH 500 0
DWIDTH 8 0
BBX 13 16 -2 -2
BITMAP 
0000
0000
0000
0000
0480
0480
0900
0900
0F80
1240
1240
1240
2480
2700
0000
0000
ENDCHAR
STARTCHAR U+040B
ENCODING 1035
SWIDTH 500 0
DWIDTH 8 0
BBX 13 16 -2 -2
BITMAP 
0000
0000
0000
0000
07E0
0100
0200
0200
0380
0440
0440
0440
0880
0880
0000
0000
ENDCHAR
STARTCHAR U+040C
ENCODING 1036
SWIDTH 500 0
DWIDTH 8 0
BBX 13 16 -2 -2
BITMAP 
0060
0180
0000
0000
0400
04E0
0900
0A00
0C00
1800
1400
1200
2200
2100
0000
0000
ENDCHAR
STARTCHAR U+040D
ENCODING 1037
SWIDTH 500 0
DWIDTH 8 0
BBX 13 16 -2 -2
BITMAP 
0000
0000
0000
0100
0080
0420
08C0
08C0
0940
1680
1880
1880
2100
0000
0000
0000
ENDCHAR
STARTCHAR U+040E
ENCODING 1038
SWIDTH 500 0
DWIDTH 8 0
BBX 13 16 -2 -2
BITMAP 
0210
0210
01E0
0000
0410
0420
0420
0440
0480
0500
0200
0400
0400
1800
0000
0000
ENDCHAR
STARTCHAR U+040F
ENCODING 1039
SWIDTH 500 0
DWIDTH 8 0
BBX 13 16 -2 -2
BITMAP 
0000
0000
0000
0000
0410
0410
0820
0820
0820
1040
1FC0
0200
0400
0400
0000
0000
ENDCHAR
STARTCHAR U+0410
ENCODING 1040
SWIDTH 500 0
DWIDTH 8 0
BBX 13 16 -2 -2
BITMAP 
0000
0000
0000
0000
0100
0280
0480
0840
0840
1F80
1080
1080
2100
2100
0000
0000
ENDCHAR
STARTCHAR U+0411
ENCODING 1041
SWIDTH 500 0
DWIDTH 8 0
BBX 13 16 -2 -2
BITMAP 
0000
0000
0000
0000
07C0
0400
0800
0800
0F00
1080
1080
1080
2100
3E00
0000
0000
ENDCHAR
STARTCHAR U+0412
ENCODING 1042
SWIDTH 500 0
DWIDTH 8 0
BBX 13 16 -2 -2
BITMAP 
0000
0000
0000
0000
0780
0440
0840
0840
0F00
1080
1080
1080
2100
3E00
0000
0000
ENDCHAR
STARTCHAR U+0413
ENCODING 1043
SWIDTH 500 0
DWIDTH 8 0
BBX 13 16 -2 -2
BITMAP 
0000
0000
0000
0000
07E0
0400
0800
0800
0800
1000
1000
1000
2000
2000
0000
0000
ENDCHAR
STARTCHAR U+0414
ENCODING 1044
SWIDTH 500 0
DWIDTH 8 0
BBX 13 16 -2 -2
BITMAP 
0000
0000
0000
0000
00E0
0120
0240
0240
0440
0880
0880
1080
2100
3F80
0080
0100
ENDCHAR
STARTCHAR U+0415
ENCODING 1045
SWIDTH 500 0
DWIDTH 8 0
BBX 13 16 -2 -2
BITMAP 
0000
0000
0000
0000
07E0
0400
0800
0800
0F80
1000
1000
1000
2000
3F00
0000
0000
ENDCHAR
STARTCHAR U+0416
ENCODING 1046
SWIDTH 500 0
DWIDTH 8 0
BBX 13 16 -2 -2
BITMAP 
0000
0000
0000
0000
0490
04A0
0520
0540
0780
0700
0A80
1280
1480
2480
0000
0000
ENDCHAR
STARTCHAR U+0417
ENCODING 1047
SWIDTH 500 0
DWIDTH 8 0
BBX 13 16 -2 -2
BITMAP 
0000
0000
0000
0000
0380
0440
0040
0040
0780
0100
0080
0080
2100
1E00
0000
0000
ENDCHAR
STARTCHAR U+0418
ENCODING 1048
SWIDTH 500 0
DWIDTH 8 0
BBX 13 16 -2 -2
BITMAP 
0000
0000
0000
0000
0420
0460
08C0
0940
0A40
1280
1480
1880
3100
2100
0000
0000
ENDCHAR
STARTCHAR U+0419
ENCODING 1049
SWIDTH 500 0
DWIDTH 8 0
BBX 13 16 -2 -2
BITMAP 
0210
0210
01E0
0000
0420
0460
08C0
0940
0A40
1280
1480
1880
3100
2100
0000
0000
ENDCHAR
STARTCHAR U+041A
ENCODING 1050
SWIDTH 500 0
DWIDTH 8 0
BBX 13 16 -2 -2
BITMAP 
0000
0000
0000
0000
0400
04E0
0900
0A00
0C00
1800
1400
1200
2200
2100
0000
0000
ENDCHAR
STARTCHAR U+041B
ENCODING 1051
SWIDTH 500 0
DWIDTH 8 0
BBX 13 16 -2 -2
BITMAP 
0000
0000
0000
0000
01E0
0120
0240
0240
0240
0480
0480
0880
1100
2100
0000
0000
ENDCHAR
STARTCHAR U+041C
ENCODING 1052
SWIDTH 500 0
DWIDTH 8 0
BBX 13 16 -2 -2
BITMAP 
0000
0000
0000
0000
0420
0420
0CC0
0CC0
0D40
1680
1080
1080
2100
2100
0000
0000
ENDCHAR
STARTCHAR U+041D
ENCODING 1053
SWIDTH 500 0
DWIDTH 8 0
BBX 13 16 -2 -2
BITMAP 
0000
0000
0000
0000
0420
0420
0840
0840
0FC0
1080
1080
1080
2100
2100
0000
0000
ENDCHAR
STARTCHAR U+041E
ENCODING 1054
SWIDTH 500 0
DWIDTH 8 0
BBX 13 16 -2 -2
BITMAP 
0000
0000
0000
0000
0380
0440
0840
0840
0840
1080
1080
1080
1100
0E00
0000
0000
ENDCHAR
STARTCHAR U+041F
ENCODING 1055
SWIDTH 500 0
DWIDTH 8 0
BBX 13 16 -2 -2
BITMAP 
0000
0000
0000
0000
07E0
0420
0840
0840
0840
1080
1080
1080
2100
2100
0000
0000
ENDCHAR
STARTCHAR U+0420
ENCODING 1056
SWIDTH 500 0
DWIDTH 8 0
BBX 13 16 -2 -2
BITMAP 
0000
0000
0000
0000
0780
0440
0840
0840
0F80
1000
1000
1000
2000
2000
0000
0000
ENDCHAR
STARTCHAR U+0421
ENCODING 1057
SWIDTH 500 0
DWIDTH 8 0
BBX 13 16 -2 -2
BITMAP 
0000
0000
0000
0000
0380
0440
0840
0800
0800
1000
1000
1080
1100
0E00
0000
0000
ENDCHAR
STARTCHAR U+0422
ENCODING 1058
SWIDTH 500 0
DWIDTH 8 0
BBX 13 16 -2 -2
BITMAP 
0000
0000
0000
0000
07F0
0080
0100
0100
0100
0200
0200
0200
0400
0400
0000
0000
ENDCHAR
STARTCHAR U+0423
ENCODING 1059
SWIDTH 500 0
DWIDTH 8 0
BBX 13 16 -2 -2
BITMAP 
0000
0000
0000
0000
0410
0420
0420
0440
0480
0500
0200
0400
0400
1800
0000
0000
ENDCHAR
STARTCHAR U+0424
ENCODING 1060
SWIDTH 500 0
DWIDTH 8 0
BBX 13 16 -2 -2
BITMAP 
0000
0000
0000
0080
0080
03C0
0520
0920
0920
1240
1240
0F80
0400
0400
0000
0000
ENDCHAR
STARTCHAR U+0425
ENCODING 1061
SWIDTH 500 0
DWIDTH 8 0
BBX 13 16 -2 -2
BITMAP 
0000
0000
0000
0000
0420
0440
0440
0480
0500
0600
0900
1100
1100
2100
0000
0000
ENDCHAR
STARTCHAR U+0426
ENCODING 1062
SWIDTH 500 0
DWIDTH 8 0
BBX 13 16 -2 -2
BITMAP 
0000
0000
0000
0000
0420
0420
0840
0840
0840
1080
1080
1080
2100
3F80
0080
0100
ENDCHAR
STARTCHAR U+0427
ENCODING 1063
SWIDTH 500 0
DWIDTH 8 0
BBX 13 16 -2 -2
BITMAP 
0000
0000
0000
0000
0420
0420
0840
0840
0840
0980
0680
0080
0100
0100
0000
0000
ENDCHAR
STARTCHAR U+0428
ENCODING 1064
SWIDTH 500 0
DWIDTH 8 0
BBX 13 16 -2 -2
BITMAP 
0000
0000
0000
0000
0490
0490
0920
0920
0920
1240
1240
1240
2480
3F80
0000
0000
ENDCHAR
STARTCHAR U+0429
ENCODING 1065
SWIDTH 500 0
DWIDTH 8 0
BBX 13 16 -2 -2
BITMAP 
0000
0000
0000
0000
0490
0490
0920
0920
0920
1240
1240
1240
2480
3F80
0080
0100
ENDCHAR
STARTCHAR U+042A
ENCODING 1066
SWIDTH 500 0
DWIDTH 8 0
BBX 13 16 -2 -2
BITMAP 
0000
0000
0000
0000
0700
0100
0200
0200
0380
0440
0440
0440
0880
0F00
0000
0000
ENDCHAR
STARTCHAR U+042B
ENCODING 1067
SWIDTH 500 0
DWIDTH 8 0
BBX 13 16 -2 -2
BITMAP 
0000
0000
0000
0000
0420
0420
0840
0840
0C40
1280
1280
1280
2500
3900
0000
0000
ENDCHAR
STARTCHAR U+042C
ENCODING 1068
SWIDTH 500 0
DWIDTH 8 0
BBX 13 16 -2 -2
BITMAP 
0000
0000
0000
0000
0400
0400
0800
0800
0F00
1080
1080
1080
2100
3E00
0000
0000
ENDCHAR
STARTCHAR U+042D
ENCODING 1069
SWIDTH 500 0
DWIDTH 8 0
BBX 13 16 -2 -2
BITMAP 
0000
0000
0000
0000
0380
0440
0040
0040
07C0
0080
0080
0100
2200
1C00
0000
0000
ENDCHAR
STARTCHAR U+042E
ENCODING 1070
SWIDTH 500 0
DWIDTH 8 0
BBX 13 16 -2 -2
BITMAP 
0000
0000
0000
0000
0480
0540
0A40
0A40
0E40
1480
1480
1480
2500
2200
0000
0000
ENDCHAR
STARTCHAR U+042F
ENCODING 1071
SWIDTH 500 0
DWIDTH 8 0
BBX 13 16 -2 -2
BITMAP 
0000
0000
0000
0000
03E0
0420
0840
0840
07C0
0480
0880
1080
1100
2100
0000
0000
ENDCHAR
STARTCHAR U+0430
ENCODING 1072
SWIDTH 500 0
DWIDTH 8 0
BBX 13 16 -2 -2
BITMAP 
0000
0000
0000
0000
0000
0000
0780
0840
0040
0F80
1080
1080
1300
0D00
0000
0000
ENDCHAR
STARTCHAR U+0431
ENCODING 1073
SWIDTH 500 0
DWIDTH 8 0
BBX 13 16 -2 -2
BITMAP 
0000
0000
0000
0000
0000
0000
0F80
0800
0800
1F00
1080
1080
2100
3E00
0000
0000
ENDCHAR
STARTCHAR U+0432
ENCODING 1074
SWIDTH 500 0
DWIDTH 8 0
BBX 13 16 -2 -2
BITMAP 
0000
0000
0000
0000
0000
0000
0F80
0840
0880
1F00
1080
1080
2100
3E00
0000
0000
ENDCHAR
STARTCHAR U+0433
ENCODING 1075
SWIDTH 500 0
DWIDTH 8 0
BBX 13 16 -2 -2
BITMAP 
0000
0000
0000
0000
0000
0000
0FC0
0800
0800
1000
1000
1000
2000
2000
0000
0000
ENDCHAR
STARTCHAR U+0434
ENCODING 1076
SWIDTH 500 0
DWIDTH 8 0
BBX 13 16 -2 -2
BITMAP 
0000
0000
0000
0000
0000
0000
03C0
0240
0440
0880
1080
1080
2100
3F80
0080
0000
ENDCHAR
STARTCHAR U+0435
ENCODING 1077
SWIDTH 500 0
DWIDTH 8 0
BBX 13 16 -2 -2
BITMAP 
0000
0000
0000
0000
0000
0000
0780
0840
0840
1F80
1000
1000
1100
0E00
0000
0000
ENDCHAR
STARTCHAR U+0436
ENCODING 1078
SWIDTH 500 0
DWIDTH 8 0
BBX 13 16 -2 -2
BITMAP 
0000
0000
0000
0000
0000
0000
0920
0920
0540
0780
0700
0A80
1480
2480
0000
0000
ENDCHAR
STARTCHAR U+0437
ENCODING 1079
SWIDTH 500 0
DWIDTH 8 0
BBX 13 16 -2 -2
BITMAP 
0000
0000
0000
0000
0000
0000
0780
0840
0080
0E80
0100
0100
2100
1E00
0000
0000
ENDCHAR
STARTCHAR U+0438
ENCODING 1080
SWIDTH 500 0
DWIDTH 8 0
BBX 13 16 -2 -2
BITMAP 
0000
0000
0000
0000
0000
0000
08C0
08C0
0940
1280
1480
1880
2900
3100
0000
0000
ENDCHAR
STARTCHAR U+0439
ENCODING 1081
SWIDTH 500 0
DWIDTH 8 0
BBX 13 16 -2 -2
BITMAP 
0000
0210
0220
01C0
0000
0000
08C0
08C0
0940
1280
1480
1880
2900
3100
0000
0000
ENDCHAR
STARTCHAR U+043A
ENCODING 1082
SWIDTH 500 0
DWIDTH 8 0
BBX 13 16 -2 -2
BITMAP 
0000
0000
0000
0000
0000
0000
08C0
0900
0E00
1800
1400
1200
2200
2100
0000
0000
ENDCHAR
STARTCHAR U+043B
ENCODING 1083
SWIDTH 500 0
DWIDTH 8 0
BBX 13 16 -2 -2
BITMAP 
0000
0000
0000
0000
0000
0000
03C0
0240
0240
0480
0480
0880
1100
2100
0000
0000
ENDCHAR
STARTCHAR U+043C
ENCODING 1084
SWIDTH 500 0
DWIDTH 8 0
BBX 13 16 -2 -2
BITMAP 
0000
0000
0000
0000
0000
0000
0840
0CC0
0DC0
1680
1680
1080
2100
2100
0000
0000
ENDCHAR
STARTCHAR U+043D
ENCODING 1085
SWIDTH 500 0
DWIDTH 8 0
BBX 13 16 -2 -2
BITMAP 
0000
0000
0000
0000
0000
0000
0840
0840
0840
1F80
1080
1080
2100
2100
0000
0000
ENDCHAR
STARTCHAR U+043E
ENCODING 1086
SWIDTH 500 0
DWIDTH 8 0
BBX 13 16 -2 -2
BITMAP 
0000
0000
0000
0000
0000
0000
0780
0840
0840
1080
1080
1080
1100
0E00
0000
0000
ENDCHAR
STARTCHAR U+043F
ENCODING 1087
SWIDTH 500 0
DWIDTH 8 0
BBX 13 16 -2 -2
BITMAP 
0000
0000
0000
0000
0000
0000
0FC0
0840
0840
1080
1080
1080
2100
2100
0000
0000
ENDCHAR
STARTCHAR U+0440
ENCODING 1088
SWIDTH 500 0
DWIDTH 8 0
BBX 13 16 -2 -2
BITMAP 
0000
0000
0000
0000
0000
0000
0B80
0C40
0840
1080
1080
1080
3100
2E00
2000
4000
ENDCHAR
STARTCHAR U+0441
ENCODING 1089
SWIDTH 500 0
DWIDTH 8 0
BBX 13 16 -2 -2
BITMAP 
0000
0000
0000
0000
0000
0000
0780
0840
0800
1000
1000
1000
1100
0E00
0000
0000
ENDCHAR
STARTCHAR U+0442
ENCODING 1090
SWIDTH 500 0
DWIDTH 8 0
BBX 13 16 -2 -2
BITMAP 
0000
0000
0000
0000
0000
0000
0FE0
0100
0100
0200
0200
0200
0400
0400
0000
0000
ENDCHAR
STARTCHAR U+0443
ENCODING 1091
SWIDTH 500 0
DWIDTH 8 0
BBX 13 16 -2 -2
BITMAP 
0000
0000
0000
0000
0000
0000
0840
0840
0880
0900
0600
0600
0800
0800
1000
6000
ENDCHAR
STARTCHAR U+0444
ENCODING 1092
SWIDTH 500 0
DWIDTH 8 0
BBX 13 16 -2 -2
BITMAP 
0000
0000
0000
0000
0000
0080
0100
0780
0940
1240
1240
1280
0F00
0400
0400
0000
ENDCHAR
STARTCHAR U+0445
ENCODING 1093
SWIDTH 500 0
DWIDTH 8 0
BBX 13 16 -2 -2
BITMAP 
0000
0000
0000
0000
0000
0000
0840
0840
0580
0600
0600
0900
1100
2100
0000
0000
ENDCHAR
STARTCHAR U+0446
ENCODING 1094
SWIDTH 500 0
DWIDTH 8 0
BBX 13 16 -2 -2
BITMAP 
0000
0000
0000
0000
0000
0000
0840
0840
0840
1080
1080
1080
2100
3F80
0080
0100
ENDCHAR
STARTCHAR U+0447
ENCODING 1095
SWIDTH 500 0
DWIDTH 8 0
BBX 13 16 -2 -2
BITMAP 
0000
0000
0000
0000
0000
0000
0840
0840
0840
1080
1180
0E80
0100
0100
0000
0000
ENDCHAR
STARTCHAR U+0448
ENCODING 1096
SWIDTH 500 0
DWIDTH 8 0
BBX 13 16 -2 -2
BITMAP 
0000
0000
0000
0000
0000
0000
0920
0920
0920
1240
1240
1240
2480
3F80
0000
0000
ENDCHAR
STARTCHAR U+0449
ENCODING 1097
SWIDTH 500 0
DWIDTH 8 0
BBX 13 16 -2 -2
BITMAP 
0000
0000
0000
0000
0000
0000
0920
0920
0920
1240
1240
1240
2480
3F80
0080
0100
ENDCHAR
STARTCHAR U+044A
ENCODING 1098
SWIDTH 500 0
DWIDTH 8 0
BBX 13 16 -2 -2
BITMAP 
0000
0000
0000
0000
0000
0000
0E00
0200
0200
0780
0440
0440
0880
0F00
0000
0000
ENDCHAR
STARTCHAR U+044B
ENCODING 1099
SWIDTH 500 0
DWIDTH 8 0
BBX 13 16 -2 -2
BITMAP 
0000
0000
0000
0000
0000
0000
0840
0840
0840
1C80
1280
1280
2500
3900
0000
0000
ENDCHAR
STARTCHAR U+044C
ENCODING 1100
SWIDTH 500 0
DWIDTH 8 0
BBX 13 16 -2 -2
BITMAP 
0000
0000
0000
0000
0000
0000
0800
0800
0800
1F00
1080
1080
2100
3E00
0000
0000
ENDCHAR
STARTCHAR U+044D
ENCODING 1101
SWIDTH 500 0
DWIDTH 8 0
BBX 13 16 -2 -2
BITMAP 
0000
0000
0000
0000
0000
0000
0700
0880
0040
0F80
0080
0100
2200
1C00
0000
0000
ENDCHAR
STARTCHAR U+044E
ENCODING 1102
SWIDTH 500 0
DWIDTH 8 0
BBX 13 16 -2 -2
BITMAP 
0000
0000
0000
0000
0000
0000
0980
0A40
0A40
1C80
1480
1480
2500
2200
0000
0000
ENDCHAR
STARTCHAR U+044F
ENCODING 1103
SWIDTH 500 0
DWIDTH 8 0
BBX 13 16 -2 -2
BITMAP 
0000
0000
0000
0000
0000
0000
07C0
0840
0840
0880
0780
0C80
1100
2100
0000
0000
ENDCHAR
STARTCHAR U+0450
ENCODING 1104
SWIDTH 500 0
DWIDTH 8 0
BBX 13 16 -2 -2
BITMAP 
0000
0000
0000
0000
0100
0080
0000
0780
0840
1F80
1000
1180
0E00
0000
0000
0000
ENDCHAR
STARTCHAR U+0451
ENCODING 1105
SWIDTH 500 0
DWIDTH 8 0
BBX 13 16 -2 -2
BITMAP 
0000
0000
0120
0240
0000
0000
0780
0840
0840
1F80
1000
1000
1100
0E00
0000
0000
ENDCHAR
STARTCHAR U+0452
ENCODING 1106
SWIDTH 500 0
DWIDTH 8 0
BBX 13 16 -2 -2
BITMAP 
0000
0000
0000
0000
0200
0200
0F00
0400
0400
0F00
0880
0880
1100
1100
0600
0000
ENDCHAR
STARTCHAR U+0453
ENCODING 1107
SWIDTH 500 0
DWIDTH 8 0
BBX 13 16 -2 -2
BITMAP 
0000
0000
00E0
0300
0000
0000
0FC0
0800
0800
1000
1000
1000
2000
2000
0000
0000
ENDCHAR
STARTCHAR U+0454
ENCODING 1108
SWIDTH 500 0
DWIDTH 8 0
BBX 13 16 -2 -2
BITMAP 
0000
0000
0000
0000
0000
0000
0380
0440
0800
1F00
1000
1000
1100
0E00
0000
0000
ENDCHAR
STARTCHAR U+0455
ENCODING 1109
SWIDTH 500 0
DWIDTH 8 0
BBX 13 16 -2 -2
BITMAP 
0000
0000
0000
0000
0000
0000
0780
0840
0800
0400
0200
0100
2100
1E00
0000
0000
ENDCHAR
STARTCHAR U+0456
ENCODING 1110
SWIDTH 500 0
DWIDTH 8 0
BBX 13 16 -2 -2
BITMAP 
0000
0000
0000
0080
0080
0000
0300
0100
0100
0200
0200
0200
0400
1F00
0000
0000
ENDCHAR
STARTCHAR U+0457
ENCODING 1111
SWIDTH 500 0
DWIDTH 8 0
BBX 13 16 -2 -2
BITMAP 
0000
0000
0000
0240
0240
0000
0300
0100
0100
0200
0200
0200
0400
1F00
0000
0000
ENDCHAR
STARTCHAR U+0458
ENCODING 1112
SWIDTH 500 0
DWIDTH 8 0
BBX 13 16 -2 -2
BITMAP 
0000
0000
0000
0040
0040
0000
0180
0080
0080
0100
0100
0100
0200
0200
2C00
3000
ENDCHAR
STARTCHAR U+0459
ENCODING 1113
SWIDTH 500 0
DWIDTH 8 0
BBX 13 16 -2 -2
BITMAP 
0000
0000
0000
0000
0000
0000
0F00
0900
0900
1380
1240
1240
2480
4700
0000
0000
ENDCHAR
STARTCHAR U+045A
ENCODING 1114
SWIDTH 500 0
DWIDTH 8 0
BBX 13 16 -2 -2
BITMAP 
0000
0000
0000
0000
0000
0000
0900
0900
0900
1F80
1240
1240
2480
2700
0000
0000
ENDCHAR
STARTCHAR U+045B
ENCODING 1115
SWIDTH 500 0
DWIDTH 8 0
BBX 13 16 -2 -2
BITMAP 
0000
0000
0000
0000
0200
0200
0F00
0400
0400
0B00
0C80
0880
1100
1100
0000
0000
ENDCHAR
STARTCHAR U+045C
ENCODING 1116
SWIDTH 500 0
DWIDTH 8 0
BBX 13 16 -2 -2
BITMAP 
0000
0000
00E0
0300
0000
0000
08C0
0900
0E00
1800
1400
1200
2200
2100
0000
0000
ENDCHAR
STARTCHAR U+045D
ENCODING 1117
SWIDTH 500 0
DWIDTH 8 0
BBX 13 16 -2 -2
BITMAP 
0000
0000
0000
0000
0100
0080
0000
0840
09C0
1280
1480
1880
2100
0000
0000
0000
ENDCHAR
STARTCHAR U+045E
ENCODING 1118
SWIDTH 500 0
DWIDTH 8 0
BBX 13 16 -2 -2
BITMAP 
0000
0210
0220
01C0
0000
0000
0840
0840
0880
0900
0600
0600
0800
0800
1000
6000
ENDCHAR
STARTCHAR U+045F
ENCODING 1119
SWIDTH 500 0
DWIDTH 8 0
BBX 13 16 -2 -2
BITMAP 
0000
0000
0000
0000
0000
0000
0440
0440
0440
0880
0880
0880
1F00
0400
0400
0800
ENDCHAR
STARTCHAR U+0460
ENCODING 1120
SWIDTH 500 0
DWIDTH 8 0
BBX 13 16 -2 -2
BITMAP 
0000
0000
0000
0000
0340
0420
0820
0820
0820
1240
1240
1240
1280
0B00
0000
0000
ENDCHAR
STARTCHAR U+0461
ENCODING 1121
SWIDTH 500 0
DWIDTH 8 0
BBX 13 16 -2 -2
BITMAP 
0000
0000
0000
0000
0000
0000
0440
0820
0820
1240
1240
1240
1280
0B00
0000
0000
ENDCHAR
STARTCHAR U+0462
ENCODING 1122
SWIDTH 500 0
DWIDTH 8 0
BBX 13 16 -2 -2
BITMAP 
0000
0000
0000
0000
0100
07C0
0200
0200
0380
0440
0440
0440
0880
0F00
0000
0000
ENDCHAR
STARTCHAR U+0463
ENCODING 1123
SWIDTH 500 0
DWIDTH 8 0
BBX 13 16 -2 -2
BITMAP 
0000
0000
0000
0000
0200
0200
0F00
0400
0400
0F00
0880
0880
1100
1E00
0000
0000
ENDCHAR
STARTCHAR U+0464
ENCODING 1124
SWIDTH 500 0
DWIDTH 8 0
BBX 13 16 -2 -2
BITMAP 
0000
0000
0000
0000
0460
0490
0900
0A00
0FC0
1400
1400
1400
2480
2300
0000
0000
ENDCHAR
STARTCHAR U+0465
ENCODING 1125
SWIDTH 500 0
DWIDTH 8 0
BBX 13 16 -2 -2
BITMAP 
0000
0000
0000
0000
0000
0000
08C0
0920
0A00
1F80
1400
1400
2480
2300
0000
0000
ENDCHAR
STARTCHAR U+0466
ENCODING 1126
SWIDTH 500 0
DWIDTH 8 0
BBX 13 16 -2 -2
BITMAP 
0000
0000
0000
0000
0080
0080
0180
0280
0440
0D80
0A80
1280
2480
2480
0000
0000
ENDCHAR
STARTCHAR U+0467
ENCODING 1127
SWIDTH 500 0
DWIDTH 8 0
BBX 13 16 -2 -2
BITMAP 
0000
0000
0000
0000
0000
0000
0100
0280
0480
0880
0D80
1680
2480
2480
0000
0000
ENDCHAR
STARTCHAR U+0468
ENCODING 1128
SWIDTH 500 0
DWIDTH 8 0
BBX 13 16 -2 -2
BITMAP 
0000
0000
0000
0000
0480
0480
0980
0A80
0A40
1D80
1E80
1280
2480
2480
0000
0000
ENDCHAR
STARTCHAR U+0469
ENCODING 1129
SWIDTH 500 0
DWIDTH 8 0
BBX 13 16 -2 -2
BITMAP 
0000
0000
0000
0000
0000
0000
0900
0A80
0A80
1480
1D80
1680
2480
2480
0000
0000
ENDCHAR
STARTCHAR U+046A
ENCODING 1130
SWIDTH 500 0
DWIDTH 8 0
BBX 13 16 -2 -2
BITMAP 
0000
0000
0000
0000
03E0
0220
0240
0280
0100
0700
0A80
1280
2480
2480
0000
0000
ENDCHAR
STARTCHAR U+046B
ENCODING 1131
SWIDTH 500 0
DWIDTH 8 0
BBX 13 16 -2 -2
BITMAP 
0000
0000
0000
0000
0000
0000
07C0
0480
0300
0200
0F00
1280
2480
2480
0000
0000
ENDCHAR
STARTCHAR U+046C
ENCODING 1132
SWIDTH 500 0
DWIDTH 8 0
BBX 13 16 -2 -2
BITMAP 
0000
0000
0000
0000
05F0
0510
0920
0940
0C80
1380
1540
1540
2A80
2A80
0000
0000
ENDCHAR
STARTCHAR U+046D
ENCODING 1133
SWIDTH 500 0
DWIDTH 8 0
BBX 13 16 -2 -2
BITMAP 
0000
0000
0000
0000
0000
0000
0BE0
0A40
0B80
1D00
1380
1580
2A80
2A80
0000
0000
ENDCHAR
STARTCHAR U+046E
ENCODING 1134
SWIDTH 500 0
DWIDTH 8 0
BBX 13 16 -2 -2
BITMAP 
0000
0000
0160
0180
03C0
0440
0040
0040
0780
0100
0080
0080
0100
1E00
2000
4000
ENDCHAR
STARTCHAR U+046F
ENCODING 1135
SWIDTH 500 0
DWIDTH 8 0
BBX 13 16 -2 -2
BITMAP 
0000
0000
0000
0240
0180
0000
0780
0840
0080
0E80
0100
0100
0100
1E00
2000
4000
ENDCHAR
STARTCHAR U+0470
ENCODING 1136
SWIDTH 500 0
DWIDTH 8 0
BBX 13 16 -2 -2
BITMAP 
0000
0000
0000
0000
0490
0490
0920
0920
0940
0780
0200
0200
0400
0400
0000
0000
ENDCHAR
STARTCHAR U+0471
ENCODING 1137
SWIDTH 500 0
DWIDTH 8 0
BBX 13 16 -2 -2
BITMAP 
0000
0000
0000
0000
0000
0000
0000
0000
0920
1240
1240
1240
1480
0F00
0400
0800
ENDCHAR
STARTCHAR U+0472
ENCODING 1138
SWIDTH 500 0
DWIDTH 8 0
BBX 13 16 -2 -2
BITMAP 
0000
0000
0000
0000
0380
0440
0840
0840
0FC0
1080
1080
1080
1100
0E00
0000
0000
ENDCHAR
STARTCHAR U+0473
ENCODING 1139
SWIDTH 500 0
DWIDTH 8 0
BBX 13 16 -2 -2
BITMAP 
0000
0000
0000
0000
0000
0000
0780
0840
0840
1F80
1080
1080
1100
0E00
0000
0000
ENDCHAR
STARTCHAR U+0474
ENCODING 1140
SWIDTH 500 0
DWIDTH 8 0
BBX 13 16 -2 -2
BITMAP 
0000
0000
0000
0000
0430
0440
0880
0880
0900
0A00
0A00
0C00
0800
0800
0000
0000
ENDCHAR
STARTCHAR U+0475
ENCODING 1141
SWIDTH 500 0
DWIDTH 8 0
BBX 13 16 -2 -2
BITMAP 
0000
0000
0000
0000
0000
0000
08C0
0900
0900
0A00
0A00
0C00
0400
0800
0000
0000
ENDCHAR
STARTCHAR U+0476
ENCODING 1142
SWIDTH 500 0
DWIDTH 8 0
BBX 13 16 -2 -2
BITMAP 
0330
0088
0000
0000
0430
0440
0880
0880
0900
0A00
0A00
0C00
0800
0800
0000
0000
ENDCHAR
STARTCHAR U+0477
ENCODING 1143
SWIDTH 500 0
DWIDTH 8 0
BBX 13 16 -2 -2
BITMAP 
0000
0000
0230
0110
0000
0000
08C0
0900
0900
0A00
0A00
0C00
0400
0800
0000
0000
ENDCHAR
STARTCHAR U+0478
ENCODING 1144
SWIDTH 500 0
DWIDTH 8 0
BBX 13 16 -2 -2
BITMAP 
0000
0000
0000
0000
0200
0600
0B20
0B20
0B20
1540
1580
1500
1A00
1200
0400
0800
ENDCHAR
STARTCHAR U+0479
ENCODING 1145
SWIDTH 500 0
DWIDTH 8 0
BBX 13 16 -2 -2
BITMAP 
0000
0000
0000
0000
0000
0000
0520
0B20
0B20
1540
1580
1500
1A00
1200
0400
0800
ENDCHAR
STARTCHAR U+047A
ENCODING 1146
SWIDTH 500 0
DWIDTH 8 0
BBX 13 16 -2 -2
BITMAP 
0000
0000
0000
0080
03C0
04A0
0820
0820
0820
1040
1040
1040
1480
0F00
0400
0000
ENDCHAR
STARTCHAR U+047B
ENCODING 1147
SWIDTH 500 0
DWIDTH 8 0
BBX 13 16 -2 -2
BITMAP 
0000
0000
0000
0000
0000
0080
07C0
0920
0820
1040
1040
1040
1480
0F00
0400
0000
ENDCHAR
STARTCHAR U+047C
ENCODING 1148
SWIDTH 500 0
DWIDTH 8 0
BBX 13 16 -2 -2
BITMAP 
01E0
0218
00C0
0000
0340
0420
0820
0820
0820
1240
1240
1240
1280
0B00
0000
0000
ENDCHAR
STARTCHAR U+047D
ENCODING 1149
SWIDTH 500 0
DWIDTH 8 0
BBX 13 16 -2 -2
BITMAP 
0000
0000
03E0
0410
0180
0000
0440
0820
0820
1240
1240
1240
1280
0B00
0000
0000
ENDCHAR
STARTCHAR U+047E
ENCODING 1150
SWIDTH 500 0
DWIDTH 8 0
BBX 13 16 -2 -2
BITMAP 
03F8
0040
0000
0000
0340
0420
0820
0820
0820
1240
1240
1240
1280
0B00
0000
0000
ENDCHAR
STARTCHAR U+047F
ENCODING 1151
SWIDTH 500 0
DWIDTH 8 0
BBX 13 16 -2 -2
BITMAP 
0000
0000
03F8
0080
0000
0000
0440
0820
0820
1240
1240
1240
1280
0B00
0000
0000
ENDCHAR
STARTCHAR U+0480
ENCODING 1152
SWIDTH 500 0
DWIDTH 8 0
BBX 13 16 -2 -2
BITMAP 
0000
0000
0000
0000
0380
0440
0840
0800
0800
1000
1000
1000
0E00
0200
0200
0400
ENDCHAR
STARTCHAR U+0481
ENCODING 1153
SWIDTH 500 0
DWIDTH 8 0
BBX 13 16 -2 -2
BITMAP 
0000
0000
0000
0000
0000
0000
0780
0840
0840
1000
1000
1000
0E00
0200
0200
0400
ENDCHAR
STARTCHAR U+0482
ENCODING 1154
SWIDTH 500 0
DWIDTH 8 0
BBX 13 16 -2 -2
BITMAP 
0000
0000
0000
0000
0000
0000
0240
0180
0980
0A80
0440
0E00
1200
0000
0000
0000
ENDCHAR
STARTCHAR U+0483
ENCODING 1155
SWIDTH 500 0
DWIDTH 8 0
BBX 13 16 -2 -2
BITMAP 
0000
0040
03C0
0400
0000
0000
0000
0000
0000
0000
0000
0000
0000
0000
0000
0000
ENDCHAR
STARTCHAR U+0484
ENCODING 1156
SWIDTH 500 0
DWIDTH 8 0
BBX 13 16 -2 -2
BITMAP 
0000
0080
0380
0480
0800
0000
0000
0000
0000
0000
0000
0000
0000
0000
0000
0000
ENDCHAR
STARTCHAR U+0485
ENCODING 1157
SWIDTH 500 0
DWIDTH 8 0
BBX 13 16 -2 -2
BITMAP 
0000
0200
03C0
0400
0000
0000
0000
0000
0000
0000
0000
0000
0000
0000
0000
0000
ENDCHAR
STARTCHAR U+0486
ENCODING 1158
SWIDTH 500 0
DWIDTH 8 0
BBX 13 16 -2 -2
BITMAP 
0000
0040
03C0
0080
0000
0000
0000
0000
0000
0000
0000
0000
0000
0000
0000
0000
ENDCHAR
STARTCHAR U+0488
ENCODING 1160
SWIDTH 500 0
DWIDTH 8 0
BBX 13 16 -2 -2
BITMAP 
0000
0000
0000
0000
0080
0220
0000
0820
0000
0880
0200
0000
0000
0000
0000
0000
ENDCHAR
STARTCHAR U+0489
ENCODING 1161
SWIDTH 500 0
DWIDTH 8 0
BBX 13 16 -2 -2
BITMAP 
0000
0000
0000
0080
0490
0220
0000
0C60
0000
0880
1240
0200
0000
0000
0000
0000
ENDCHAR
STARTCHAR U+048C
ENCODING 1164
SWIDTH 500 0
DWIDTH 8 0
BBX 13 16 -2 -2
BITMAP 
0000
0000
0000
0000
0400
0F00
0800
0800
0F00
1080
1080
1080
2100
3E00
0000
0000
ENDCHAR
STARTCHAR U+048D
ENCODING 1165
SWIDTH 500 0
DWIDTH 8 0
BBX 13 16 -2 -2
BITMAP 
0000
0000
0000
0000
0000
0000
0800
1E00
0800
1000
1E00
1100
2100
3E00
0000
0000
ENDCHAR
STARTCHAR U+048E
ENCODING 1166
SWIDTH 500 0
DWIDTH 8 0
BBX 13 16 -2 -2
BITMAP 
0000
0000
0000
0000
0780
0440
0840
0940
08C0
1F00
1080
1000
2000
2000
0000
0000
ENDCHAR
STARTCHAR U+048F
ENCODING 1167
SWIDTH 500 0
DWIDTH 8 0
BBX 13 16 -2 -2
BITMAP 
0000
0000
0000
0000
0000
0000
0B80
0C40
0840
1080
1280
1980
2600
2100
2000
4000
ENDCHAR
STARTCHAR U+0490
ENCODING 1168
SWIDTH 500 0
DWIDTH 8 0
BBX 13 16 -2 -2
BITMAP 
0000
0000
0010
0020
07E0
0400
0800
0800
0800
1000
1000
1000
2000
2000
0000
0000
ENDCHAR
STARTCHAR U+0491
ENCODING 1169
SWIDTH 500 0
DWIDTH 8 0
BBX 13 16 -2 -2
BITMAP 
0000
0000
0000
0000
0020
0020
0FC0
0800
0800
1000
1000
1000
2000
2000
0000
0000
ENDCHAR
STARTCHAR U+0492
ENCODING 1170
SWIDTH 500 0
DWIDTH 8 0
BBX 13 16 -2 -2
BITMAP 
0000
0000
0000
0000
01F0
0100
0200
0200
0200
1F00
0400
0400
0800
0800
0000
0000
ENDCHAR
STARTCHAR U+0493
ENCODING 1171
SWIDTH 500 0
DWIDTH 8 0
BBX 13 16 -2 -2
BITMAP 
0000
0000
0000
0000
0000
0000
03E0
0200
0200
0400
1F00
0400
0800
0800
0000
0000
ENDCHAR
STARTCHAR U+0494
ENCODING 1172
SWIDTH 500 0
DWIDTH 8 0
BBX 13 16 -2 -2
BITMAP 
0000
0000
0000
0000
07E0
0400
0800
0800
0800
1F00
1080
1080
2100
2100
0600
0000
ENDCHAR
STARTCHAR U+0495
ENCODING 1173
SWIDTH 500 0
DWIDTH 8 0
BBX 13 16 -2 -2
BITMAP 
0000
0000
0000
0000
0000
0000
0FC0
0800
0800
1000
1E00
1100
2100
2100
0600
0000
ENDCHAR
STARTCHAR U+0496
ENCODING 1174
SWIDTH 500 0
DWIDTH 8 0
BBX 13 16 -2 -2
BITMAP 
0000
0000
0000
0000
0490
04A0
0520
0540
0780
0700
0A80
1280
1480
2480
0080
0100
ENDCHAR
STARTCHAR U+0497
ENCODING 1175
SWIDTH 500 0
DWIDTH 8 0
BBX 13 16 -2 -2
BITMAP 
0000
0000
0000
0000
0000
0000
0920
0920
0540
0780
0700
0A80
1480
2480
0080
0100
ENDCHAR
STARTCHAR U+0498
ENCODING 1176
SWIDTH 500 0
DWIDTH 8 0
BBX 13 16 -2 -2
BITMAP 
0000
0000
0000
0000
0380
0440
0040
0040
0780
0100
0080
0080
2100
1E00
0C00
3000
ENDCHAR
STARTCHAR U+0499
ENCODING 1177
SWIDTH 500 0
DWIDTH 8 0
BBX 13 16 -2 -2
BITMAP 
0000
0000
0000
0000
0000
0000
0780
0840
0080
0E80
0100
0100
2100
1E00
0C00
3000
ENDCHAR
STARTCHAR U+049A
ENCODING 1178
SWIDTH 500 0
DWIDTH 8 0
BBX 13 16 -2 -2
BITMAP 
0000
0000
0000
0000
0400
04E0
0900
0A00
0C00
1800
1400
1200
2200
2100
0100
0200
ENDCHAR
STARTCHAR U+049B
ENCODING 1179
SWIDTH 500 0
DWIDTH 8 0
BBX 13 16 -2 -2
BITMAP 
0000
0000
0000
0000
0000
0000
08C0
0900
0E00
1800
1400
1200
2200
2100
0100
0200
ENDCHAR
STARTCHAR U+049C
ENCODING 1180
SWIDTH 500 0
DWIDTH 8 0
BBX 13 16 -2 -2
BITMAP 
0000
0000
0000
0000
0400
0430
0A40
0A80
0F00
1500
1500
1500
2100
2080
0000
0000
ENDCHAR
STARTCHAR U+049D
ENCODING 1181
SWIDTH 500 0
DWIDTH 8 0
BBX 13 16 -2 -2
BITMAP 
0000
0000
0000
0000
0000
0000
0860
0A80
0B00
1E00
1500
1500
2100
2080
0000
0000
ENDCHAR
STARTCHAR U+049E
ENCODING 1182
SWIDTH 500 0
DWIDTH 8 0
BBX 13 16 -2 -2
BITMAP 
0000
0000
0000
0000
0200
0770
0480
0500
0600
0C00
0A00
0900
1100
1080
0000
0000
ENDCHAR
STARTCHAR U+049F
ENCODING 1183
SWIDTH 500 0
DWIDTH 8 0
BBX 13 16 -2 -2
BITMAP 
0000
0000
0000
0000
0000
0000
0460
0E80
0700
0C00
0A00
0900
1100
1080
0000
0000
ENDCHAR
STARTCHAR U+04A0
ENCODING 1184
SWIDTH 500 0
DWIDTH 8 0
BBX 13 16 -2 -2
BITMAP 
0000
0000
0000
0000
0E00
0270
0480
0500
0600
0C00
0A00
0900
1100
1080
0000
0000
ENDCHAR
STARTCHAR U+04A1
ENCODING 1185
SWIDTH 500 0
DWIDTH 8 0
BBX 13 16 -2 -2
BITMAP 
0000
0000
0000
0000
0000
0000
1C60
0480
0700
0C00
0A00
0900
1100
1080
0000
0000
ENDCHAR
STARTCHAR U+04A2
ENCODING 1186
SWIDTH 500 0
DWIDTH 8 0
BBX 13 16 -2 -2
BITMAP 
0000
0000
0000
0000
0420
0420
0840
0840
0FC0
1080
1080
1080
2100
2180
0080
0100
ENDCHAR
STARTCHAR U+04A3
ENCODING 1187
SWIDTH 500 0
DWIDTH 8 0
BBX 13 16 -2 -2
BITMAP 
0000
0000
0000
0000
0000
0000
0840
0840
0840
1F80
1080
1080
2100
2180
0080
0100
ENDCHAR
STARTCHAR U+04A4
ENCODING 1188
SWIDTH 500 0
DWIDTH 8 0
BBX 13 16 -2 -2
BITMAP 
0000
0000
0000
0000
0470
0440
0880
0880
0F80
1100
1100
1100
2200
2200
0000
0000
ENDCHAR
STARTCHAR U+04A5
ENCODING 1189
SWIDTH 500 0
DWIDTH 8 0
BBX 13 16 -2 -2
BITMAP 
0000
0000
0000
0000
0000
0000
08E0
0880
0880
1F00
1100
1100
2200
2200
0000
0000
ENDCHAR
STARTCHAR U+04A6
ENCODING 1190
SWIDTH 500 0
DWIDTH 8 0
BBX 13 16 -2 -2
BITMAP 
0000
0000
0000
0000
0780
0480
0900
0900
0900
1380
1240
1240
2480
2480
0100
0600
ENDCHAR
STARTCHAR U+04A7
ENCODING 1191
SWIDTH 500 0
DWIDTH 8 0
BBX 13 16 -2 -2
BITMAP 
0000
0000
0000
0000
0000
0000
0F00
0900
0900
1200
1300
1280
2480
2480
0100
0600
ENDCHAR
STARTCHAR U+04A8
ENCODING 1192
SWIDTH 500 0
DWIDTH 8 0
BBX 13 16 -2 -2
BITMAP 
0000
0000
0000
0000
01C0
0200
0400
0900
0A80
1480
1480
1D00
1600
0C00
0300
0000
ENDCHAR
STARTCHAR U+04A9
ENCODING 1193
SWIDTH 500 0
DWIDTH 8 0
BBX 13 16 -2 -2
BITMAP 
0000
0000
0000
0000
0000
0000
0380
0400
0980
1280
1480
1D00
1600
0C00
0300
0000
ENDCHAR
STARTCHAR U+04AA
ENCODING 1194
SWIDTH 500 0
DWIDTH 8 0
BBX 13 16 -2 -2
BITMAP 
0000
0000
0000
0000
0380
0440
0840
0800
0800
1000
1000
1080
1100
0E00
0800
0400
ENDCHAR
STARTCHAR U+04AB
ENCODING 1195
SWIDTH 500 0
DWIDTH 8 0
BBX 13 16 -2 -2
BITMAP 
0000
0000
0000
0000
0000
0000
0780
0840
0840
1000
1000
1080
1100
0E00
0800
0400
ENDCHAR
STARTCHAR U+04AC
ENCODING 1196
SWIDTH 500 0
DWIDTH 8 0
BBX 13 16 -2 -2
BITMAP 
0000
0000
0000
0000
07F0
0080
0100
0100
0100
0200
0200
0200
0400
0600
0200
0400
ENDCHAR
STARTCHAR U+04AD
ENCODING 1197
SWIDTH 500 0
DWIDTH 8 0
BBX 13 16 -2 -2
BITMAP 
0000
0000
0000
0000
0000
0000
0FE0
0100
0100
0200
0200
0200
0400
0600
0200
0400
ENDCHAR
STARTCHAR U+04AE
ENCODING 1198
SWIDTH 500 0
DWIDTH 8 0
BBX 13 16 -2 -2
BITMAP 
0000
0000
0000
0000
0410
0420
0420
0440
0380
0200
0200
0200
0400
0400
0000
0000
ENDCHAR
STARTCHAR U+04AF
ENCODING 1199
SWIDTH 500 0
DWIDTH 8 0
BBX 13 16 -2 -2
BITMAP 
0000
0000
0000
0000
0000
0000
0440
0440
0480
0480
0500
0600
0400
0400
0400
0800
ENDCHAR
STARTCHAR U+04B0
ENCODING 1200
SWIDTH 500 0
DWIDTH 8 0
BBX 13 16 -2 -2
BITMAP 
0000
0000
0000
0000
0410
0420
0420
0440
0380
0200
0200
0F80
0400
0400
0000
0000
ENDCHAR
STARTCHAR U+04B1
ENCODING 1201
SWIDTH 500 0
DWIDTH 8 0
BBX 13 16 -2 -2
BITMAP 
0000
0000
0000
0000
0000
0000
0440
0440
0480
0500
0200
0200
1F00
0400
0000
0000
ENDCHAR
STARTCHAR U+04B2
ENCODING 1202
SWIDTH 500 0
DWIDTH 8 0
BBX 13 16 -2 -2
BITMAP 
0000
0000
0000
0000
0420
0440
0440
0480
0500
0600
0900
1100
1100
2180
0080
0100
ENDCHAR
STARTCHAR U+04B3
ENCODING 1203
SWIDTH 500 0
DWIDTH 8 0
BBX 13 16 -2 -2
BITMAP 
0000
0000
0000
0000
0000
0000
0840
0840
0580
0600
0600
0900
1100
2180
0080
0100
ENDCHAR
STARTCHAR U+04B4
ENCODING 1204
SWIDTH 500 0
DWIDTH 8 0
BBX 13 16 -2 -2
BITMAP 
0000
0000
0000
0000
0FA0
0220
0440
0440
0440
0880
0880
0880
1100
1F80
0080
0100
ENDCHAR
STARTCHAR U+04B5
ENCODING 1205
SWIDTH 500 0
DWIDTH 8 0
BBX 13 16 -2 -2
BITMAP 
0000
0000
0000
0000
0000
0000
1F40
0440
0440
0880
0880
0880
1100
1F80
0080
0100
ENDCHAR
STARTCHAR U+04B6
ENCODING 1206
SWIDTH 500 0
DWIDTH 8 0
BBX 13 16 -2 -2
BITMAP 
0000
0000
0000
0000
0420
0420
0840
0840
0840
0980
0680
0080
0100
0180
0080
0100
ENDCHAR
STARTCHAR U+04B7
ENCODING 1207
SWIDTH 500 0
DWIDTH 8 0
BBX 13 16 -2 -2
BITMAP 
0000
0000
0000
0000
0000
0000
0840
0840
0840
1080
1180
0E80
0100
0180
0080
0100
ENDCHAR
STARTCHAR U+04B8
ENCODING 1208
SWIDTH 500 0
DWIDTH 8 0
BBX 13 16 -2 -2
BITMAP 
0000
0000
0000
0000
0420
0420
0840
0840
0A40
0D80
0680
0480
0900
0100
0000
0000
ENDCHAR
STARTCHAR U+04B9
ENCODING 1209
SWIDTH 500 0
DWIDTH 8 0
BBX 13 16 -2 -2
BITMAP 
0000
0000
0000
0000
0000
0000
0840
0840
0840
1480
1580
0E80
0900
0100
0000
0000
ENDCHAR
STARTCHAR U+04BA
ENCODING 1210
SWIDTH 500 0
DWIDTH 8 0
BBX 13 16 -2 -2
BITMAP 
0000
0000
0000
0000
0400
0400
0800
0B00
0C80
1080
1080
1080
2100
2100
0000
0000
ENDCHAR
STARTCHAR U+04BB
ENCODING 1211
SWIDTH 500 0
DWIDTH 8 0
BBX 13 16 -2 -2
BITMAP 
0000
0000
0000
0000
0000
0000
0800
0800
0F00
1880
1080
1080
2100
2100
0000
0000
ENDCHAR
STARTCHAR U+04BC
ENCODING 1212
SWIDTH 500 0
DWIDTH 8 0
BBX 13 16 -2 -2
BITMAP 
0000
0000
0000
0000
0480
0540
0A40
0A40
07C0
0400
0400
0480
0500
0200
0000
0000
ENDCHAR
STARTCHAR U+04BD
ENCODING 1213
SWIDTH 500 0
DWIDTH 8 0
BBX 13 16 -2 -2
BITMAP 
0000
0000
0000
0000
0000
0000
0980
0A40
0A40
0F80
0400
0400
0500
0200
0000
0000
ENDCHAR
STARTCHAR U+04BE
ENCODING 1214
SWIDTH 500 0
DWIDTH 8 0
BBX 13 16 -2 -2
BITMAP 
0000
0000
0000
0000
0480
0540
0A40
0A40
07C0
0400
0400
0480
0500
0600
0400
0200
ENDCHAR
STARTCHAR U+04BF
ENCODING 1215
SWIDTH 500 0
DWIDTH 8 0
BBX 13 16 -2 -2
BITMAP 
0000
0000
0000
0000
0000
0000
0980
0A40
0A40
0F80
0400
0400
0500
0600
0400
0200
ENDCHAR
STARTCHAR U+04C0
ENCODING 1216
SWIDTH 500 0
DWIDTH 8 0
BBX 13 16 -2 -2
BITMAP 
0000
0000
0000
0000
03E0
0080
0100
0100
0100
0200
0200
0200
0400
1F00
0000
0000
ENDCHAR
STARTCHAR U+04C1
ENCODING 1217
SWIDTH 500 0
DWIDTH 8 0
BBX 13 16 -2 -2
BITMAP 
0208
0208
01F0
0000
0490
04A0
0520
0540
0780
0700
0A80
1280
1480
2480
0000
0000
ENDCHAR
STARTCHAR U+04C2
ENCODING 1218
SWIDTH 500 0
DWIDTH 8 0
BBX 13 16 -2 -2
BITMAP 
0000
0110
0120
00C0
0000
0000
0920
0920
0540
0780
0700
0A80
1480
2480
0000
0000
ENDCHAR
STARTCHAR U+04C3
ENCODING 1219
SWIDTH 500 0
DWIDTH 8 0
BBX 13 16 -2 -2
BITMAP 
0000
0000
0000
0000
0400
04E0
0900
0A00
0C00
1F00
1080
1080
2100
2100
0200
0C00
ENDCHAR
STARTCHAR U+04C4
ENCODING 1220
SWIDTH 500 0
DWIDTH 8 0
BBX 13 16 -2 -2
BITMAP 
0000
0000
0000
0000
0000
0000
08C0
0900
0E00
1800
1E00
1100
2100
2100
0200
0C00
ENDCHAR
STARTCHAR U+04C7
ENCODING 1223
SWIDTH 500 0
DWIDTH 8 0
BBX 13 16 -2 -2
BITMAP 
0000
0000
0000
0000
0420
0420
0840
0840
0FC0
1080
1080
1080
2100
2100
0200
0C00
ENDCHAR
STARTCHAR U+04C8
ENCODING 1224
SWIDTH 500 0
DWIDTH 8 0
BBX 13 16 -2 -2
BITMAP 
0000
0000
0000
0000
0000
0000
0840
0840
0840
1F80
1080
1080
2100
2100
0200
0C00
ENDCHAR
STARTCHAR U+04CB
ENCODING 1227
SWIDTH 500 0
DWIDTH 8 0
BBX 13 16 -2 -2
BITMAP 
0000
0000
0000
0000
0420
0420
0840
0840
0840
0980
0680
0080
0100
0300
0200
0400
ENDCHAR
STARTCHAR U+04CC
ENCODING 1228
SWIDTH 500 0
DWIDTH 8 0
BBX 13 16 -2 -2
BITMAP 
0000
0000
0000
0000
0000
0000
0840
0840
0840
1080
1180
0E80
0100
0300
0200
0400
ENDCHAR
STARTCHAR U+04D0
ENCODING 1232
SWIDTH 500 0
DWIDTH 8 0
BBX 13 16 -2 -2
BITMAP 
0210
0210
01E0
0000
0100
0280
0480
0840
0840
1F80
1080
1080
2100
2100
0000
0000
ENDCHAR
STARTCHAR U+04D1
ENCODING 1233
SWIDTH 500 0
DWIDTH 8 0
BBX 13 16 -2 -2
BITMAP 
0000
0210
0220
01C0
0000
0000
0780
0840
0040
0F80
1080
1080
1300
0D00
0000
0000
ENDCHAR
STARTCHAR U+04D2
ENCODING 1234
SWIDTH 500 0
DWIDTH 8 0
BBX 13 16 -2 -2
BITMAP 
0120
0120
0000
0000
0100
0280
0480
0840
0840
1F80
1080
1080
2100
2100
0000
0000
ENDCHAR
STARTCHAR U+04D3
ENCODING 1235
SWIDTH 500 0
DWIDTH 8 0
BBX 13 16 -2 -2
BITMAP 
0000
0000
0120
0240
0000
0000
0780
0840
0040
0F80
1080
1080
1300
0D00
0000
0000
ENDCHAR
STARTCHAR U+04D4
ENCODING 1236
SWIDTH 500 0
DWIDTH 8 0
BBX 13 16 -2 -2
BITMAP 
0000
0000
0000
0000
01F0
0280
0500
0900
0FE0
1200
1200
1200
2400
2780
0000
0000
ENDCHAR
STARTCHAR U+04D5
ENCODING 1237
SWIDTH 500 0
DWIDTH 8 0
BBX 13 16 -2 -2
BITMAP 
0000
0000
0000
0000
0000
0000
07C0
0920
0120
0FC0
1200
1200
1480
0F00
0000
0000
ENDCHAR
STARTCHAR U+04D6
ENCODING 1238
SWIDTH 500 0
DWIDTH 8 0
BBX 13 16 -2 -2
BITMAP 
0210
0210
01E0
0000
07E0
0400
0800
0800
0F80
1000
1000
1000
2000
3F00
0000
0000
ENDCHAR
STARTCHAR U+04D7
ENCODING 1239
SWIDTH 500 0
DWIDTH 8 0
BBX 13 16 -2 -2
BITMAP 
0000
0000
0210
0220
01C0
0000
0780
0840
0840
1F80
1000
1000
1100
0E00
0000
0000
ENDCHAR
STARTCHAR U+04D8
ENCODING 1240
SWIDTH 500 0
DWIDTH 8 0
BBX 13 16 -2 -2
BITMAP 
0000
0000
0000
0000
0180
0640
0840
0040
0040
1F80
1080
1100
1200
0C00
0000
0000
ENDCHAR
STARTCHAR U+04D9
ENCODING 1241
SWIDTH 500 0
DWIDTH 8 0
BBX 13 16 -2 -2
BITMAP 
0000
0000
0000
0000
0000
0000
0780
0840
0040
0080
1F80
1080
1100
0E00
0000
0000
ENDCHAR
STARTCHAR U+04DA
ENCODING 1242
SWIDTH 500 0
DWIDTH 8 0
BBX 13 16 -2 -2
BITMAP 
0120
0120
0000
0000
0180
0640
0840
0040
0040
1F80
1080
1100
1200
0C00
0000
0000
ENDCHAR
STARTCHAR U+04DB
ENCODING 1243
SWIDTH 500 0
DWIDTH 8 0
BBX 13 16 -2 -2
BITMAP 
0000
0000
0120
0240
0000
0000
0780
0840
0040
0080
1F80
1080
1100
0E00
0000
0000
ENDCHAR
STARTCHAR U+04DC
ENCODING 1244
SWIDTH 500 0
DWIDTH 8 0
BBX 13 16 -2 -2
BITMAP 
0120
0120
0000
0000
0490
04A0
0520
0540
0780
0700
0A80
1280
1480
2480
0000
0000
ENDCHAR
STARTCHAR U+04DD
ENCODING 1245
SWIDTH 500 0
DWIDTH 8 0
BBX 13 16 -2 -2
BITMAP 
0000
0000
0120
0240
0000
0000
0920
0920
0540
0780
0700
0A80
1480
2480
0000
0000
ENDCHAR
STARTCHAR U+04DE
ENCODING 1246
SWIDTH 500 0
DWIDTH 8 0
BBX 13 16 -2 -2
BITMAP 
0120
0120
0000
0000
0380
0440
0040
0040
0780
0100
0080
0080
2100
1E00
0000
0000
ENDCHAR
STARTCHAR U+04DF
ENCODING 1247
SWIDTH 500 0
DWIDTH 8 0
BBX 13 16 -2 -2
BITMAP 
0000
0000
0120
0240
0000
0000
0780
0840
0080
0E80
0100
0100
2100
1E00
0000
0000
ENDCHAR
STARTCHAR U+04E0
ENCODING 1248
SWIDTH 500 0
DWIDTH 8 0
BBX 13 16 -2 -2
BITMAP 
0000
0000
0000
0000
07E0
00C0
0100
0200
0300
0080
0080
0080
2300
1E00
0000
0000
ENDCHAR
STARTCHAR U+04E1
ENCODING 1249
SWIDTH 500 0
DWIDTH 8 0
BBX 13 16 -2 -2
BITMAP 
0000
0000
0000
0000
0000
0000
07C0
0080
0100
0200
0700
0100
0100
0100
2200
1C00
ENDCHAR
STARTCHAR U+04E2
ENCODING 1250
SWIDTH 500 0
DWIDTH 8 0
BBX 13 16 -2 -2
BITMAP 
0000
01E0
0000
0000
0420
0460
08C0
0940
0A40
1280
1480
1880
3100
2100
0000
0000
ENDCHAR
STARTCHAR U+04E3
ENCODING 1251
SWIDTH 500 0
DWIDTH 8 0
BBX 13 16 -2 -2
BITMAP 
0000
0000
0000
03C0
0000
0000
08C0
08C0
0940
1280
1480
1880
2900
3100
0000
0000
ENDCHAR
STARTCHAR U+04E4
ENCODING 1252
SWIDTH 500 0
DWIDTH 8 0
BBX 13 16 -2 -2
BITMAP 
0120
0120
0000
0000
0420
0460
08C0
0940
0A40
1280
1480
1880
3100
2100
0000
0000
ENDCHAR
STARTCHAR U+04E5
ENCODING 1253
SWIDTH 500 0
DWIDTH 8 0
BBX 13 16 -2 -2
BITMAP 
0000
0000
0120
0240
0000
0000
08C0
08C0
0940
1280
1480
1880
2900
3100
0000
0000
ENDCHAR
STARTCHAR U+04E6
ENCODING 1254
SWIDTH 500 0
DWIDTH 8 0
BBX 13 16 -2 -2
BITMAP 
0120
0120
0000
0000
0380
0440
0840
0840
0840
1080
1080
1080
1100
0E00
0000
0000
ENDCHAR
STARTCHAR U+04E7
ENCODING 1255
SWIDTH 500 0
DWIDTH 8 0
BBX 13 16 -2 -2
BITMAP 
0000
0000
0120
0240
0000
0000
0780
0840
0840
1080
1080
1080
1100
0E00
0000
0000
ENDCHAR
STARTCHAR U+04E8
ENCODING 1256
SWIDTH 500 0
DWIDTH 8 0
BBX 13 16 -2 -2
BITMAP 
0000
0000
0000
0000
0380
0440
0840
0840
0FC0
1080
1080
1080
1100
0E00
0000
0000
ENDCHAR
STARTCHAR U+04E9
ENCODING 1257
SWIDTH 500 0
DWIDTH 8 0
BBX 13 16 -2 -2
BITMAP 
0000
0000
0000
0000
0000
0000
0780
0840
0840
1F80
1080
1080
1100
0E00
0000
0000
ENDCHAR
STARTCHAR U+04EA
ENCODING 1258
SWIDTH 500 0
DWIDTH 8 0
BBX 13 16 -2 -2
BITMAP 
0120
0120
0000
0000
0380
0440
0840
0840
0FC0
1080
1080
1080
1100
0E00
0000
0000
ENDCHAR
STARTCHAR U+04EB
ENCODING 1259
SWIDTH 500 0
DWIDTH 8 0
BBX 13 16 -2 -2
BITMAP 
0000
0000
0120
0240
0000
0000
0780
0840
0840
1F80
1080
1080
1100
0E00
0000
0000
ENDCHAR
STARTCHAR U+04EC
ENCODING 1260
SWIDTH 500 0
DWIDTH 8 0
BBX 13 16 -2 -2
BITMAP 
0120
0120
0000
0000
0380
0440
0040
0040
07C0
0080
0080
0100
2200
1C00
0000
0000
ENDCHAR
STARTCHAR U+04ED
ENCODING 1261
SWIDTH 500 0
DWIDTH 8 0
BBX 13 16 -2 -2
BITMAP 
0000
0000
0120
0240
0000
0000
0700
0880
0040
0F80
0080
0100
2200
1C00
0000
0000
ENDCHAR
STARTCHAR U+04EE
ENCODING 1262
SWIDTH 500 0
DWIDTH 8 0
BBX 13 16 -2 -2
BITMAP 
0000
01F0
0000
0000
0410
0420
0420
0440
0480
0500
0200
0400
0400
1800
0000
0000
ENDCHAR
STARTCHAR U+04EF
ENCODING 1263
SWIDTH 500 0
DWIDTH 8 0
BBX 13 16 -2 -2
BITMAP 
0000
0000
0000
03C0
0000
0000
0840
0840
0880
0900
0600
0600
0800
0800
1000
6000
ENDCHAR
STARTCHAR U+04F0
ENCODING 1264
SWIDTH 500 0
DWIDTH 8 0
BBX 13 16 -2 -2
BITMAP 
0120
0120
0000
0000
0410
0420
0420
0440
0480
0500
0200
0400
0400
1800
0000
0000
ENDCHAR
STARTCHAR U+04F1
ENCODING 1265
SWIDTH 500 0
DWIDTH 8 0
BBX 13 16 -2 -2
BITMAP 
0000
0000
0120
0240
0000
0000
0840
0840
0880
0900
0600
0600
0800
0800
1000
6000
ENDCHAR
STARTCHAR U+04F2
ENCODING 1266
SWIDTH 500 0
DWIDTH 8 0
BBX 13 16 -2 -2
BITMAP 
0198
0220
0000
0000
0410
0420
0420
0440
0480
0500
0200
0400
0400
1800
0000
0000
ENDCHAR
STARTCHAR U+04F3
ENCODING 1267
SWIDTH 500 0
DWIDTH 8 0
BBX 13 16 -2 -2
BITMAP 
0000
0000
0398
0440
0000
0000
0840
0840
0880
0900
0600
0600
0800
0800
1000
6000
ENDCHAR
STARTCHAR U+04F4
ENCODING 1268
SWIDTH 500 0
DWIDTH 8 0
BBX 13 16 -2 -2
BITMAP 
0120
0120
0000
0000
0420
0420
0840
0840
0840
0980
0680
0080
0100
0100
0000
0000
ENDCHAR
STARTCHAR U+04F5
ENCODING 1269
SWIDTH 500 0
DWIDTH 8 0
BBX 13 16 -2 -2
BITMAP 
0000
0000
0120
0240
0000
0000
0840
0840
0840
1080
1180
0E80
0100
0100
0000
0000
ENDCHAR
STARTCHAR U+04F8
ENCODING 1272
SWIDTH 500 0
DWIDTH 8 0
BBX 13 16 -2 -2
BITMAP 
0120
0120
0000
0000
0420
0420
0840
0840
0C40
1280
1280
1280
2500
3900
0000
0000
ENDCHAR
STARTCHAR U+04F9
ENCODING 1273
SWIDTH 500 0
DWIDTH 8 0
BBX 13 16 -2 -2
BITMAP 
0000
0000
0120
0240
0000
0000
0840
0840
0840
1C80
1280
1280
2500
3900
0000
0000
ENDCHAR
STARTCHAR U+0531
ENCODING 1329
SWIDTH 500 0
DWIDTH 8 0
BBX 13 16 -2 -2
BITMAP 
0000
0000
0000
0000
0440
0440
0880
0880
0880
1100
1100
11C0
1280
0C00
0000
0000
ENDCHAR
STARTCHAR U+0532
ENCODING 1330
SWIDTH 500 0
DWIDTH 8 0
BBX 13 16 -2 -2
BITMAP 
0000
0000
0000
0000
0380
0440
0840
0800
0F00
1080
1000
1000
2000
2000
0000
0000
ENDCHAR
STARTCHAR U+0533
ENCODING 1331
SWIDTH 500 0
DWIDTH 8 0
BBX 13 16 -2 -2
BITMAP 
0000
0000
0000
0000
0300
0480
0880
0880
0880
0780
0140
0100
0200
0200
0000
0000
ENDCHAR
STARTCHAR U+0534
ENCODING 1332
SWIDTH 500 0
DWIDTH 8 0
BBX 13 16 -2 -2
BITMAP 
0000
0000
0000
0000
0300
0480
0880
0080
0080
0180
0140
0100
0200
0200
0000
0000
ENDCHAR
STARTCHAR U+0535
ENCODING 1333
SWIDTH 500 0
DWIDTH 8 0
BBX 13 16 -2 -2
BITMAP 
0000
0000
0000
0000
0400
0400
0F80
0840
0800
1000
1000
1080
1100
0E00
0000
0000
ENDCHAR
STARTCHAR U+0536
ENCODING 1334
SWIDTH 500 0
DWIDTH 8 0
BBX 13 16 -2 -2
BITMAP 
0000
0000
0000
0000
0180
0240
0440
0440
0480
0280
0100
0600
0800
3E00
0100
0000
ENDCHAR
STARTCHAR U+0537
ENCODING 1335
SWIDTH 500 0
DWIDTH 8 0
BBX 13 16 -2 -2
BITMAP 
0000
0000
0000
0000
0400
0400
0800
0F80
0840
1000
1000
1000
2000
3E00
0100
0000
ENDCHAR
STARTCHAR U+0538
ENCODING 1336
SWIDTH 500 0
DWIDTH 8 0
BBX 13 16 -2 -2
BITMAP 
0000
0000
0000
0000
0380
0440
0840
0800
0800
1000
1000
1000
2000
3E00
0100
0000
ENDCHAR
STARTCHAR U+0539
ENCODING 1337
SWIDTH 500 0
DWIDTH 8 0
BBX 13 16 -2 -2
BITMAP 
0000
0000
0000
0000
0300
0480
0880
09E0
0A80
1300
1200
1000
2000
2000
0000
0000
ENDCHAR
STARTCHAR U+053A
ENCODING 1338
SWIDTH 500 0
DWIDTH 8 0
BBX 13 16 -2 -2
BITMAP 
0000
0000
0000
0000
0040
0040
0080
0080
07E0
0900
1100
1100
1200
0C00
0000
0000
ENDCHAR
STARTCHAR U+053B
ENCODING 1339
SWIDTH 500 0
DWIDTH 8 0
BBX 13 16 -2 -2
BITMAP 
0000
0000
0000
0000
0400
0400
0B80
0C40
0840
1000
1000
1000
2000
2000
0000
0000
ENDCHAR
STARTCHAR U+053C
ENCODING 1340
SWIDTH 500 0
DWIDTH 8 0
BBX 13 16 -2 -2
BITMAP 
0000
0000
0000
0000
0400
0400
0800
0800
0800
1000
1000
1000
2000
3E00
0100
0000
ENDCHAR
STARTCHAR U+053D
ENCODING 1341
SWIDTH 500 0
DWIDTH 8 0
BBX 13 16 -2 -2
BITMAP 
0000
0000
0000
0000
0400
0400
0800
0F20
0920
1140
1080
1000
2000
2000
0000
0000
ENDCHAR
STARTCHAR U+053E
ENCODING 1342
SWIDTH 500 0
DWIDTH 8 0
BBX 13 16 -2 -2
BITMAP 
0000
0000
0000
0000
07E0
0380
0480
0840
0840
1080
1080
1100
1200
0C00
0000
0000
ENDCHAR
STARTCHAR U+053F
ENCODING 1343
SWIDTH 500 0
DWIDTH 8 0
BBX 13 16 -2 -2
BITMAP 
0000
0000
0000
0000
0420
0420
0840
0840
0840
1080
1080
0F80
0100
0100
0000
0000
ENDCHAR
STARTCHAR U+0540
ENCODING 1344
SWIDTH 500 0
DWIDTH 8 0
BBX 13 16 -2 -2
BITMAP 
0000
0000
0000
0000
0080
0100
0100
0100
0600
0800
1000
1800
0400
0300
0000
0000
ENDCHAR
STARTCHAR U+0541
ENCODING 1345
SWIDTH 500 0
DWIDTH 8 0
BBX 13 16 -2 -2
BITMAP 
0000
0000
0000
0000
0180
0240
0440
0440
0480
0680
0900
1600
1200
0B00
0000
0000
ENDCHAR
STARTCHAR U+0542
ENCODING 1346
SWIDTH 500 0
DWIDTH 8 0
BBX 13 16 -2 -2
BITMAP 
0000
0000
0000
0000
0300
0480
0880
0080
0080
0100
0100
0100
0200
0300
0080
0000
ENDCHAR
STARTCHAR U+0543
ENCODING 1347
SWIDTH 500 0
DWIDTH 8 0
BBX 13 16 -2 -2
BITMAP 
0000
0000
0000
0000
0040
0480
0300
0480
0880
0880
1080
1080
2100
3F00
0000
0000
ENDCHAR
STARTCHAR U+0544
ENCODING 1348
SWIDTH 500 0
DWIDTH 8 0
BBX 13 16 -2 -2
BITMAP 
0000
0000
0000
0000
0470
0450
0880
0880
0880
1100
1100
1100
1200
0C00
0000
0000
ENDCHAR
STARTCHAR U+0545
ENCODING 1349
SWIDTH 500 0
DWIDTH 8 0
BBX 13 16 -2 -2
BITMAP 
0000
0000
0000
0000
0180
0240
0040
0840
0F00
1080
0080
0080
1100
0E00
0000
0000
ENDCHAR
STARTCHAR U+0546
ENCODING 1350
SWIDTH 500 0
DWIDTH 8 0
BBX 13 16 -2 -2
BITMAP 
0000
0000
0000
0000
0400
0300
0200
0200
0200
0400
0400
0400
0880
0880
0700
0000
ENDCHAR
STARTCHAR U+0547
ENCODING 1351
SWIDTH 500 0
DWIDTH 8 0
BBX 13 16 -2 -2
BITMAP 
0000
0000
0000
0400
03C0
0400
0400
0800
0840
1080
1080
1080
1100
0E00
0000
0000
ENDCHAR
STARTCHAR U+0548
ENCODING 1352
SWIDTH 500 0
DWIDTH 8 0
BBX 13 16 -2 -2
BITMAP 
0000
0000
0000
0000
0380
0440
0840
0840
0840
1080
1080
1080
2100
2100
0000
0000
ENDCHAR
STARTCHAR U+0549
ENCODING 1353
SWIDTH 500 0
DWIDTH 8 0
BBX 13 16 -2 -2
BITMAP 
0000
0000
0000
0000
0180
0240
0440
0440
0480
0300
0200
0400
0800
3F00
0000
0000
ENDCHAR
STARTCHAR U+054A
ENCODING 1354
SWIDTH 500 0
DWIDTH 8 0
BBX 13 16 -2 -2
BITMAP 
0000
0000
0000
0000
03C0
04A0
0920
0920
0920
0240
0240
0040
0080
0080
0000
0000
ENDCHAR
STARTCHAR U+054B
ENCODING 1355
SWIDTH 500 0
DWIDTH 8 0
BBX 13 16 -2 -2
BITMAP 
0000
0000
0000
0000
0180
0240
0440
0440
0480
0480
0300
0400
0800
3E00
0100
0000
ENDCHAR
STARTCHAR U+054C
ENCODING 1356
SWIDTH 500 0
DWIDTH 8 0
BBX 13 16 -2 -2
BITMAP 
0000
0000
0000
0000
0300
0480
0880
08E0
08A0
1100
1100
1100
2200
2200
0000
0000
ENDCHAR
STARTCHAR U+054D
ENCODING 1357
SWIDTH 500 0
DWIDTH 8 0
BBX 13 16 -2 -2
BITMAP 
0000
0000
0000
0000
0420
0420
0840
0840
0840
1080
1080
1080
1100
0E00
0000
0000
ENDCHAR
STARTCHAR U+054E
ENCODING 1358
SWIDTH 500 0
DWIDTH 8 0
BBX 13 16 -2 -2
BITMAP 
0000
0000
0000
0000
0440
0440
0880
0880
0880
1100
1100
0F00
0200
0300
0080
0000
ENDCHAR
STARTCHAR U+054F
ENCODING 1359
SWIDTH 500 0
DWIDTH 8 0
BBX 13 16 -2 -2
BITMAP 
0000
0000
0000
0000
0380
0440
0840
0800
0600
0100
0080
1080
1100
0E00
0000
0000
ENDCHAR
STARTCHAR U+0550
ENCODING 1360
SWIDTH 500 0
DWIDTH 8 0
BBX 13 16 -2 -2
BITMAP 
0000
0000
0000
0000
0380
0440
0840
0800
0800
1000
1000
1000
2000
2000
0000
0000
ENDCHAR
STARTCHAR U+0551
ENCODING 1361
SWIDTH 500 0
DWIDTH 8 0
BBX 13 16 -2 -2
BITMAP 
0000
0000
0000
0000
0380
0440
0840
0840
0F00
1080
0080
0080
2100
1E00
0000
0000
ENDCHAR
STARTCHAR U+0552
ENCODING 1362
SWIDTH 500 0
DWIDTH 8 0
BBX 13 16 -2 -2
BITMAP 
0000
0000
0000
0000
0400
0400
0B00
0C80
0880
1080
1040
1000
2000
2000
0000
0000
ENDCHAR
STARTCHAR U+0553
ENCODING 1363
SWIDTH 500 0
DWIDTH 8 0
BBX 13 16 -2 -2
BITMAP 
0000
0000
0000
0000
0100
0380
0680
0A80
0A80
1500
1500
1600
1C00
0800
0000
0000
ENDCHAR
STARTCHAR U+0554
ENCODING 1364
SWIDTH 500 0
DWIDTH 8 0
BBX 13 16 -2 -2
BITMAP 
0000
0000
0000
0000
0080
0140
0240
0240
0380
0400
1F00
0400
0800
0800
0000
0000
ENDCHAR
STARTCHAR U+0555
ENCODING 1365
SWIDTH 500 0
DWIDTH 8 0
BBX 13 16 -2 -2
BITMAP 
0000
0000
0000
0000
0380
0440
0840
0840
0840
1080
1080
1080
1100
0E00
0000
0000
ENDCHAR
STARTCHAR U+0556
ENCODING 1366
SWIDTH 500 0
DWIDTH 8 0
BBX 13 16 -2 -2
BITMAP 
0000
0000
0000
0000
0380
0480
0500
0300
0180
0240
0240
0240
2480
1F00
0000
0000
ENDCHAR
STARTCHAR U+0559
ENCODING 1369
SWIDTH 500 0
DWIDTH 8 0
BBX 13 16 -2 -2
BITMAP 
0080
0100
0100
0100
0000
0000
0000
0000
0000
0000
0000
0000
0000
0000
0000
0000
ENDCHAR
STARTCHAR U+055A
ENCODING 1370
SWIDTH 500 0
DWIDTH 8 0
BBX 13 16 -2 -2
BITMAP 
0100
0080
0100
0200
0000
0000
0000
0000
0000
0000
0000
0000
0000
0000
0000
0000
ENDCHAR
STARTCHAR U+055B
ENCODING 1371
SWIDTH 500 0
DWIDTH 8 0
BBX 13 16 -2 -2
BITMAP 
0040
00C0
0180
0000
0000
0000
0000
0000
0000
0000
0000
0000
0000
0000
0000
0000
ENDCHAR
STARTCHAR U+055C
ENCODING 1372
SWIDTH 500 0
DWIDTH 8 0
BBX 13 16 -2 -2
BITMAP 
0060
0180
0000
0000
0000
0000
0000
0000
0000
0000
0000
0000
0000
0000
0000
0000
ENDCHAR
STARTCHAR U+055D
ENCODING 1373
SWIDTH 500 0
DWIDTH 8 0
BBX 13 16 -2 -2
BITMAP 
0100
0080
0040
0000
0000
0000
0000
0000
0000
0000
0000
0000
0000
0000
0000
0000
ENDCHAR
STARTCHAR U+055E
ENCODING 1374
SWIDTH 500 0
DWIDTH 8 0
BBX 13 16 -2 -2
BITMAP 
01C0
0220
02C0
0180
0000
0000
0000
0000
0000
0000
0000
0000
0000
0000
0000
0000
ENDCHAR
STARTCHAR U+055F
ENCODING 1375
SWIDTH 500 0
DWIDTH 8 0
BBX 13 16 -2 -2
BITMAP 
0180
0280
0200
01C0
0000
0000
0000
0000
0000
0000
0000
0000
0000
0000
0000
0000
ENDCHAR
STARTCHAR U+0561
ENCODING 1377
SWIDTH 500 0
DWIDTH 8 0
BBX 13 16 -2 -2
BITMAP 
0000
0000
0000
0000
0000
0000
0920
0920
0920
1240
1240
1240
1280
0B80
0000
0000
ENDCHAR
STARTCHAR U+0562
ENCODING 1378
SWIDTH 500 0
DWIDTH 8 0
BBX 13 16 -2 -2
BITMAP 
0000
0000
0000
0000
0000
0000
0000
0B00
0C80
1080
1080
1000
3F00
2000
2000
4000
ENDCHAR
STARTCHAR U+0563
ENCODING 1379
SWIDTH 500 0
DWIDTH 8 0
BBX 13 16 -2 -2
BITMAP 
0000
0000
0000
0000
0000
0000
0680
0980
0880
1100
1100
1100
0F80
0200
0200
0400
ENDCHAR
STARTCHAR U+0564
ENCODING 1380
SWIDTH 500 0
DWIDTH 8 0
BBX 13 16 -2 -2
BITMAP 
0000
0000
0000
0000
0000
0000
0B00
0C80
0880
1100
1100
1100
2200
2380
0200
0400
ENDCHAR
STARTCHAR U+0565
ENCODING 1381
SWIDTH 500 0
DWIDTH 8 0
BBX 13 16 -2 -2
BITMAP 
0000
0000
0000
0000
0000
0400
0800
0800
0FC0
1000
1080
1080
3100
2E00
0000
0000
ENDCHAR
STARTCHAR U+0566
ENCODING 1382
SWIDTH 500 0
DWIDTH 8 0
BBX 13 16 -2 -2
BITMAP 
0000
0000
0000
0000
0000
0000
0680
0980
0880
1100
1100
1100
0E00
0200
0200
0700
ENDCHAR
STARTCHAR U+0567
ENCODING 1383
SWIDTH 500 0
DWIDTH 8 0
BBX 13 16 -2 -2
BITMAP 
0000
0000
0000
0000
0400
0400
0F80
0800
0800
1000
1000
1000
1000
0C00
0200
0000
ENDCHAR
STARTCHAR U+0568
ENCODING 1384
SWIDTH 500 0
DWIDTH 8 0
BBX 13 16 -2 -2
BITMAP 
0000
0000
0000
0000
0000
0000
0B80
0C40
0840
1080
1080
1080
2100
2100
2000
7E00
ENDCHAR
STARTCHAR U+0569
ENCODING 1385
SWIDTH 500 0
DWIDTH 8 0
BBX 13 16 -2 -2
BITMAP 
0000
0000
0000
0000
0000
0000
0B00
0C80
0880
13C0
1500
1600
2400
2000
2000
4000
ENDCHAR
STARTCHAR U+056A
ENCODING 1386
SWIDTH 500 0
DWIDTH 8 0
BBX 13 16 -2 -2
BITMAP 
0000
0000
0000
0000
0040
0040
0080
07E0
0880
1100
1100
1100
1200
0C00
0000
0000
ENDCHAR
STARTCHAR U+056B
ENCODING 1387
SWIDTH 500 0
DWIDTH 8 0
BBX 13 16 -2 -2
BITMAP 
0000
0000
0000
0000
0400
0400
0B80
0C40
0840
1080
1080
1080
2100
2100
2000
4000
ENDCHAR
STARTCHAR U+056C
ENCODING 1388
SWIDTH 500 0
DWIDTH 8 0
BBX 13 16 -2 -2
BITMAP 
0000
0000
0000
0000
0000
0000
0800
0800
0800
1000
1000
1000
2000
2000
2000
7C00
ENDCHAR
STARTCHAR U+056D
ENCODING 1389
SWIDTH 500 0
DWIDTH 8 0
BBX 13 16 -2 -2
BITMAP 
0000
0000
0000
0000
0400
0400
0800
0F20
0920
1240
1240
1280
2300
2000
2000
4000
ENDCHAR
STARTCHAR U+056E
ENCODING 1390
SWIDTH 500 0
DWIDTH 8 0
BBX 13 16 -2 -2
BITMAP 
0000
0000
0000
0000
0700
0080
0080
07E0
0880
1100
1100
1100
1200
0C00
0000
0000
ENDCHAR
STARTCHAR U+056F
ENCODING 1391
SWIDTH 500 0
DWIDTH 8 0
BBX 13 16 -2 -2
BITMAP 
0000
0000
0000
0000
0400
0400
0840
0840
0840
1080
1080
1080
1100
0F00
0100
0200
ENDCHAR
STARTCHAR U+0570
ENCODING 1392
SWIDTH 500 0
DWIDTH 8 0
BBX 13 16 -2 -2
BITMAP 
0000
0000
0000
0000
0400
0400
0800
0B00
0C80
1080
1080
1080
2100
2100
0000
0000
ENDCHAR
STARTCHAR U+0571
ENCODING 1393
SWIDTH 500 0
DWIDTH 8 0
BBX 13 16 -2 -2
BITMAP 
0000
0000
0000
0000
0080
0100
0100
07C0
0840
1080
1080
1080
1100
0F00
0000
0000
ENDCHAR
STARTCHAR U+0572
ENCODING 1394
SWIDTH 500 0
DWIDTH 8 0
BBX 13 16 -2 -2
BITMAP 
0000
0000
0000
0000
0000
0000
0B00
0C80
0880
1100
1100
1100
2200
2200
0200
0700
ENDCHAR
STARTCHAR U+0573
ENCODING 1395
SWIDTH 500 0
DWIDTH 8 0
BBX 13 16 -2 -2
BITMAP 
0000
0000
0000
0000
00E0
0110
0200
0FE0
0220
0440
0440
0440
0580
0280
0000
0000
ENDCHAR
STARTCHAR U+0574
ENCODING 1396
SWIDTH 500 0
DWIDTH 8 0
BBX 13 16 -2 -2
BITMAP 
0000
0000
0000
0000
0020
0050
0080
0880
0880
1100
1100
1100
1600
0A00
0000
0000
ENDCHAR
STARTCHAR U+0575
ENCODING 1397
SWIDTH 500 0
DWIDTH 8 0
BBX 13 16 -2 -2
BITMAP 
0000
0000
0000
0000
0000
0000
0180
0080
0080
0100
0100
0100
0200
0200
2C00
3000
ENDCHAR
STARTCHAR U+0576
ENCODING 1398
SWIDTH 500 0
DWIDTH 8 0
BBX 13 16 -2 -2
BITMAP 
0000
0000
0000
0000
03C0
0420
0800
0840
0840
1080
1080
1080
1300
0D00
0000
0000
ENDCHAR
STARTCHAR U+0577
ENCODING 1399
SWIDTH 500 0
DWIDTH 8 0
BBX 13 16 -2 -2
BITMAP 
0000
0000
0000
0000
0380
0480
0080
0100
0200
0200
0400
0800
1000
1F80
0000
0000
ENDCHAR
STARTCHAR U+0578
ENCODING 1400
SWIDTH 500 0
DWIDTH 8 0
BBX 13 16 -2 -2
BITMAP 
0000
0000
0000
0000
0000
0000
0B80
0C40
0840
1080
1080
1080
2100
2100
0000
0000
ENDCHAR
STARTCHAR U+0579
ENCODING 1401
SWIDTH 500 0
DWIDTH 8 0
BBX 13 16 -2 -2
BITMAP 
0000
0000
0000
0000
0100
0200
0200
0100
0200
0200
0400
0800
1000
1F80
0000
0000
ENDCHAR
STARTCHAR U+057A
ENCODING 1402
SWIDTH 500 0
DWIDTH 8 0
BBX 13 16 -2 -2
BITMAP 
0000
0000
0000
0000
0000
0000
0920
0920
0920
1240
1240
1240
1280
0B80
0080
0100
ENDCHAR
STARTCHAR U+057B
ENCODING 1403
SWIDTH 500 0
DWIDTH 8 0
BBX 13 16 -2 -2
BITMAP 
0000
0000
0000
0000
0380
0480
0880
0900
0600
0200
0400
0800
1000
1F80
0000
0000
ENDCHAR
STARTCHAR U+057C
ENCODING 1404
SWIDTH 500 0
DWIDTH 8 0
BBX 13 16 -2 -2
BITMAP 
0000
0000
0000
0000
0000
0000
0B00
0C80
0880
1100
1100
1100
2200
2380
0000
0000
ENDCHAR
STARTCHAR U+057D
ENCODING 1405
SWIDTH 500 0
DWIDTH 8 0
BBX 13 16 -2 -2
BITMAP 
0000
0000
0000
0000
0000
0000
0840
0840
0840
1080
1080
1080
1300
0D00
0000
0000
ENDCHAR
STARTCHAR U+057E
ENCODING 1406
SWIDTH 500 0
DWIDTH 8 0
BBX 13 16 -2 -2
BITMAP 
0000
0000
0000
0000
0040
0040
0080
0880
0880
1100
1100
1100
1600
0A00
0200
0700
ENDCHAR
STARTCHAR U+057F
ENCODING 1407
SWIDTH 500 0
DWIDTH 8 0
BBX 13 16 -2 -2
BITMAP 
0000
0000
0000
0000
0000
0000
0940
09A0
0920
1240
1240
1240
1C80
1480
0000
0000
ENDCHAR
STARTCHAR U+0580
ENCODING 1408
SWIDTH 500 0
DWIDTH 8 0
BBX 13 16 -2 -2
BITMAP 
0000
0000
0000
0000
0000
0000
0B80
0C40
0840
1080
1080
1080
2100
2100
2000
4000
ENDCHAR
STARTCHAR U+0581
ENCODING 1409
SWIDTH 500 0
DWIDTH 8 0
BBX 13 16 -2 -2
BITMAP 
0000
0000
0000
0000
0000
0000
0740
08C0
0840
1080
1080
1380
0D00
0100
2200
1C00
ENDCHAR
STARTCHAR U+0582
ENCODING 1410
SWIDTH 500 0
DWIDTH 8 0
BBX 13 16 -2 -2
BITMAP 
0000
0000
0000
0000
0000
0000
0300
0100
0100
0200
0200
0200
0400
0700
0000
0000
ENDCHAR
STARTCHAR U+0583
ENCODING 1411
SWIDTH 500 0
DWIDTH 8 0
BBX 13 16 -2 -2
BITMAP 
0000
0000
0000
0000
0080
0080
0940
09A0
0920
1240
1240
1240
1C80
1480
0400
0800
ENDCHAR
STARTCHAR U+0584
ENCODING 1412
SWIDTH 500 0
DWIDTH 8 0
BBX 13 16 -2 -2
BITMAP 
0000
0000
0000
00E0
0110
0100
0200
0F80
0200
0400
0400
0400
0800
0800
0000
0000
ENDCHAR
STARTCHAR U+0585
ENCODING 1413
SWIDTH 500 0
DWIDTH 8 0
BBX 13 16 -2 -2
BITMAP 
0000
0000
0000
0000
0000
0000
0780
0840
0840
1080
1080
1080
1100
0E00
0000
0000
ENDCHAR
STARTCHAR U+0586
ENCODING 1414
SWIDTH 500 0
DWIDTH 8 0
BBX 13 16 -2 -2
BITMAP 
0000
0000
0000
0000
0380
0480
0500
0300
0180
0240
0240
0240
2480
1F00
0400
0800
ENDCHAR
STARTCHAR U+0587
ENCODING 1415
SWIDTH 500 0
DWIDTH 8 0
BBX 13 16 -2 -2
BITMAP 
0000
0000
0000
0000
0400
0400
0800
0880
0880
1100
1100
1100
1100
0D80
0000
0000
ENDCHAR
STARTCHAR U+0589
ENCODING 1417
SWIDTH 500 0
DWIDTH 8 0
BBX 13 16 -2 -2
BITMAP 
0000
0000
0000
0000
0000
0000
0300
0300
0000
0000
0000
0600
0C00
0000
0000
0000
ENDCHAR
STARTCHAR U+058A
ENCODING 1418
SWIDTH 500 0
DWIDTH 8 0
BBX 13 16 -2 -2
BITMAP 
0000
0000
0000
0000
0000
0000
0000
0000
0000
0000
0000
0000
3100
1E00
0000
0000
ENDCHAR
STARTCHAR U+0591
ENCODING 1425
SWIDTH 500 0
DWIDTH 8 0
BBX 13 16 -2 -2
BITMAP 
0000
0000
0000
0000
0000
0000
0000
0000
0000
0000
0000
0200
0400
0E00
1100
0000
ENDCHAR
STARTCHAR U+0592
ENCODING 1426
SWIDTH 500 0
DWIDTH 8 0
BBX 13 16 -2 -2
BITMAP 
0000
0000
00C0
0000
0660
0000
0000
0000
0000
0000
0000
0000
0000
0000
0000
0000
ENDCHAR
STARTCHAR U+0593
ENCODING 1427
SWIDTH 500 0
DWIDTH 8 0
BBX 13 16 -2 -2
BITMAP 
0060
0180
00E0
0300
00C0
0300
0000
0000
0000
0000
0000
0000
0000
0000
0000
0000
ENDCHAR
STARTCHAR U+0594
ENCODING 1428
SWIDTH 500 0
DWIDTH 8 0
BBX 13 16 -2 -2
BITMAP 
0000
00C0
0000
0180
0000
0000
0000
0000
0000
0000
0000
0000
0000
0000
0000
0000
ENDCHAR
STARTCHAR U+0595
ENCODING 1429
SWIDTH 500 0
DWIDTH 8 0
BBX 13 16 -2 -2
BITMAP 
0000
0160
0100
02C0
0000
0000
0000
0000
0000
0000
0000
0000
0000
0000
0000
0000
ENDCHAR
STARTCHAR U+0596
ENCODING 1430
SWIDTH 500 0
DWIDTH 8 0
BBX 13 16 -2 -2
BITMAP 
0000
0000
0000
0000
0000
0000
0000
0000
0000
0000
0000
0000
0800
0800
0600
0000
ENDCHAR
STARTCHAR U+0597
ENCODING 1431
SWIDTH 500 0
DWIDTH 8 0
BBX 13 16 -2 -2
BITMAP 
0040
00E0
01F0
01C0
0080
0000
0000
0000
0000
0000
0000
0000
0000
0000
0000
0000
ENDCHAR
STARTCHAR U+0598
ENCODING 1432
SWIDTH 500 0
DWIDTH 8 0
BBX 13 16 -2 -2
BITMAP 
0000
0120
02A0
02A0
0240
0000
0000
0000
0000
0000
0000
0000
0000
0000
0000
0000
ENDCHAR
STARTCHAR U+0599
ENCODING 1433
SWIDTH 500 0
DWIDTH 8 0
BBX 13 16 -2 -2
BITMAP 
0000
0000
0400
0200
0200
0000
0000
0000
0000
0000
0000
0000
0000
0000
0000
0000
ENDCHAR
STARTCHAR U+059A
ENCODING 1434
SWIDTH 500 0
DWIDTH 8 0
BBX 13 16 -2 -2
BITMAP 
0000
0000
0000
0000
0000
0000
0000
0000
0000
0000
0000
0000
0100
0200
0100
0000
ENDCHAR
STARTCHAR U+059B
ENCODING 1435
SWIDTH 500 0
DWIDTH 8 0
BBX 13 16 -2 -2
BITMAP 
0000
0000
0000
0000
0000
0000
0000
0000
0000
0000
0000
0000
3400
3400
0800
7000
ENDCHAR
STARTCHAR U+059C
ENCODING 1436
SWIDTH 500 0
DWIDTH 8 0
BBX 13 16 -2 -2
BITMAP 
0000
0060
0080
0100
0000
0000
0000
0000
0000
0000
0000
0000
0000
0000
0000
0000
ENDCHAR
STARTCHAR U+059D
ENCODING 1437
SWIDTH 500 0
DWIDTH 8 0
BBX 13 16 -2 -2
BITMAP 
0000
0000
0018
0020
0040
0000
0000
0000
0000
0000
0000
0000
0000
0000
0000
0000
ENDCHAR
STARTCHAR U+059E
ENCODING 1438
SWIDTH 500 0
DWIDTH 8 0
BBX 13 16 -2 -2
BITMAP 
0000
0000
00F8
0140
0240
0000
0000
0000
0000
0000
0000
0000
0000
0000
0000
0000
ENDCHAR
STARTCHAR U+059F
ENCODING 1439
SWIDTH 500 0
DWIDTH 8 0
BBX 13 16 -2 -2
BITMAP 
0000
0210
0728
0420
0240
0000
0000
0000
0000
0000
0000
0000
0000
0000
0000
0000
ENDCHAR
STARTCHAR U+05A0
ENCODING 1440
SWIDTH 500 0
DWIDTH 8 0
BBX 13 16 -2 -2
BITMAP 
0000
0010
0038
0020
0040
0000
0000
0000
0000
0000
0000
0000
0000
0000
0000
0000
ENDCHAR
STARTCHAR U+05A1
ENCODING 1441
SWIDTH 500 0
DWIDTH 8 0
BBX 13 16 -2 -2
BITMAP 
0000
0000
0000
0500
0600
0800
0000
0000
0000
0000
0000
0000
0000
0000
0000
0000
ENDCHAR
STARTCHAR U+05A3
ENCODING 1443
SWIDTH 500 0
DWIDTH 8 0
BBX 13 16 -2 -2
BITMAP 
0000
0000
0000
0000
0000
0000
0000
0000
0000
0000
0000
0000
0400
0400
1C00
0000
ENDCHAR
STARTCHAR U+05A4
ENCODING 1444
SWIDTH 500 0
DWIDTH 8 0
BBX 13 16 -2 -2
BITMAP 
0000
0000
0000
0000
0000
0000
0000
0000
0000
0000
0000
0000
0400
0800
0400
0000
ENDCHAR
STARTCHAR U+05A5
ENCODING 1445
SWIDTH 500 0
DWIDTH 8 0
BBX 13 16 -2 -2
BITMAP 
0000
0000
0000
0000
0000
0000
0000
0000
0000
0000
0000
0000
0400
0400
1800
0000
ENDCHAR
STARTCHAR U+05A6
ENCODING 1446
SWIDTH 500 0
DWIDTH 8 0
BBX 13 16 -2 -2
BITMAP 
0000
0000
0000
0000
0000
0000
0000
0000
0000
0000
0000
0000
1200
1200
6C00
0000
ENDCHAR
STARTCHAR U+05A7
ENCODING 1447
SWIDTH 500 0
DWIDTH 8 0
BBX 13 16 -2 -2
BITMAP 
0000
0000
0000
0000
0000
0000
0000
0000
0000
0000
0000
0E00
1000
0C00
0600
1800
ENDCHAR
STARTCHAR U+05A8
ENCODING 1448
SWIDTH 500 0
DWIDTH 8 0
BBX 13 16 -2 -2
BITMAP 
0000
0000
0100
0080
0080
0000
0000
0000
0000
0000
0000
0000
0000
0000
0000
0000
ENDCHAR
STARTCHAR U+05A9
ENCODING 1449
SWIDTH 500 0
DWIDTH 8 0
BBX 13 16 -2 -2
BITMAP 
0000
0100
0380
0200
0100
0000
0000
0000
0000
0000
0000
0000
0000
0000
0000
0000
ENDCHAR
STARTCHAR U+05AA
ENCODING 1450
SWIDTH 500 0
DWIDTH 8 0
BBX 13 16 -2 -2
BITMAP 
0000
0000
0000
0000
0000
0000
0000
0000
0000
0000
0000
0000
1100
0E00
0400
0800
ENDCHAR
STARTCHAR U+05AB
ENCODING 1451
SWIDTH 500 0
DWIDTH 8 0
BBX 13 16 -2 -2
BITMAP 
0000
0080
0100
0100
0000
0000
0000
0000
0000
0000
0000
0000
0000
0000
0000
0000
ENDCHAR
ENDFONT
